%TF.GenerationSoftware,KiCad,Pcbnew,7.0.6-7.0.6~ubuntu22.04.1*%
%TF.CreationDate,2023-08-02T11:50:27+12:00*%
%TF.ProjectId,TWIST_SWTICH_BACKING_PLATE_v1.0,54574953-545f-4535-9754-4943485f4241,v1.0*%
%TF.SameCoordinates,Original*%
%TF.FileFunction,Legend,Bot*%
%TF.FilePolarity,Positive*%
%FSLAX46Y46*%
G04 Gerber Fmt 4.6, Leading zero omitted, Abs format (unit mm)*
G04 Created by KiCad (PCBNEW 7.0.6-7.0.6~ubuntu22.04.1) date 2023-08-02 11:50:27*
%MOMM*%
%LPD*%
G01*
G04 APERTURE LIST*
%ADD10C,0.200000*%
G04 APERTURE END LIST*
D10*
X205166666Y-152928409D02*
X205023809Y-152976028D01*
X205023809Y-152976028D02*
X204976190Y-153023647D01*
X204976190Y-153023647D02*
X204928571Y-153118885D01*
X204928571Y-153118885D02*
X204928571Y-153261742D01*
X204928571Y-153261742D02*
X204976190Y-153356980D01*
X204976190Y-153356980D02*
X205023809Y-153404600D01*
X205023809Y-153404600D02*
X205119047Y-153452219D01*
X205119047Y-153452219D02*
X205499999Y-153452219D01*
X205499999Y-153452219D02*
X205499999Y-152452219D01*
X205499999Y-152452219D02*
X205166666Y-152452219D01*
X205166666Y-152452219D02*
X205071428Y-152499838D01*
X205071428Y-152499838D02*
X205023809Y-152547457D01*
X205023809Y-152547457D02*
X204976190Y-152642695D01*
X204976190Y-152642695D02*
X204976190Y-152737933D01*
X204976190Y-152737933D02*
X205023809Y-152833171D01*
X205023809Y-152833171D02*
X205071428Y-152880790D01*
X205071428Y-152880790D02*
X205166666Y-152928409D01*
X205166666Y-152928409D02*
X205499999Y-152928409D01*
X204547618Y-153166504D02*
X204071428Y-153166504D01*
X204642856Y-153452219D02*
X204309523Y-152452219D01*
X204309523Y-152452219D02*
X203976190Y-153452219D01*
X203071428Y-153356980D02*
X203119047Y-153404600D01*
X203119047Y-153404600D02*
X203261904Y-153452219D01*
X203261904Y-153452219D02*
X203357142Y-153452219D01*
X203357142Y-153452219D02*
X203499999Y-153404600D01*
X203499999Y-153404600D02*
X203595237Y-153309361D01*
X203595237Y-153309361D02*
X203642856Y-153214123D01*
X203642856Y-153214123D02*
X203690475Y-153023647D01*
X203690475Y-153023647D02*
X203690475Y-152880790D01*
X203690475Y-152880790D02*
X203642856Y-152690314D01*
X203642856Y-152690314D02*
X203595237Y-152595076D01*
X203595237Y-152595076D02*
X203499999Y-152499838D01*
X203499999Y-152499838D02*
X203357142Y-152452219D01*
X203357142Y-152452219D02*
X203261904Y-152452219D01*
X203261904Y-152452219D02*
X203119047Y-152499838D01*
X203119047Y-152499838D02*
X203071428Y-152547457D01*
X202642856Y-153452219D02*
X202642856Y-152452219D01*
X202071428Y-153452219D02*
X202499999Y-152880790D01*
X202071428Y-152452219D02*
X202642856Y-153023647D01*
X201642856Y-153452219D02*
X201642856Y-152452219D01*
X201166666Y-153452219D02*
X201166666Y-152452219D01*
X201166666Y-152452219D02*
X200595238Y-153452219D01*
X200595238Y-153452219D02*
X200595238Y-152452219D01*
X199595238Y-152499838D02*
X199690476Y-152452219D01*
X199690476Y-152452219D02*
X199833333Y-152452219D01*
X199833333Y-152452219D02*
X199976190Y-152499838D01*
X199976190Y-152499838D02*
X200071428Y-152595076D01*
X200071428Y-152595076D02*
X200119047Y-152690314D01*
X200119047Y-152690314D02*
X200166666Y-152880790D01*
X200166666Y-152880790D02*
X200166666Y-153023647D01*
X200166666Y-153023647D02*
X200119047Y-153214123D01*
X200119047Y-153214123D02*
X200071428Y-153309361D01*
X200071428Y-153309361D02*
X199976190Y-153404600D01*
X199976190Y-153404600D02*
X199833333Y-153452219D01*
X199833333Y-153452219D02*
X199738095Y-153452219D01*
X199738095Y-153452219D02*
X199595238Y-153404600D01*
X199595238Y-153404600D02*
X199547619Y-153356980D01*
X199547619Y-153356980D02*
X199547619Y-153023647D01*
X199547619Y-153023647D02*
X199738095Y-153023647D01*
X198357142Y-153452219D02*
X198357142Y-152452219D01*
X198357142Y-152452219D02*
X197976190Y-152452219D01*
X197976190Y-152452219D02*
X197880952Y-152499838D01*
X197880952Y-152499838D02*
X197833333Y-152547457D01*
X197833333Y-152547457D02*
X197785714Y-152642695D01*
X197785714Y-152642695D02*
X197785714Y-152785552D01*
X197785714Y-152785552D02*
X197833333Y-152880790D01*
X197833333Y-152880790D02*
X197880952Y-152928409D01*
X197880952Y-152928409D02*
X197976190Y-152976028D01*
X197976190Y-152976028D02*
X198357142Y-152976028D01*
X196880952Y-153452219D02*
X197357142Y-153452219D01*
X197357142Y-153452219D02*
X197357142Y-152452219D01*
X196595237Y-153166504D02*
X196119047Y-153166504D01*
X196690475Y-153452219D02*
X196357142Y-152452219D01*
X196357142Y-152452219D02*
X196023809Y-153452219D01*
X195833332Y-152452219D02*
X195261904Y-152452219D01*
X195547618Y-153452219D02*
X195547618Y-152452219D01*
X194928570Y-152928409D02*
X194595237Y-152928409D01*
X194452380Y-153452219D02*
X194928570Y-153452219D01*
X194928570Y-153452219D02*
X194928570Y-152452219D01*
X194928570Y-152452219D02*
X194452380Y-152452219D01*
M02*
