%TF.GenerationSoftware,KiCad,Pcbnew,7.0.6-7.0.6~ubuntu22.04.1*%
%TF.CreationDate,2023-08-02T11:50:27+12:00*%
%TF.ProjectId,TWIST_SWTICH_BACKING_PLATE_v1.0,54574953-545f-4535-9754-4943485f4241,v1.0*%
%TF.SameCoordinates,Original*%
%TF.FileFunction,Copper,L1,Top*%
%TF.FilePolarity,Positive*%
%FSLAX46Y46*%
G04 Gerber Fmt 4.6, Leading zero omitted, Abs format (unit mm)*
G04 Created by KiCad (PCBNEW 7.0.6-7.0.6~ubuntu22.04.1) date 2023-08-02 11:50:27*
%MOMM*%
%LPD*%
G01*
G04 APERTURE LIST*
G04 APERTURE END LIST*
%TA.AperFunction,NonConductor*%
G36*
X208742539Y-145220185D02*
G01*
X208788294Y-145272989D01*
X208799500Y-145324500D01*
X208799500Y-154675500D01*
X208779815Y-154742539D01*
X208727011Y-154788294D01*
X208675500Y-154799500D01*
X191324500Y-154799500D01*
X191257461Y-154779815D01*
X191211706Y-154727011D01*
X191200500Y-154675500D01*
X191200500Y-150056330D01*
X192745710Y-150056330D01*
X192775925Y-150279387D01*
X192775926Y-150279390D01*
X192845483Y-150493465D01*
X192952146Y-150691678D01*
X192952148Y-150691681D01*
X193092489Y-150867663D01*
X193092491Y-150867664D01*
X193092492Y-150867666D01*
X193262004Y-151015765D01*
X193455236Y-151131215D01*
X193665976Y-151210307D01*
X193887450Y-151250500D01*
X193887453Y-151250500D01*
X194056148Y-151250500D01*
X194056155Y-151250500D01*
X194224188Y-151235377D01*
X194224192Y-151235376D01*
X194441160Y-151175496D01*
X194441162Y-151175495D01*
X194441170Y-151175493D01*
X194643973Y-151077829D01*
X194826078Y-150945522D01*
X194981632Y-150782825D01*
X195105635Y-150594968D01*
X195194103Y-150387988D01*
X195244191Y-150168537D01*
X195249230Y-150056330D01*
X198745710Y-150056330D01*
X198775925Y-150279387D01*
X198775926Y-150279390D01*
X198845483Y-150493465D01*
X198952146Y-150691678D01*
X198952148Y-150691681D01*
X199092489Y-150867663D01*
X199092491Y-150867664D01*
X199092492Y-150867666D01*
X199262004Y-151015765D01*
X199455236Y-151131215D01*
X199665976Y-151210307D01*
X199887450Y-151250500D01*
X199887453Y-151250500D01*
X200056148Y-151250500D01*
X200056155Y-151250500D01*
X200224188Y-151235377D01*
X200224192Y-151235376D01*
X200441160Y-151175496D01*
X200441162Y-151175495D01*
X200441170Y-151175493D01*
X200643973Y-151077829D01*
X200826078Y-150945522D01*
X200981632Y-150782825D01*
X201105635Y-150594968D01*
X201194103Y-150387988D01*
X201244191Y-150168537D01*
X201249230Y-150056330D01*
X204745710Y-150056330D01*
X204775925Y-150279387D01*
X204775926Y-150279390D01*
X204845483Y-150493465D01*
X204952146Y-150691678D01*
X204952148Y-150691681D01*
X205092489Y-150867663D01*
X205092491Y-150867664D01*
X205092492Y-150867666D01*
X205262004Y-151015765D01*
X205455236Y-151131215D01*
X205665976Y-151210307D01*
X205887450Y-151250500D01*
X205887453Y-151250500D01*
X206056148Y-151250500D01*
X206056155Y-151250500D01*
X206224188Y-151235377D01*
X206224192Y-151235376D01*
X206441160Y-151175496D01*
X206441162Y-151175495D01*
X206441170Y-151175493D01*
X206643973Y-151077829D01*
X206826078Y-150945522D01*
X206981632Y-150782825D01*
X207105635Y-150594968D01*
X207194103Y-150387988D01*
X207244191Y-150168537D01*
X207254290Y-149943670D01*
X207224075Y-149720613D01*
X207154517Y-149506536D01*
X207047852Y-149308319D01*
X206907508Y-149132334D01*
X206737996Y-148984235D01*
X206544764Y-148868785D01*
X206426775Y-148824503D01*
X206334023Y-148789692D01*
X206112550Y-148749500D01*
X206112547Y-148749500D01*
X205943845Y-148749500D01*
X205905399Y-148752960D01*
X205775813Y-148764622D01*
X205775807Y-148764623D01*
X205558839Y-148824503D01*
X205558826Y-148824508D01*
X205356033Y-148922167D01*
X205356025Y-148922171D01*
X205173927Y-149054473D01*
X205173925Y-149054474D01*
X205018366Y-149217176D01*
X204894363Y-149405033D01*
X204805899Y-149612004D01*
X204805895Y-149612017D01*
X204755810Y-149831457D01*
X204755808Y-149831468D01*
X204750769Y-149943674D01*
X204745710Y-150056330D01*
X201249230Y-150056330D01*
X201254290Y-149943670D01*
X201224075Y-149720613D01*
X201154517Y-149506536D01*
X201047852Y-149308319D01*
X200907508Y-149132334D01*
X200737996Y-148984235D01*
X200544764Y-148868785D01*
X200426775Y-148824503D01*
X200334023Y-148789692D01*
X200112550Y-148749500D01*
X200112547Y-148749500D01*
X199943845Y-148749500D01*
X199905399Y-148752960D01*
X199775813Y-148764622D01*
X199775807Y-148764623D01*
X199558839Y-148824503D01*
X199558826Y-148824508D01*
X199356033Y-148922167D01*
X199356025Y-148922171D01*
X199173927Y-149054473D01*
X199173925Y-149054474D01*
X199018366Y-149217176D01*
X198894363Y-149405033D01*
X198805899Y-149612004D01*
X198805895Y-149612017D01*
X198755810Y-149831457D01*
X198755808Y-149831468D01*
X198750769Y-149943674D01*
X198745710Y-150056330D01*
X195249230Y-150056330D01*
X195254290Y-149943670D01*
X195224075Y-149720613D01*
X195154517Y-149506536D01*
X195047852Y-149308319D01*
X194907508Y-149132334D01*
X194737996Y-148984235D01*
X194544764Y-148868785D01*
X194426775Y-148824503D01*
X194334023Y-148789692D01*
X194112550Y-148749500D01*
X194112547Y-148749500D01*
X193943845Y-148749500D01*
X193905399Y-148752960D01*
X193775813Y-148764622D01*
X193775807Y-148764623D01*
X193558839Y-148824503D01*
X193558826Y-148824508D01*
X193356033Y-148922167D01*
X193356025Y-148922171D01*
X193173927Y-149054473D01*
X193173925Y-149054474D01*
X193018366Y-149217176D01*
X192894363Y-149405033D01*
X192805899Y-149612004D01*
X192805895Y-149612017D01*
X192755810Y-149831457D01*
X192755808Y-149831468D01*
X192750769Y-149943674D01*
X192745710Y-150056330D01*
X191200500Y-150056330D01*
X191200500Y-145324500D01*
X191220185Y-145257461D01*
X191272989Y-145211706D01*
X191324500Y-145200500D01*
X208675500Y-145200500D01*
X208742539Y-145220185D01*
G37*
%TD.AperFunction*%
M02*
