%TF.GenerationSoftware,KiCad,Pcbnew,7.0.6-7.0.6~ubuntu22.04.1*%
%TF.CreationDate,2023-08-02T12:12:06+12:00*%
%TF.ProjectId,TWIST_SWTICH_SPACER_PLATE,54574953-545f-4535-9754-4943485f5350,v1.1*%
%TF.SameCoordinates,Original*%
%TF.FileFunction,Drillmap*%
%TF.FilePolarity,Positive*%
%FSLAX45Y45*%
G04 Gerber Fmt 4.5, Leading zero omitted, Abs format (unit mm)*
G04 Created by KiCad (PCBNEW 7.0.6-7.0.6~ubuntu22.04.1) date 2023-08-02 12:12:06*
%MOMM*%
%LPD*%
G01*
G04 APERTURE LIST*
%ADD10C,0.100000*%
%ADD11C,0.200000*%
%ADD12C,0.550000*%
G04 APERTURE END LIST*
D10*
X20900000Y-14500000D02*
X20900000Y-15500000D01*
X19100000Y-14500000D02*
X19100000Y-15500000D01*
X19100000Y-15500000D02*
X20900000Y-15500000D01*
X19100000Y-14500000D02*
X20900000Y-14500000D01*
D11*
X19300000Y-14900000D02*
X19500000Y-15100000D01*
X19500000Y-14900000D02*
X19300000Y-15100000D01*
X20500000Y-14900000D02*
X20700000Y-15100000D01*
X20700000Y-14900000D02*
X20500000Y-15100000D01*
D12*
X20275000Y-15000000D02*
G75*
G03*
X20275000Y-15000000I-275000J0D01*
G01*
D11*
X19355777Y-15816484D02*
X19355777Y-15616484D01*
X19355777Y-15616484D02*
X19403396Y-15616484D01*
X19403396Y-15616484D02*
X19431967Y-15626008D01*
X19431967Y-15626008D02*
X19451015Y-15645055D01*
X19451015Y-15645055D02*
X19460539Y-15664103D01*
X19460539Y-15664103D02*
X19470063Y-15702198D01*
X19470063Y-15702198D02*
X19470063Y-15730769D01*
X19470063Y-15730769D02*
X19460539Y-15768865D01*
X19460539Y-15768865D02*
X19451015Y-15787912D01*
X19451015Y-15787912D02*
X19431967Y-15806960D01*
X19431967Y-15806960D02*
X19403396Y-15816484D01*
X19403396Y-15816484D02*
X19355777Y-15816484D01*
X19555777Y-15816484D02*
X19555777Y-15683150D01*
X19555777Y-15721246D02*
X19565301Y-15702198D01*
X19565301Y-15702198D02*
X19574824Y-15692674D01*
X19574824Y-15692674D02*
X19593872Y-15683150D01*
X19593872Y-15683150D02*
X19612920Y-15683150D01*
X19679586Y-15816484D02*
X19679586Y-15683150D01*
X19679586Y-15616484D02*
X19670063Y-15626008D01*
X19670063Y-15626008D02*
X19679586Y-15635531D01*
X19679586Y-15635531D02*
X19689110Y-15626008D01*
X19689110Y-15626008D02*
X19679586Y-15616484D01*
X19679586Y-15616484D02*
X19679586Y-15635531D01*
X19803396Y-15816484D02*
X19784348Y-15806960D01*
X19784348Y-15806960D02*
X19774824Y-15787912D01*
X19774824Y-15787912D02*
X19774824Y-15616484D01*
X19908158Y-15816484D02*
X19889110Y-15806960D01*
X19889110Y-15806960D02*
X19879586Y-15787912D01*
X19879586Y-15787912D02*
X19879586Y-15616484D01*
X20136729Y-15816484D02*
X20136729Y-15616484D01*
X20136729Y-15616484D02*
X20203396Y-15759341D01*
X20203396Y-15759341D02*
X20270063Y-15616484D01*
X20270063Y-15616484D02*
X20270063Y-15816484D01*
X20451015Y-15816484D02*
X20451015Y-15711722D01*
X20451015Y-15711722D02*
X20441491Y-15692674D01*
X20441491Y-15692674D02*
X20422444Y-15683150D01*
X20422444Y-15683150D02*
X20384348Y-15683150D01*
X20384348Y-15683150D02*
X20365301Y-15692674D01*
X20451015Y-15806960D02*
X20431967Y-15816484D01*
X20431967Y-15816484D02*
X20384348Y-15816484D01*
X20384348Y-15816484D02*
X20365301Y-15806960D01*
X20365301Y-15806960D02*
X20355777Y-15787912D01*
X20355777Y-15787912D02*
X20355777Y-15768865D01*
X20355777Y-15768865D02*
X20365301Y-15749817D01*
X20365301Y-15749817D02*
X20384348Y-15740293D01*
X20384348Y-15740293D02*
X20431967Y-15740293D01*
X20431967Y-15740293D02*
X20451015Y-15730769D01*
X20546253Y-15683150D02*
X20546253Y-15883150D01*
X20546253Y-15692674D02*
X20565301Y-15683150D01*
X20565301Y-15683150D02*
X20603396Y-15683150D01*
X20603396Y-15683150D02*
X20622444Y-15692674D01*
X20622444Y-15692674D02*
X20631967Y-15702198D01*
X20631967Y-15702198D02*
X20641491Y-15721246D01*
X20641491Y-15721246D02*
X20641491Y-15778388D01*
X20641491Y-15778388D02*
X20631967Y-15797436D01*
X20631967Y-15797436D02*
X20622444Y-15806960D01*
X20622444Y-15806960D02*
X20603396Y-15816484D01*
X20603396Y-15816484D02*
X20565301Y-15816484D01*
X20565301Y-15816484D02*
X20546253Y-15806960D01*
X20727205Y-15797436D02*
X20736729Y-15806960D01*
X20736729Y-15806960D02*
X20727205Y-15816484D01*
X20727205Y-15816484D02*
X20717682Y-15806960D01*
X20717682Y-15806960D02*
X20727205Y-15797436D01*
X20727205Y-15797436D02*
X20727205Y-15816484D01*
X20727205Y-15692674D02*
X20736729Y-15702198D01*
X20736729Y-15702198D02*
X20727205Y-15711722D01*
X20727205Y-15711722D02*
X20717682Y-15702198D01*
X20717682Y-15702198D02*
X20727205Y-15692674D01*
X20727205Y-15692674D02*
X20727205Y-15711722D01*
X18895000Y-16045000D02*
X19095000Y-16245000D01*
X19095000Y-16045000D02*
X18895000Y-16245000D01*
X19346253Y-16055531D02*
X19355777Y-16046008D01*
X19355777Y-16046008D02*
X19374824Y-16036484D01*
X19374824Y-16036484D02*
X19422444Y-16036484D01*
X19422444Y-16036484D02*
X19441491Y-16046008D01*
X19441491Y-16046008D02*
X19451015Y-16055531D01*
X19451015Y-16055531D02*
X19460539Y-16074579D01*
X19460539Y-16074579D02*
X19460539Y-16093627D01*
X19460539Y-16093627D02*
X19451015Y-16122198D01*
X19451015Y-16122198D02*
X19336729Y-16236484D01*
X19336729Y-16236484D02*
X19460539Y-16236484D01*
X19546253Y-16217436D02*
X19555777Y-16226960D01*
X19555777Y-16226960D02*
X19546253Y-16236484D01*
X19546253Y-16236484D02*
X19536729Y-16226960D01*
X19536729Y-16226960D02*
X19546253Y-16217436D01*
X19546253Y-16217436D02*
X19546253Y-16236484D01*
X19679586Y-16036484D02*
X19698634Y-16036484D01*
X19698634Y-16036484D02*
X19717682Y-16046008D01*
X19717682Y-16046008D02*
X19727205Y-16055531D01*
X19727205Y-16055531D02*
X19736729Y-16074579D01*
X19736729Y-16074579D02*
X19746253Y-16112674D01*
X19746253Y-16112674D02*
X19746253Y-16160293D01*
X19746253Y-16160293D02*
X19736729Y-16198388D01*
X19736729Y-16198388D02*
X19727205Y-16217436D01*
X19727205Y-16217436D02*
X19717682Y-16226960D01*
X19717682Y-16226960D02*
X19698634Y-16236484D01*
X19698634Y-16236484D02*
X19679586Y-16236484D01*
X19679586Y-16236484D02*
X19660539Y-16226960D01*
X19660539Y-16226960D02*
X19651015Y-16217436D01*
X19651015Y-16217436D02*
X19641491Y-16198388D01*
X19641491Y-16198388D02*
X19631967Y-16160293D01*
X19631967Y-16160293D02*
X19631967Y-16112674D01*
X19631967Y-16112674D02*
X19641491Y-16074579D01*
X19641491Y-16074579D02*
X19651015Y-16055531D01*
X19651015Y-16055531D02*
X19660539Y-16046008D01*
X19660539Y-16046008D02*
X19679586Y-16036484D01*
X19870063Y-16036484D02*
X19889110Y-16036484D01*
X19889110Y-16036484D02*
X19908158Y-16046008D01*
X19908158Y-16046008D02*
X19917682Y-16055531D01*
X19917682Y-16055531D02*
X19927205Y-16074579D01*
X19927205Y-16074579D02*
X19936729Y-16112674D01*
X19936729Y-16112674D02*
X19936729Y-16160293D01*
X19936729Y-16160293D02*
X19927205Y-16198388D01*
X19927205Y-16198388D02*
X19917682Y-16217436D01*
X19917682Y-16217436D02*
X19908158Y-16226960D01*
X19908158Y-16226960D02*
X19889110Y-16236484D01*
X19889110Y-16236484D02*
X19870063Y-16236484D01*
X19870063Y-16236484D02*
X19851015Y-16226960D01*
X19851015Y-16226960D02*
X19841491Y-16217436D01*
X19841491Y-16217436D02*
X19831967Y-16198388D01*
X19831967Y-16198388D02*
X19822444Y-16160293D01*
X19822444Y-16160293D02*
X19822444Y-16112674D01*
X19822444Y-16112674D02*
X19831967Y-16074579D01*
X19831967Y-16074579D02*
X19841491Y-16055531D01*
X19841491Y-16055531D02*
X19851015Y-16046008D01*
X19851015Y-16046008D02*
X19870063Y-16036484D01*
X20060539Y-16036484D02*
X20079586Y-16036484D01*
X20079586Y-16036484D02*
X20098634Y-16046008D01*
X20098634Y-16046008D02*
X20108158Y-16055531D01*
X20108158Y-16055531D02*
X20117682Y-16074579D01*
X20117682Y-16074579D02*
X20127205Y-16112674D01*
X20127205Y-16112674D02*
X20127205Y-16160293D01*
X20127205Y-16160293D02*
X20117682Y-16198388D01*
X20117682Y-16198388D02*
X20108158Y-16217436D01*
X20108158Y-16217436D02*
X20098634Y-16226960D01*
X20098634Y-16226960D02*
X20079586Y-16236484D01*
X20079586Y-16236484D02*
X20060539Y-16236484D01*
X20060539Y-16236484D02*
X20041491Y-16226960D01*
X20041491Y-16226960D02*
X20031967Y-16217436D01*
X20031967Y-16217436D02*
X20022444Y-16198388D01*
X20022444Y-16198388D02*
X20012920Y-16160293D01*
X20012920Y-16160293D02*
X20012920Y-16112674D01*
X20012920Y-16112674D02*
X20022444Y-16074579D01*
X20022444Y-16074579D02*
X20031967Y-16055531D01*
X20031967Y-16055531D02*
X20041491Y-16046008D01*
X20041491Y-16046008D02*
X20060539Y-16036484D01*
X20212920Y-16236484D02*
X20212920Y-16103150D01*
X20212920Y-16122198D02*
X20222444Y-16112674D01*
X20222444Y-16112674D02*
X20241491Y-16103150D01*
X20241491Y-16103150D02*
X20270063Y-16103150D01*
X20270063Y-16103150D02*
X20289110Y-16112674D01*
X20289110Y-16112674D02*
X20298634Y-16131722D01*
X20298634Y-16131722D02*
X20298634Y-16236484D01*
X20298634Y-16131722D02*
X20308158Y-16112674D01*
X20308158Y-16112674D02*
X20327205Y-16103150D01*
X20327205Y-16103150D02*
X20355777Y-16103150D01*
X20355777Y-16103150D02*
X20374825Y-16112674D01*
X20374825Y-16112674D02*
X20384348Y-16131722D01*
X20384348Y-16131722D02*
X20384348Y-16236484D01*
X20479586Y-16236484D02*
X20479586Y-16103150D01*
X20479586Y-16122198D02*
X20489110Y-16112674D01*
X20489110Y-16112674D02*
X20508158Y-16103150D01*
X20508158Y-16103150D02*
X20536729Y-16103150D01*
X20536729Y-16103150D02*
X20555777Y-16112674D01*
X20555777Y-16112674D02*
X20565301Y-16131722D01*
X20565301Y-16131722D02*
X20565301Y-16236484D01*
X20565301Y-16131722D02*
X20574825Y-16112674D01*
X20574825Y-16112674D02*
X20593872Y-16103150D01*
X20593872Y-16103150D02*
X20622444Y-16103150D01*
X20622444Y-16103150D02*
X20641491Y-16112674D01*
X20641491Y-16112674D02*
X20651015Y-16131722D01*
X20651015Y-16131722D02*
X20651015Y-16236484D01*
X21041491Y-16026960D02*
X20870063Y-16284103D01*
X21298634Y-16036484D02*
X21317682Y-16036484D01*
X21317682Y-16036484D02*
X21336729Y-16046008D01*
X21336729Y-16046008D02*
X21346253Y-16055531D01*
X21346253Y-16055531D02*
X21355777Y-16074579D01*
X21355777Y-16074579D02*
X21365301Y-16112674D01*
X21365301Y-16112674D02*
X21365301Y-16160293D01*
X21365301Y-16160293D02*
X21355777Y-16198388D01*
X21355777Y-16198388D02*
X21346253Y-16217436D01*
X21346253Y-16217436D02*
X21336729Y-16226960D01*
X21336729Y-16226960D02*
X21317682Y-16236484D01*
X21317682Y-16236484D02*
X21298634Y-16236484D01*
X21298634Y-16236484D02*
X21279587Y-16226960D01*
X21279587Y-16226960D02*
X21270063Y-16217436D01*
X21270063Y-16217436D02*
X21260539Y-16198388D01*
X21260539Y-16198388D02*
X21251015Y-16160293D01*
X21251015Y-16160293D02*
X21251015Y-16112674D01*
X21251015Y-16112674D02*
X21260539Y-16074579D01*
X21260539Y-16074579D02*
X21270063Y-16055531D01*
X21270063Y-16055531D02*
X21279587Y-16046008D01*
X21279587Y-16046008D02*
X21298634Y-16036484D01*
X21451015Y-16217436D02*
X21460539Y-16226960D01*
X21460539Y-16226960D02*
X21451015Y-16236484D01*
X21451015Y-16236484D02*
X21441491Y-16226960D01*
X21441491Y-16226960D02*
X21451015Y-16217436D01*
X21451015Y-16217436D02*
X21451015Y-16236484D01*
X21584348Y-16036484D02*
X21603396Y-16036484D01*
X21603396Y-16036484D02*
X21622444Y-16046008D01*
X21622444Y-16046008D02*
X21631968Y-16055531D01*
X21631968Y-16055531D02*
X21641491Y-16074579D01*
X21641491Y-16074579D02*
X21651015Y-16112674D01*
X21651015Y-16112674D02*
X21651015Y-16160293D01*
X21651015Y-16160293D02*
X21641491Y-16198388D01*
X21641491Y-16198388D02*
X21631968Y-16217436D01*
X21631968Y-16217436D02*
X21622444Y-16226960D01*
X21622444Y-16226960D02*
X21603396Y-16236484D01*
X21603396Y-16236484D02*
X21584348Y-16236484D01*
X21584348Y-16236484D02*
X21565301Y-16226960D01*
X21565301Y-16226960D02*
X21555777Y-16217436D01*
X21555777Y-16217436D02*
X21546253Y-16198388D01*
X21546253Y-16198388D02*
X21536729Y-16160293D01*
X21536729Y-16160293D02*
X21536729Y-16112674D01*
X21536729Y-16112674D02*
X21546253Y-16074579D01*
X21546253Y-16074579D02*
X21555777Y-16055531D01*
X21555777Y-16055531D02*
X21565301Y-16046008D01*
X21565301Y-16046008D02*
X21584348Y-16036484D01*
X21717682Y-16036484D02*
X21851015Y-16036484D01*
X21851015Y-16036484D02*
X21765301Y-16236484D01*
X21955777Y-16122198D02*
X21936729Y-16112674D01*
X21936729Y-16112674D02*
X21927206Y-16103150D01*
X21927206Y-16103150D02*
X21917682Y-16084103D01*
X21917682Y-16084103D02*
X21917682Y-16074579D01*
X21917682Y-16074579D02*
X21927206Y-16055531D01*
X21927206Y-16055531D02*
X21936729Y-16046008D01*
X21936729Y-16046008D02*
X21955777Y-16036484D01*
X21955777Y-16036484D02*
X21993872Y-16036484D01*
X21993872Y-16036484D02*
X22012920Y-16046008D01*
X22012920Y-16046008D02*
X22022444Y-16055531D01*
X22022444Y-16055531D02*
X22031968Y-16074579D01*
X22031968Y-16074579D02*
X22031968Y-16084103D01*
X22031968Y-16084103D02*
X22022444Y-16103150D01*
X22022444Y-16103150D02*
X22012920Y-16112674D01*
X22012920Y-16112674D02*
X21993872Y-16122198D01*
X21993872Y-16122198D02*
X21955777Y-16122198D01*
X21955777Y-16122198D02*
X21936729Y-16131722D01*
X21936729Y-16131722D02*
X21927206Y-16141246D01*
X21927206Y-16141246D02*
X21917682Y-16160293D01*
X21917682Y-16160293D02*
X21917682Y-16198388D01*
X21917682Y-16198388D02*
X21927206Y-16217436D01*
X21927206Y-16217436D02*
X21936729Y-16226960D01*
X21936729Y-16226960D02*
X21955777Y-16236484D01*
X21955777Y-16236484D02*
X21993872Y-16236484D01*
X21993872Y-16236484D02*
X22012920Y-16226960D01*
X22012920Y-16226960D02*
X22022444Y-16217436D01*
X22022444Y-16217436D02*
X22031968Y-16198388D01*
X22031968Y-16198388D02*
X22031968Y-16160293D01*
X22031968Y-16160293D02*
X22022444Y-16141246D01*
X22022444Y-16141246D02*
X22012920Y-16131722D01*
X22012920Y-16131722D02*
X21993872Y-16122198D01*
X22098634Y-16036484D02*
X22231968Y-16036484D01*
X22231968Y-16036484D02*
X22146253Y-16236484D01*
X22298634Y-16036484D02*
X22298634Y-16074579D01*
X22374825Y-16036484D02*
X22374825Y-16074579D01*
X22670063Y-16312674D02*
X22660539Y-16303150D01*
X22660539Y-16303150D02*
X22641491Y-16274579D01*
X22641491Y-16274579D02*
X22631968Y-16255531D01*
X22631968Y-16255531D02*
X22622444Y-16226960D01*
X22622444Y-16226960D02*
X22612920Y-16179341D01*
X22612920Y-16179341D02*
X22612920Y-16141246D01*
X22612920Y-16141246D02*
X22622444Y-16093627D01*
X22622444Y-16093627D02*
X22631968Y-16065055D01*
X22631968Y-16065055D02*
X22641491Y-16046008D01*
X22641491Y-16046008D02*
X22660539Y-16017436D01*
X22660539Y-16017436D02*
X22670063Y-16007912D01*
X22736729Y-16055531D02*
X22746253Y-16046008D01*
X22746253Y-16046008D02*
X22765301Y-16036484D01*
X22765301Y-16036484D02*
X22812920Y-16036484D01*
X22812920Y-16036484D02*
X22831968Y-16046008D01*
X22831968Y-16046008D02*
X22841491Y-16055531D01*
X22841491Y-16055531D02*
X22851015Y-16074579D01*
X22851015Y-16074579D02*
X22851015Y-16093627D01*
X22851015Y-16093627D02*
X22841491Y-16122198D01*
X22841491Y-16122198D02*
X22727206Y-16236484D01*
X22727206Y-16236484D02*
X22851015Y-16236484D01*
X23089110Y-16236484D02*
X23089110Y-16036484D01*
X23174825Y-16236484D02*
X23174825Y-16131722D01*
X23174825Y-16131722D02*
X23165301Y-16112674D01*
X23165301Y-16112674D02*
X23146253Y-16103150D01*
X23146253Y-16103150D02*
X23117682Y-16103150D01*
X23117682Y-16103150D02*
X23098634Y-16112674D01*
X23098634Y-16112674D02*
X23089110Y-16122198D01*
X23298634Y-16236484D02*
X23279587Y-16226960D01*
X23279587Y-16226960D02*
X23270063Y-16217436D01*
X23270063Y-16217436D02*
X23260539Y-16198388D01*
X23260539Y-16198388D02*
X23260539Y-16141246D01*
X23260539Y-16141246D02*
X23270063Y-16122198D01*
X23270063Y-16122198D02*
X23279587Y-16112674D01*
X23279587Y-16112674D02*
X23298634Y-16103150D01*
X23298634Y-16103150D02*
X23327206Y-16103150D01*
X23327206Y-16103150D02*
X23346253Y-16112674D01*
X23346253Y-16112674D02*
X23355777Y-16122198D01*
X23355777Y-16122198D02*
X23365301Y-16141246D01*
X23365301Y-16141246D02*
X23365301Y-16198388D01*
X23365301Y-16198388D02*
X23355777Y-16217436D01*
X23355777Y-16217436D02*
X23346253Y-16226960D01*
X23346253Y-16226960D02*
X23327206Y-16236484D01*
X23327206Y-16236484D02*
X23298634Y-16236484D01*
X23479587Y-16236484D02*
X23460539Y-16226960D01*
X23460539Y-16226960D02*
X23451015Y-16207912D01*
X23451015Y-16207912D02*
X23451015Y-16036484D01*
X23631968Y-16226960D02*
X23612920Y-16236484D01*
X23612920Y-16236484D02*
X23574825Y-16236484D01*
X23574825Y-16236484D02*
X23555777Y-16226960D01*
X23555777Y-16226960D02*
X23546253Y-16207912D01*
X23546253Y-16207912D02*
X23546253Y-16131722D01*
X23546253Y-16131722D02*
X23555777Y-16112674D01*
X23555777Y-16112674D02*
X23574825Y-16103150D01*
X23574825Y-16103150D02*
X23612920Y-16103150D01*
X23612920Y-16103150D02*
X23631968Y-16112674D01*
X23631968Y-16112674D02*
X23641491Y-16131722D01*
X23641491Y-16131722D02*
X23641491Y-16150769D01*
X23641491Y-16150769D02*
X23546253Y-16169817D01*
X23717682Y-16226960D02*
X23736730Y-16236484D01*
X23736730Y-16236484D02*
X23774825Y-16236484D01*
X23774825Y-16236484D02*
X23793872Y-16226960D01*
X23793872Y-16226960D02*
X23803396Y-16207912D01*
X23803396Y-16207912D02*
X23803396Y-16198388D01*
X23803396Y-16198388D02*
X23793872Y-16179341D01*
X23793872Y-16179341D02*
X23774825Y-16169817D01*
X23774825Y-16169817D02*
X23746253Y-16169817D01*
X23746253Y-16169817D02*
X23727206Y-16160293D01*
X23727206Y-16160293D02*
X23717682Y-16141246D01*
X23717682Y-16141246D02*
X23717682Y-16131722D01*
X23717682Y-16131722D02*
X23727206Y-16112674D01*
X23727206Y-16112674D02*
X23746253Y-16103150D01*
X23746253Y-16103150D02*
X23774825Y-16103150D01*
X23774825Y-16103150D02*
X23793872Y-16112674D01*
X23870063Y-16312674D02*
X23879587Y-16303150D01*
X23879587Y-16303150D02*
X23898634Y-16274579D01*
X23898634Y-16274579D02*
X23908158Y-16255531D01*
X23908158Y-16255531D02*
X23917682Y-16226960D01*
X23917682Y-16226960D02*
X23927206Y-16179341D01*
X23927206Y-16179341D02*
X23927206Y-16141246D01*
X23927206Y-16141246D02*
X23917682Y-16093627D01*
X23917682Y-16093627D02*
X23908158Y-16065055D01*
X23908158Y-16065055D02*
X23898634Y-16046008D01*
X23898634Y-16046008D02*
X23879587Y-16017436D01*
X23879587Y-16017436D02*
X23870063Y-16007912D01*
X24231968Y-16312674D02*
X24222444Y-16303150D01*
X24222444Y-16303150D02*
X24203396Y-16274579D01*
X24203396Y-16274579D02*
X24193872Y-16255531D01*
X24193872Y-16255531D02*
X24184349Y-16226960D01*
X24184349Y-16226960D02*
X24174825Y-16179341D01*
X24174825Y-16179341D02*
X24174825Y-16141246D01*
X24174825Y-16141246D02*
X24184349Y-16093627D01*
X24184349Y-16093627D02*
X24193872Y-16065055D01*
X24193872Y-16065055D02*
X24203396Y-16046008D01*
X24203396Y-16046008D02*
X24222444Y-16017436D01*
X24222444Y-16017436D02*
X24231968Y-16007912D01*
X24308158Y-16103150D02*
X24308158Y-16236484D01*
X24308158Y-16122198D02*
X24317682Y-16112674D01*
X24317682Y-16112674D02*
X24336730Y-16103150D01*
X24336730Y-16103150D02*
X24365301Y-16103150D01*
X24365301Y-16103150D02*
X24384349Y-16112674D01*
X24384349Y-16112674D02*
X24393872Y-16131722D01*
X24393872Y-16131722D02*
X24393872Y-16236484D01*
X24517682Y-16236484D02*
X24498634Y-16226960D01*
X24498634Y-16226960D02*
X24489111Y-16217436D01*
X24489111Y-16217436D02*
X24479587Y-16198388D01*
X24479587Y-16198388D02*
X24479587Y-16141246D01*
X24479587Y-16141246D02*
X24489111Y-16122198D01*
X24489111Y-16122198D02*
X24498634Y-16112674D01*
X24498634Y-16112674D02*
X24517682Y-16103150D01*
X24517682Y-16103150D02*
X24546253Y-16103150D01*
X24546253Y-16103150D02*
X24565301Y-16112674D01*
X24565301Y-16112674D02*
X24574825Y-16122198D01*
X24574825Y-16122198D02*
X24584349Y-16141246D01*
X24584349Y-16141246D02*
X24584349Y-16198388D01*
X24584349Y-16198388D02*
X24574825Y-16217436D01*
X24574825Y-16217436D02*
X24565301Y-16226960D01*
X24565301Y-16226960D02*
X24546253Y-16236484D01*
X24546253Y-16236484D02*
X24517682Y-16236484D01*
X24641492Y-16103150D02*
X24717682Y-16103150D01*
X24670063Y-16036484D02*
X24670063Y-16207912D01*
X24670063Y-16207912D02*
X24679587Y-16226960D01*
X24679587Y-16226960D02*
X24698634Y-16236484D01*
X24698634Y-16236484D02*
X24717682Y-16236484D01*
X24936730Y-16103150D02*
X24936730Y-16303150D01*
X24936730Y-16112674D02*
X24955777Y-16103150D01*
X24955777Y-16103150D02*
X24993873Y-16103150D01*
X24993873Y-16103150D02*
X25012920Y-16112674D01*
X25012920Y-16112674D02*
X25022444Y-16122198D01*
X25022444Y-16122198D02*
X25031968Y-16141246D01*
X25031968Y-16141246D02*
X25031968Y-16198388D01*
X25031968Y-16198388D02*
X25022444Y-16217436D01*
X25022444Y-16217436D02*
X25012920Y-16226960D01*
X25012920Y-16226960D02*
X24993873Y-16236484D01*
X24993873Y-16236484D02*
X24955777Y-16236484D01*
X24955777Y-16236484D02*
X24936730Y-16226960D01*
X25146253Y-16236484D02*
X25127206Y-16226960D01*
X25127206Y-16226960D02*
X25117682Y-16207912D01*
X25117682Y-16207912D02*
X25117682Y-16036484D01*
X25308158Y-16236484D02*
X25308158Y-16131722D01*
X25308158Y-16131722D02*
X25298634Y-16112674D01*
X25298634Y-16112674D02*
X25279587Y-16103150D01*
X25279587Y-16103150D02*
X25241492Y-16103150D01*
X25241492Y-16103150D02*
X25222444Y-16112674D01*
X25308158Y-16226960D02*
X25289111Y-16236484D01*
X25289111Y-16236484D02*
X25241492Y-16236484D01*
X25241492Y-16236484D02*
X25222444Y-16226960D01*
X25222444Y-16226960D02*
X25212920Y-16207912D01*
X25212920Y-16207912D02*
X25212920Y-16188865D01*
X25212920Y-16188865D02*
X25222444Y-16169817D01*
X25222444Y-16169817D02*
X25241492Y-16160293D01*
X25241492Y-16160293D02*
X25289111Y-16160293D01*
X25289111Y-16160293D02*
X25308158Y-16150769D01*
X25374825Y-16103150D02*
X25451015Y-16103150D01*
X25403396Y-16036484D02*
X25403396Y-16207912D01*
X25403396Y-16207912D02*
X25412920Y-16226960D01*
X25412920Y-16226960D02*
X25431968Y-16236484D01*
X25431968Y-16236484D02*
X25451015Y-16236484D01*
X25593873Y-16226960D02*
X25574825Y-16236484D01*
X25574825Y-16236484D02*
X25536730Y-16236484D01*
X25536730Y-16236484D02*
X25517682Y-16226960D01*
X25517682Y-16226960D02*
X25508158Y-16207912D01*
X25508158Y-16207912D02*
X25508158Y-16131722D01*
X25508158Y-16131722D02*
X25517682Y-16112674D01*
X25517682Y-16112674D02*
X25536730Y-16103150D01*
X25536730Y-16103150D02*
X25574825Y-16103150D01*
X25574825Y-16103150D02*
X25593873Y-16112674D01*
X25593873Y-16112674D02*
X25603396Y-16131722D01*
X25603396Y-16131722D02*
X25603396Y-16150769D01*
X25603396Y-16150769D02*
X25508158Y-16169817D01*
X25774825Y-16236484D02*
X25774825Y-16036484D01*
X25774825Y-16226960D02*
X25755777Y-16236484D01*
X25755777Y-16236484D02*
X25717682Y-16236484D01*
X25717682Y-16236484D02*
X25698634Y-16226960D01*
X25698634Y-16226960D02*
X25689111Y-16217436D01*
X25689111Y-16217436D02*
X25679587Y-16198388D01*
X25679587Y-16198388D02*
X25679587Y-16141246D01*
X25679587Y-16141246D02*
X25689111Y-16122198D01*
X25689111Y-16122198D02*
X25698634Y-16112674D01*
X25698634Y-16112674D02*
X25717682Y-16103150D01*
X25717682Y-16103150D02*
X25755777Y-16103150D01*
X25755777Y-16103150D02*
X25774825Y-16112674D01*
X25851015Y-16312674D02*
X25860539Y-16303150D01*
X25860539Y-16303150D02*
X25879587Y-16274579D01*
X25879587Y-16274579D02*
X25889111Y-16255531D01*
X25889111Y-16255531D02*
X25898634Y-16226960D01*
X25898634Y-16226960D02*
X25908158Y-16179341D01*
X25908158Y-16179341D02*
X25908158Y-16141246D01*
X25908158Y-16141246D02*
X25898634Y-16093627D01*
X25898634Y-16093627D02*
X25889111Y-16065055D01*
X25889111Y-16065055D02*
X25879587Y-16046008D01*
X25879587Y-16046008D02*
X25860539Y-16017436D01*
X25860539Y-16017436D02*
X25851015Y-16007912D01*
X19095000Y-16465000D02*
G75*
G03*
X19095000Y-16465000I-100000J0D01*
G01*
X19451015Y-16356484D02*
X19355777Y-16356484D01*
X19355777Y-16356484D02*
X19346253Y-16451722D01*
X19346253Y-16451722D02*
X19355777Y-16442198D01*
X19355777Y-16442198D02*
X19374824Y-16432674D01*
X19374824Y-16432674D02*
X19422444Y-16432674D01*
X19422444Y-16432674D02*
X19441491Y-16442198D01*
X19441491Y-16442198D02*
X19451015Y-16451722D01*
X19451015Y-16451722D02*
X19460539Y-16470769D01*
X19460539Y-16470769D02*
X19460539Y-16518388D01*
X19460539Y-16518388D02*
X19451015Y-16537436D01*
X19451015Y-16537436D02*
X19441491Y-16546960D01*
X19441491Y-16546960D02*
X19422444Y-16556484D01*
X19422444Y-16556484D02*
X19374824Y-16556484D01*
X19374824Y-16556484D02*
X19355777Y-16546960D01*
X19355777Y-16546960D02*
X19346253Y-16537436D01*
X19546253Y-16537436D02*
X19555777Y-16546960D01*
X19555777Y-16546960D02*
X19546253Y-16556484D01*
X19546253Y-16556484D02*
X19536729Y-16546960D01*
X19536729Y-16546960D02*
X19546253Y-16537436D01*
X19546253Y-16537436D02*
X19546253Y-16556484D01*
X19736729Y-16356484D02*
X19641491Y-16356484D01*
X19641491Y-16356484D02*
X19631967Y-16451722D01*
X19631967Y-16451722D02*
X19641491Y-16442198D01*
X19641491Y-16442198D02*
X19660539Y-16432674D01*
X19660539Y-16432674D02*
X19708158Y-16432674D01*
X19708158Y-16432674D02*
X19727205Y-16442198D01*
X19727205Y-16442198D02*
X19736729Y-16451722D01*
X19736729Y-16451722D02*
X19746253Y-16470769D01*
X19746253Y-16470769D02*
X19746253Y-16518388D01*
X19746253Y-16518388D02*
X19736729Y-16537436D01*
X19736729Y-16537436D02*
X19727205Y-16546960D01*
X19727205Y-16546960D02*
X19708158Y-16556484D01*
X19708158Y-16556484D02*
X19660539Y-16556484D01*
X19660539Y-16556484D02*
X19641491Y-16546960D01*
X19641491Y-16546960D02*
X19631967Y-16537436D01*
X19870063Y-16356484D02*
X19889110Y-16356484D01*
X19889110Y-16356484D02*
X19908158Y-16366008D01*
X19908158Y-16366008D02*
X19917682Y-16375531D01*
X19917682Y-16375531D02*
X19927205Y-16394579D01*
X19927205Y-16394579D02*
X19936729Y-16432674D01*
X19936729Y-16432674D02*
X19936729Y-16480293D01*
X19936729Y-16480293D02*
X19927205Y-16518388D01*
X19927205Y-16518388D02*
X19917682Y-16537436D01*
X19917682Y-16537436D02*
X19908158Y-16546960D01*
X19908158Y-16546960D02*
X19889110Y-16556484D01*
X19889110Y-16556484D02*
X19870063Y-16556484D01*
X19870063Y-16556484D02*
X19851015Y-16546960D01*
X19851015Y-16546960D02*
X19841491Y-16537436D01*
X19841491Y-16537436D02*
X19831967Y-16518388D01*
X19831967Y-16518388D02*
X19822444Y-16480293D01*
X19822444Y-16480293D02*
X19822444Y-16432674D01*
X19822444Y-16432674D02*
X19831967Y-16394579D01*
X19831967Y-16394579D02*
X19841491Y-16375531D01*
X19841491Y-16375531D02*
X19851015Y-16366008D01*
X19851015Y-16366008D02*
X19870063Y-16356484D01*
X20060539Y-16356484D02*
X20079586Y-16356484D01*
X20079586Y-16356484D02*
X20098634Y-16366008D01*
X20098634Y-16366008D02*
X20108158Y-16375531D01*
X20108158Y-16375531D02*
X20117682Y-16394579D01*
X20117682Y-16394579D02*
X20127205Y-16432674D01*
X20127205Y-16432674D02*
X20127205Y-16480293D01*
X20127205Y-16480293D02*
X20117682Y-16518388D01*
X20117682Y-16518388D02*
X20108158Y-16537436D01*
X20108158Y-16537436D02*
X20098634Y-16546960D01*
X20098634Y-16546960D02*
X20079586Y-16556484D01*
X20079586Y-16556484D02*
X20060539Y-16556484D01*
X20060539Y-16556484D02*
X20041491Y-16546960D01*
X20041491Y-16546960D02*
X20031967Y-16537436D01*
X20031967Y-16537436D02*
X20022444Y-16518388D01*
X20022444Y-16518388D02*
X20012920Y-16480293D01*
X20012920Y-16480293D02*
X20012920Y-16432674D01*
X20012920Y-16432674D02*
X20022444Y-16394579D01*
X20022444Y-16394579D02*
X20031967Y-16375531D01*
X20031967Y-16375531D02*
X20041491Y-16366008D01*
X20041491Y-16366008D02*
X20060539Y-16356484D01*
X20212920Y-16556484D02*
X20212920Y-16423150D01*
X20212920Y-16442198D02*
X20222444Y-16432674D01*
X20222444Y-16432674D02*
X20241491Y-16423150D01*
X20241491Y-16423150D02*
X20270063Y-16423150D01*
X20270063Y-16423150D02*
X20289110Y-16432674D01*
X20289110Y-16432674D02*
X20298634Y-16451722D01*
X20298634Y-16451722D02*
X20298634Y-16556484D01*
X20298634Y-16451722D02*
X20308158Y-16432674D01*
X20308158Y-16432674D02*
X20327205Y-16423150D01*
X20327205Y-16423150D02*
X20355777Y-16423150D01*
X20355777Y-16423150D02*
X20374825Y-16432674D01*
X20374825Y-16432674D02*
X20384348Y-16451722D01*
X20384348Y-16451722D02*
X20384348Y-16556484D01*
X20479586Y-16556484D02*
X20479586Y-16423150D01*
X20479586Y-16442198D02*
X20489110Y-16432674D01*
X20489110Y-16432674D02*
X20508158Y-16423150D01*
X20508158Y-16423150D02*
X20536729Y-16423150D01*
X20536729Y-16423150D02*
X20555777Y-16432674D01*
X20555777Y-16432674D02*
X20565301Y-16451722D01*
X20565301Y-16451722D02*
X20565301Y-16556484D01*
X20565301Y-16451722D02*
X20574825Y-16432674D01*
X20574825Y-16432674D02*
X20593872Y-16423150D01*
X20593872Y-16423150D02*
X20622444Y-16423150D01*
X20622444Y-16423150D02*
X20641491Y-16432674D01*
X20641491Y-16432674D02*
X20651015Y-16451722D01*
X20651015Y-16451722D02*
X20651015Y-16556484D01*
X21041491Y-16346960D02*
X20870063Y-16604103D01*
X21298634Y-16356484D02*
X21317682Y-16356484D01*
X21317682Y-16356484D02*
X21336729Y-16366008D01*
X21336729Y-16366008D02*
X21346253Y-16375531D01*
X21346253Y-16375531D02*
X21355777Y-16394579D01*
X21355777Y-16394579D02*
X21365301Y-16432674D01*
X21365301Y-16432674D02*
X21365301Y-16480293D01*
X21365301Y-16480293D02*
X21355777Y-16518388D01*
X21355777Y-16518388D02*
X21346253Y-16537436D01*
X21346253Y-16537436D02*
X21336729Y-16546960D01*
X21336729Y-16546960D02*
X21317682Y-16556484D01*
X21317682Y-16556484D02*
X21298634Y-16556484D01*
X21298634Y-16556484D02*
X21279587Y-16546960D01*
X21279587Y-16546960D02*
X21270063Y-16537436D01*
X21270063Y-16537436D02*
X21260539Y-16518388D01*
X21260539Y-16518388D02*
X21251015Y-16480293D01*
X21251015Y-16480293D02*
X21251015Y-16432674D01*
X21251015Y-16432674D02*
X21260539Y-16394579D01*
X21260539Y-16394579D02*
X21270063Y-16375531D01*
X21270063Y-16375531D02*
X21279587Y-16366008D01*
X21279587Y-16366008D02*
X21298634Y-16356484D01*
X21451015Y-16537436D02*
X21460539Y-16546960D01*
X21460539Y-16546960D02*
X21451015Y-16556484D01*
X21451015Y-16556484D02*
X21441491Y-16546960D01*
X21441491Y-16546960D02*
X21451015Y-16537436D01*
X21451015Y-16537436D02*
X21451015Y-16556484D01*
X21536729Y-16375531D02*
X21546253Y-16366008D01*
X21546253Y-16366008D02*
X21565301Y-16356484D01*
X21565301Y-16356484D02*
X21612920Y-16356484D01*
X21612920Y-16356484D02*
X21631968Y-16366008D01*
X21631968Y-16366008D02*
X21641491Y-16375531D01*
X21641491Y-16375531D02*
X21651015Y-16394579D01*
X21651015Y-16394579D02*
X21651015Y-16413627D01*
X21651015Y-16413627D02*
X21641491Y-16442198D01*
X21641491Y-16442198D02*
X21527206Y-16556484D01*
X21527206Y-16556484D02*
X21651015Y-16556484D01*
X21841491Y-16556484D02*
X21727206Y-16556484D01*
X21784348Y-16556484D02*
X21784348Y-16356484D01*
X21784348Y-16356484D02*
X21765301Y-16385055D01*
X21765301Y-16385055D02*
X21746253Y-16404103D01*
X21746253Y-16404103D02*
X21727206Y-16413627D01*
X22012920Y-16356484D02*
X21974825Y-16356484D01*
X21974825Y-16356484D02*
X21955777Y-16366008D01*
X21955777Y-16366008D02*
X21946253Y-16375531D01*
X21946253Y-16375531D02*
X21927206Y-16404103D01*
X21927206Y-16404103D02*
X21917682Y-16442198D01*
X21917682Y-16442198D02*
X21917682Y-16518388D01*
X21917682Y-16518388D02*
X21927206Y-16537436D01*
X21927206Y-16537436D02*
X21936729Y-16546960D01*
X21936729Y-16546960D02*
X21955777Y-16556484D01*
X21955777Y-16556484D02*
X21993872Y-16556484D01*
X21993872Y-16556484D02*
X22012920Y-16546960D01*
X22012920Y-16546960D02*
X22022444Y-16537436D01*
X22022444Y-16537436D02*
X22031968Y-16518388D01*
X22031968Y-16518388D02*
X22031968Y-16470769D01*
X22031968Y-16470769D02*
X22022444Y-16451722D01*
X22022444Y-16451722D02*
X22012920Y-16442198D01*
X22012920Y-16442198D02*
X21993872Y-16432674D01*
X21993872Y-16432674D02*
X21955777Y-16432674D01*
X21955777Y-16432674D02*
X21936729Y-16442198D01*
X21936729Y-16442198D02*
X21927206Y-16451722D01*
X21927206Y-16451722D02*
X21917682Y-16470769D01*
X22212920Y-16356484D02*
X22117682Y-16356484D01*
X22117682Y-16356484D02*
X22108158Y-16451722D01*
X22108158Y-16451722D02*
X22117682Y-16442198D01*
X22117682Y-16442198D02*
X22136729Y-16432674D01*
X22136729Y-16432674D02*
X22184349Y-16432674D01*
X22184349Y-16432674D02*
X22203396Y-16442198D01*
X22203396Y-16442198D02*
X22212920Y-16451722D01*
X22212920Y-16451722D02*
X22222444Y-16470769D01*
X22222444Y-16470769D02*
X22222444Y-16518388D01*
X22222444Y-16518388D02*
X22212920Y-16537436D01*
X22212920Y-16537436D02*
X22203396Y-16546960D01*
X22203396Y-16546960D02*
X22184349Y-16556484D01*
X22184349Y-16556484D02*
X22136729Y-16556484D01*
X22136729Y-16556484D02*
X22117682Y-16546960D01*
X22117682Y-16546960D02*
X22108158Y-16537436D01*
X22298634Y-16356484D02*
X22298634Y-16394579D01*
X22374825Y-16356484D02*
X22374825Y-16394579D01*
X22670063Y-16632674D02*
X22660539Y-16623150D01*
X22660539Y-16623150D02*
X22641491Y-16594579D01*
X22641491Y-16594579D02*
X22631968Y-16575531D01*
X22631968Y-16575531D02*
X22622444Y-16546960D01*
X22622444Y-16546960D02*
X22612920Y-16499341D01*
X22612920Y-16499341D02*
X22612920Y-16461246D01*
X22612920Y-16461246D02*
X22622444Y-16413627D01*
X22622444Y-16413627D02*
X22631968Y-16385055D01*
X22631968Y-16385055D02*
X22641491Y-16366008D01*
X22641491Y-16366008D02*
X22660539Y-16337436D01*
X22660539Y-16337436D02*
X22670063Y-16327912D01*
X22851015Y-16556484D02*
X22736729Y-16556484D01*
X22793872Y-16556484D02*
X22793872Y-16356484D01*
X22793872Y-16356484D02*
X22774825Y-16385055D01*
X22774825Y-16385055D02*
X22755777Y-16404103D01*
X22755777Y-16404103D02*
X22736729Y-16413627D01*
X23089110Y-16556484D02*
X23089110Y-16356484D01*
X23174825Y-16556484D02*
X23174825Y-16451722D01*
X23174825Y-16451722D02*
X23165301Y-16432674D01*
X23165301Y-16432674D02*
X23146253Y-16423150D01*
X23146253Y-16423150D02*
X23117682Y-16423150D01*
X23117682Y-16423150D02*
X23098634Y-16432674D01*
X23098634Y-16432674D02*
X23089110Y-16442198D01*
X23298634Y-16556484D02*
X23279587Y-16546960D01*
X23279587Y-16546960D02*
X23270063Y-16537436D01*
X23270063Y-16537436D02*
X23260539Y-16518388D01*
X23260539Y-16518388D02*
X23260539Y-16461246D01*
X23260539Y-16461246D02*
X23270063Y-16442198D01*
X23270063Y-16442198D02*
X23279587Y-16432674D01*
X23279587Y-16432674D02*
X23298634Y-16423150D01*
X23298634Y-16423150D02*
X23327206Y-16423150D01*
X23327206Y-16423150D02*
X23346253Y-16432674D01*
X23346253Y-16432674D02*
X23355777Y-16442198D01*
X23355777Y-16442198D02*
X23365301Y-16461246D01*
X23365301Y-16461246D02*
X23365301Y-16518388D01*
X23365301Y-16518388D02*
X23355777Y-16537436D01*
X23355777Y-16537436D02*
X23346253Y-16546960D01*
X23346253Y-16546960D02*
X23327206Y-16556484D01*
X23327206Y-16556484D02*
X23298634Y-16556484D01*
X23479587Y-16556484D02*
X23460539Y-16546960D01*
X23460539Y-16546960D02*
X23451015Y-16527912D01*
X23451015Y-16527912D02*
X23451015Y-16356484D01*
X23631968Y-16546960D02*
X23612920Y-16556484D01*
X23612920Y-16556484D02*
X23574825Y-16556484D01*
X23574825Y-16556484D02*
X23555777Y-16546960D01*
X23555777Y-16546960D02*
X23546253Y-16527912D01*
X23546253Y-16527912D02*
X23546253Y-16451722D01*
X23546253Y-16451722D02*
X23555777Y-16432674D01*
X23555777Y-16432674D02*
X23574825Y-16423150D01*
X23574825Y-16423150D02*
X23612920Y-16423150D01*
X23612920Y-16423150D02*
X23631968Y-16432674D01*
X23631968Y-16432674D02*
X23641491Y-16451722D01*
X23641491Y-16451722D02*
X23641491Y-16470769D01*
X23641491Y-16470769D02*
X23546253Y-16489817D01*
X23708158Y-16632674D02*
X23717682Y-16623150D01*
X23717682Y-16623150D02*
X23736730Y-16594579D01*
X23736730Y-16594579D02*
X23746253Y-16575531D01*
X23746253Y-16575531D02*
X23755777Y-16546960D01*
X23755777Y-16546960D02*
X23765301Y-16499341D01*
X23765301Y-16499341D02*
X23765301Y-16461246D01*
X23765301Y-16461246D02*
X23755777Y-16413627D01*
X23755777Y-16413627D02*
X23746253Y-16385055D01*
X23746253Y-16385055D02*
X23736730Y-16366008D01*
X23736730Y-16366008D02*
X23717682Y-16337436D01*
X23717682Y-16337436D02*
X23708158Y-16327912D01*
X24070063Y-16632674D02*
X24060539Y-16623150D01*
X24060539Y-16623150D02*
X24041491Y-16594579D01*
X24041491Y-16594579D02*
X24031968Y-16575531D01*
X24031968Y-16575531D02*
X24022444Y-16546960D01*
X24022444Y-16546960D02*
X24012920Y-16499341D01*
X24012920Y-16499341D02*
X24012920Y-16461246D01*
X24012920Y-16461246D02*
X24022444Y-16413627D01*
X24022444Y-16413627D02*
X24031968Y-16385055D01*
X24031968Y-16385055D02*
X24041491Y-16366008D01*
X24041491Y-16366008D02*
X24060539Y-16337436D01*
X24060539Y-16337436D02*
X24070063Y-16327912D01*
X24146253Y-16423150D02*
X24146253Y-16556484D01*
X24146253Y-16442198D02*
X24155777Y-16432674D01*
X24155777Y-16432674D02*
X24174825Y-16423150D01*
X24174825Y-16423150D02*
X24203396Y-16423150D01*
X24203396Y-16423150D02*
X24222444Y-16432674D01*
X24222444Y-16432674D02*
X24231968Y-16451722D01*
X24231968Y-16451722D02*
X24231968Y-16556484D01*
X24355777Y-16556484D02*
X24336730Y-16546960D01*
X24336730Y-16546960D02*
X24327206Y-16537436D01*
X24327206Y-16537436D02*
X24317682Y-16518388D01*
X24317682Y-16518388D02*
X24317682Y-16461246D01*
X24317682Y-16461246D02*
X24327206Y-16442198D01*
X24327206Y-16442198D02*
X24336730Y-16432674D01*
X24336730Y-16432674D02*
X24355777Y-16423150D01*
X24355777Y-16423150D02*
X24384349Y-16423150D01*
X24384349Y-16423150D02*
X24403396Y-16432674D01*
X24403396Y-16432674D02*
X24412920Y-16442198D01*
X24412920Y-16442198D02*
X24422444Y-16461246D01*
X24422444Y-16461246D02*
X24422444Y-16518388D01*
X24422444Y-16518388D02*
X24412920Y-16537436D01*
X24412920Y-16537436D02*
X24403396Y-16546960D01*
X24403396Y-16546960D02*
X24384349Y-16556484D01*
X24384349Y-16556484D02*
X24355777Y-16556484D01*
X24479587Y-16423150D02*
X24555777Y-16423150D01*
X24508158Y-16356484D02*
X24508158Y-16527912D01*
X24508158Y-16527912D02*
X24517682Y-16546960D01*
X24517682Y-16546960D02*
X24536730Y-16556484D01*
X24536730Y-16556484D02*
X24555777Y-16556484D01*
X24774825Y-16423150D02*
X24774825Y-16623150D01*
X24774825Y-16432674D02*
X24793872Y-16423150D01*
X24793872Y-16423150D02*
X24831968Y-16423150D01*
X24831968Y-16423150D02*
X24851015Y-16432674D01*
X24851015Y-16432674D02*
X24860539Y-16442198D01*
X24860539Y-16442198D02*
X24870063Y-16461246D01*
X24870063Y-16461246D02*
X24870063Y-16518388D01*
X24870063Y-16518388D02*
X24860539Y-16537436D01*
X24860539Y-16537436D02*
X24851015Y-16546960D01*
X24851015Y-16546960D02*
X24831968Y-16556484D01*
X24831968Y-16556484D02*
X24793872Y-16556484D01*
X24793872Y-16556484D02*
X24774825Y-16546960D01*
X24984349Y-16556484D02*
X24965301Y-16546960D01*
X24965301Y-16546960D02*
X24955777Y-16527912D01*
X24955777Y-16527912D02*
X24955777Y-16356484D01*
X25146253Y-16556484D02*
X25146253Y-16451722D01*
X25146253Y-16451722D02*
X25136730Y-16432674D01*
X25136730Y-16432674D02*
X25117682Y-16423150D01*
X25117682Y-16423150D02*
X25079587Y-16423150D01*
X25079587Y-16423150D02*
X25060539Y-16432674D01*
X25146253Y-16546960D02*
X25127206Y-16556484D01*
X25127206Y-16556484D02*
X25079587Y-16556484D01*
X25079587Y-16556484D02*
X25060539Y-16546960D01*
X25060539Y-16546960D02*
X25051015Y-16527912D01*
X25051015Y-16527912D02*
X25051015Y-16508865D01*
X25051015Y-16508865D02*
X25060539Y-16489817D01*
X25060539Y-16489817D02*
X25079587Y-16480293D01*
X25079587Y-16480293D02*
X25127206Y-16480293D01*
X25127206Y-16480293D02*
X25146253Y-16470769D01*
X25212920Y-16423150D02*
X25289111Y-16423150D01*
X25241492Y-16356484D02*
X25241492Y-16527912D01*
X25241492Y-16527912D02*
X25251015Y-16546960D01*
X25251015Y-16546960D02*
X25270063Y-16556484D01*
X25270063Y-16556484D02*
X25289111Y-16556484D01*
X25431968Y-16546960D02*
X25412920Y-16556484D01*
X25412920Y-16556484D02*
X25374825Y-16556484D01*
X25374825Y-16556484D02*
X25355777Y-16546960D01*
X25355777Y-16546960D02*
X25346253Y-16527912D01*
X25346253Y-16527912D02*
X25346253Y-16451722D01*
X25346253Y-16451722D02*
X25355777Y-16432674D01*
X25355777Y-16432674D02*
X25374825Y-16423150D01*
X25374825Y-16423150D02*
X25412920Y-16423150D01*
X25412920Y-16423150D02*
X25431968Y-16432674D01*
X25431968Y-16432674D02*
X25441492Y-16451722D01*
X25441492Y-16451722D02*
X25441492Y-16470769D01*
X25441492Y-16470769D02*
X25346253Y-16489817D01*
X25612920Y-16556484D02*
X25612920Y-16356484D01*
X25612920Y-16546960D02*
X25593873Y-16556484D01*
X25593873Y-16556484D02*
X25555777Y-16556484D01*
X25555777Y-16556484D02*
X25536730Y-16546960D01*
X25536730Y-16546960D02*
X25527206Y-16537436D01*
X25527206Y-16537436D02*
X25517682Y-16518388D01*
X25517682Y-16518388D02*
X25517682Y-16461246D01*
X25517682Y-16461246D02*
X25527206Y-16442198D01*
X25527206Y-16442198D02*
X25536730Y-16432674D01*
X25536730Y-16432674D02*
X25555777Y-16423150D01*
X25555777Y-16423150D02*
X25593873Y-16423150D01*
X25593873Y-16423150D02*
X25612920Y-16432674D01*
X25689111Y-16632674D02*
X25698634Y-16623150D01*
X25698634Y-16623150D02*
X25717682Y-16594579D01*
X25717682Y-16594579D02*
X25727206Y-16575531D01*
X25727206Y-16575531D02*
X25736730Y-16546960D01*
X25736730Y-16546960D02*
X25746253Y-16499341D01*
X25746253Y-16499341D02*
X25746253Y-16461246D01*
X25746253Y-16461246D02*
X25736730Y-16413627D01*
X25736730Y-16413627D02*
X25727206Y-16385055D01*
X25727206Y-16385055D02*
X25717682Y-16366008D01*
X25717682Y-16366008D02*
X25698634Y-16337436D01*
X25698634Y-16337436D02*
X25689111Y-16327912D01*
M02*
