%TF.GenerationSoftware,KiCad,Pcbnew,7.0.6-7.0.6~ubuntu22.04.1*%
%TF.CreationDate,2023-08-02T12:12:09+12:00*%
%TF.ProjectId,TWIST_SWTICH_SPACER_PLATE,54574953-545f-4535-9754-4943485f5350,v1.1*%
%TF.SameCoordinates,Original*%
%TF.FileFunction,Legend,Bot*%
%TF.FilePolarity,Positive*%
%FSLAX46Y46*%
G04 Gerber Fmt 4.6, Leading zero omitted, Abs format (unit mm)*
G04 Created by KiCad (PCBNEW 7.0.6-7.0.6~ubuntu22.04.1) date 2023-08-02 12:12:09*
%MOMM*%
%LPD*%
G01*
G04 APERTURE LIST*
%ADD10C,0.200000*%
G04 APERTURE END LIST*
D10*
X205214285Y-154154600D02*
X205071428Y-154202219D01*
X205071428Y-154202219D02*
X204833333Y-154202219D01*
X204833333Y-154202219D02*
X204738095Y-154154600D01*
X204738095Y-154154600D02*
X204690476Y-154106980D01*
X204690476Y-154106980D02*
X204642857Y-154011742D01*
X204642857Y-154011742D02*
X204642857Y-153916504D01*
X204642857Y-153916504D02*
X204690476Y-153821266D01*
X204690476Y-153821266D02*
X204738095Y-153773647D01*
X204738095Y-153773647D02*
X204833333Y-153726028D01*
X204833333Y-153726028D02*
X205023809Y-153678409D01*
X205023809Y-153678409D02*
X205119047Y-153630790D01*
X205119047Y-153630790D02*
X205166666Y-153583171D01*
X205166666Y-153583171D02*
X205214285Y-153487933D01*
X205214285Y-153487933D02*
X205214285Y-153392695D01*
X205214285Y-153392695D02*
X205166666Y-153297457D01*
X205166666Y-153297457D02*
X205119047Y-153249838D01*
X205119047Y-153249838D02*
X205023809Y-153202219D01*
X205023809Y-153202219D02*
X204785714Y-153202219D01*
X204785714Y-153202219D02*
X204642857Y-153249838D01*
X204214285Y-154202219D02*
X204214285Y-153202219D01*
X204214285Y-153202219D02*
X203833333Y-153202219D01*
X203833333Y-153202219D02*
X203738095Y-153249838D01*
X203738095Y-153249838D02*
X203690476Y-153297457D01*
X203690476Y-153297457D02*
X203642857Y-153392695D01*
X203642857Y-153392695D02*
X203642857Y-153535552D01*
X203642857Y-153535552D02*
X203690476Y-153630790D01*
X203690476Y-153630790D02*
X203738095Y-153678409D01*
X203738095Y-153678409D02*
X203833333Y-153726028D01*
X203833333Y-153726028D02*
X204214285Y-153726028D01*
X203261904Y-153916504D02*
X202785714Y-153916504D01*
X203357142Y-154202219D02*
X203023809Y-153202219D01*
X203023809Y-153202219D02*
X202690476Y-154202219D01*
X201785714Y-154106980D02*
X201833333Y-154154600D01*
X201833333Y-154154600D02*
X201976190Y-154202219D01*
X201976190Y-154202219D02*
X202071428Y-154202219D01*
X202071428Y-154202219D02*
X202214285Y-154154600D01*
X202214285Y-154154600D02*
X202309523Y-154059361D01*
X202309523Y-154059361D02*
X202357142Y-153964123D01*
X202357142Y-153964123D02*
X202404761Y-153773647D01*
X202404761Y-153773647D02*
X202404761Y-153630790D01*
X202404761Y-153630790D02*
X202357142Y-153440314D01*
X202357142Y-153440314D02*
X202309523Y-153345076D01*
X202309523Y-153345076D02*
X202214285Y-153249838D01*
X202214285Y-153249838D02*
X202071428Y-153202219D01*
X202071428Y-153202219D02*
X201976190Y-153202219D01*
X201976190Y-153202219D02*
X201833333Y-153249838D01*
X201833333Y-153249838D02*
X201785714Y-153297457D01*
X201357142Y-153678409D02*
X201023809Y-153678409D01*
X200880952Y-154202219D02*
X201357142Y-154202219D01*
X201357142Y-154202219D02*
X201357142Y-153202219D01*
X201357142Y-153202219D02*
X200880952Y-153202219D01*
X199880952Y-154202219D02*
X200214285Y-153726028D01*
X200452380Y-154202219D02*
X200452380Y-153202219D01*
X200452380Y-153202219D02*
X200071428Y-153202219D01*
X200071428Y-153202219D02*
X199976190Y-153249838D01*
X199976190Y-153249838D02*
X199928571Y-153297457D01*
X199928571Y-153297457D02*
X199880952Y-153392695D01*
X199880952Y-153392695D02*
X199880952Y-153535552D01*
X199880952Y-153535552D02*
X199928571Y-153630790D01*
X199928571Y-153630790D02*
X199976190Y-153678409D01*
X199976190Y-153678409D02*
X200071428Y-153726028D01*
X200071428Y-153726028D02*
X200452380Y-153726028D01*
X198690475Y-154202219D02*
X198690475Y-153202219D01*
X198690475Y-153202219D02*
X198309523Y-153202219D01*
X198309523Y-153202219D02*
X198214285Y-153249838D01*
X198214285Y-153249838D02*
X198166666Y-153297457D01*
X198166666Y-153297457D02*
X198119047Y-153392695D01*
X198119047Y-153392695D02*
X198119047Y-153535552D01*
X198119047Y-153535552D02*
X198166666Y-153630790D01*
X198166666Y-153630790D02*
X198214285Y-153678409D01*
X198214285Y-153678409D02*
X198309523Y-153726028D01*
X198309523Y-153726028D02*
X198690475Y-153726028D01*
X197214285Y-154202219D02*
X197690475Y-154202219D01*
X197690475Y-154202219D02*
X197690475Y-153202219D01*
X196928570Y-153916504D02*
X196452380Y-153916504D01*
X197023808Y-154202219D02*
X196690475Y-153202219D01*
X196690475Y-153202219D02*
X196357142Y-154202219D01*
X196166665Y-153202219D02*
X195595237Y-153202219D01*
X195880951Y-154202219D02*
X195880951Y-153202219D01*
X195261903Y-153678409D02*
X194928570Y-153678409D01*
X194785713Y-154202219D02*
X195261903Y-154202219D01*
X195261903Y-154202219D02*
X195261903Y-153202219D01*
X195261903Y-153202219D02*
X194785713Y-153202219D01*
M02*
