%TF.GenerationSoftware,KiCad,Pcbnew,7.0.6-7.0.6~ubuntu22.04.1*%
%TF.CreationDate,2023-08-02T12:12:09+12:00*%
%TF.ProjectId,TWIST_SWTICH_SPACER_PLATE,54574953-545f-4535-9754-4943485f5350,v1.1*%
%TF.SameCoordinates,Original*%
%TF.FileFunction,Legend,Top*%
%TF.FilePolarity,Positive*%
%FSLAX46Y46*%
G04 Gerber Fmt 4.6, Leading zero omitted, Abs format (unit mm)*
G04 Created by KiCad (PCBNEW 7.0.6-7.0.6~ubuntu22.04.1) date 2023-08-02 12:12:09*
%MOMM*%
%LPD*%
G01*
G04 APERTURE LIST*
%ADD10C,0.200000*%
G04 APERTURE END LIST*
D10*
X193023810Y-153202219D02*
X193595238Y-153202219D01*
X193309524Y-154202219D02*
X193309524Y-153202219D01*
X193833334Y-153202219D02*
X194071429Y-154202219D01*
X194071429Y-154202219D02*
X194261905Y-153487933D01*
X194261905Y-153487933D02*
X194452381Y-154202219D01*
X194452381Y-154202219D02*
X194690477Y-153202219D01*
X195071429Y-154202219D02*
X195071429Y-153202219D01*
X195500000Y-154154600D02*
X195642857Y-154202219D01*
X195642857Y-154202219D02*
X195880952Y-154202219D01*
X195880952Y-154202219D02*
X195976190Y-154154600D01*
X195976190Y-154154600D02*
X196023809Y-154106980D01*
X196023809Y-154106980D02*
X196071428Y-154011742D01*
X196071428Y-154011742D02*
X196071428Y-153916504D01*
X196071428Y-153916504D02*
X196023809Y-153821266D01*
X196023809Y-153821266D02*
X195976190Y-153773647D01*
X195976190Y-153773647D02*
X195880952Y-153726028D01*
X195880952Y-153726028D02*
X195690476Y-153678409D01*
X195690476Y-153678409D02*
X195595238Y-153630790D01*
X195595238Y-153630790D02*
X195547619Y-153583171D01*
X195547619Y-153583171D02*
X195500000Y-153487933D01*
X195500000Y-153487933D02*
X195500000Y-153392695D01*
X195500000Y-153392695D02*
X195547619Y-153297457D01*
X195547619Y-153297457D02*
X195595238Y-153249838D01*
X195595238Y-153249838D02*
X195690476Y-153202219D01*
X195690476Y-153202219D02*
X195928571Y-153202219D01*
X195928571Y-153202219D02*
X196071428Y-153249838D01*
X196357143Y-153202219D02*
X196928571Y-153202219D01*
X196642857Y-154202219D02*
X196642857Y-153202219D01*
X197976191Y-154154600D02*
X198119048Y-154202219D01*
X198119048Y-154202219D02*
X198357143Y-154202219D01*
X198357143Y-154202219D02*
X198452381Y-154154600D01*
X198452381Y-154154600D02*
X198500000Y-154106980D01*
X198500000Y-154106980D02*
X198547619Y-154011742D01*
X198547619Y-154011742D02*
X198547619Y-153916504D01*
X198547619Y-153916504D02*
X198500000Y-153821266D01*
X198500000Y-153821266D02*
X198452381Y-153773647D01*
X198452381Y-153773647D02*
X198357143Y-153726028D01*
X198357143Y-153726028D02*
X198166667Y-153678409D01*
X198166667Y-153678409D02*
X198071429Y-153630790D01*
X198071429Y-153630790D02*
X198023810Y-153583171D01*
X198023810Y-153583171D02*
X197976191Y-153487933D01*
X197976191Y-153487933D02*
X197976191Y-153392695D01*
X197976191Y-153392695D02*
X198023810Y-153297457D01*
X198023810Y-153297457D02*
X198071429Y-153249838D01*
X198071429Y-153249838D02*
X198166667Y-153202219D01*
X198166667Y-153202219D02*
X198404762Y-153202219D01*
X198404762Y-153202219D02*
X198547619Y-153249838D01*
X198880953Y-153202219D02*
X199119048Y-154202219D01*
X199119048Y-154202219D02*
X199309524Y-153487933D01*
X199309524Y-153487933D02*
X199500000Y-154202219D01*
X199500000Y-154202219D02*
X199738096Y-153202219D01*
X200119048Y-154202219D02*
X200119048Y-153202219D01*
X200452381Y-153202219D02*
X201023809Y-153202219D01*
X200738095Y-154202219D02*
X200738095Y-153202219D01*
X201928571Y-154106980D02*
X201880952Y-154154600D01*
X201880952Y-154154600D02*
X201738095Y-154202219D01*
X201738095Y-154202219D02*
X201642857Y-154202219D01*
X201642857Y-154202219D02*
X201500000Y-154154600D01*
X201500000Y-154154600D02*
X201404762Y-154059361D01*
X201404762Y-154059361D02*
X201357143Y-153964123D01*
X201357143Y-153964123D02*
X201309524Y-153773647D01*
X201309524Y-153773647D02*
X201309524Y-153630790D01*
X201309524Y-153630790D02*
X201357143Y-153440314D01*
X201357143Y-153440314D02*
X201404762Y-153345076D01*
X201404762Y-153345076D02*
X201500000Y-153249838D01*
X201500000Y-153249838D02*
X201642857Y-153202219D01*
X201642857Y-153202219D02*
X201738095Y-153202219D01*
X201738095Y-153202219D02*
X201880952Y-153249838D01*
X201880952Y-153249838D02*
X201928571Y-153297457D01*
X202357143Y-154202219D02*
X202357143Y-153202219D01*
X202357143Y-153678409D02*
X202928571Y-153678409D01*
X202928571Y-154202219D02*
X202928571Y-153202219D01*
X204071429Y-153535552D02*
X204309524Y-154202219D01*
X204309524Y-154202219D02*
X204547619Y-153535552D01*
X205452381Y-154202219D02*
X204880953Y-154202219D01*
X205166667Y-154202219D02*
X205166667Y-153202219D01*
X205166667Y-153202219D02*
X205071429Y-153345076D01*
X205071429Y-153345076D02*
X204976191Y-153440314D01*
X204976191Y-153440314D02*
X204880953Y-153487933D01*
X205880953Y-154106980D02*
X205928572Y-154154600D01*
X205928572Y-154154600D02*
X205880953Y-154202219D01*
X205880953Y-154202219D02*
X205833334Y-154154600D01*
X205833334Y-154154600D02*
X205880953Y-154106980D01*
X205880953Y-154106980D02*
X205880953Y-154202219D01*
X206880952Y-154202219D02*
X206309524Y-154202219D01*
X206595238Y-154202219D02*
X206595238Y-153202219D01*
X206595238Y-153202219D02*
X206500000Y-153345076D01*
X206500000Y-153345076D02*
X206404762Y-153440314D01*
X206404762Y-153440314D02*
X206309524Y-153487933D01*
%TO.C,G\u002A\u002A\u002A*%
G36*
X203239801Y-145401298D02*
G01*
X203263624Y-145409630D01*
X203265135Y-145410491D01*
X203281186Y-145422951D01*
X203294048Y-145438310D01*
X203295429Y-145440616D01*
X203305796Y-145459062D01*
X203305796Y-146845978D01*
X203294022Y-146866070D01*
X203277620Y-146885476D01*
X203256055Y-146898494D01*
X203231443Y-146904456D01*
X203205903Y-146902696D01*
X203192133Y-146898154D01*
X203174485Y-146886213D01*
X203159306Y-146868213D01*
X203149213Y-146847354D01*
X203148439Y-146844706D01*
X203147690Y-146837521D01*
X203147022Y-146821795D01*
X203146436Y-146797465D01*
X203145932Y-146764467D01*
X203145508Y-146722738D01*
X203145165Y-146672215D01*
X203144902Y-146612834D01*
X203144719Y-146544533D01*
X203144616Y-146467246D01*
X203144592Y-146380913D01*
X203144647Y-146285468D01*
X203144780Y-146180849D01*
X203144845Y-146142319D01*
X203145016Y-146049072D01*
X203145184Y-145964639D01*
X203145355Y-145888571D01*
X203145535Y-145820423D01*
X203145731Y-145759747D01*
X203145947Y-145706096D01*
X203146191Y-145659023D01*
X203146468Y-145618082D01*
X203146784Y-145582825D01*
X203147144Y-145552806D01*
X203147556Y-145527577D01*
X203148024Y-145506691D01*
X203148556Y-145489703D01*
X203149155Y-145476164D01*
X203149830Y-145465627D01*
X203150585Y-145457647D01*
X203151427Y-145451775D01*
X203152362Y-145447566D01*
X203153395Y-145444571D01*
X203154160Y-145442994D01*
X203170140Y-145422482D01*
X203191067Y-145408307D01*
X203214951Y-145401051D01*
X203239801Y-145401298D01*
G37*
G36*
X195874488Y-146321502D02*
G01*
X195932786Y-146321535D01*
X195983091Y-146321608D01*
X196026037Y-146321736D01*
X196062257Y-146321932D01*
X196092385Y-146322212D01*
X196117055Y-146322589D01*
X196136900Y-146323079D01*
X196152555Y-146323695D01*
X196164651Y-146324453D01*
X196173824Y-146325366D01*
X196180707Y-146326449D01*
X196185933Y-146327717D01*
X196190136Y-146329184D01*
X196192703Y-146330289D01*
X196211841Y-146343493D01*
X196227504Y-146362793D01*
X196237376Y-146385093D01*
X196238862Y-146391905D01*
X196238256Y-146414816D01*
X196230298Y-146437807D01*
X196216481Y-146458219D01*
X196198300Y-146473392D01*
X196191059Y-146477024D01*
X196183490Y-146478253D01*
X196167539Y-146479360D01*
X196144074Y-146480343D01*
X196113961Y-146481204D01*
X196078066Y-146481942D01*
X196037258Y-146482558D01*
X195992401Y-146483052D01*
X195944363Y-146483424D01*
X195894010Y-146483675D01*
X195842209Y-146483804D01*
X195789826Y-146483812D01*
X195737729Y-146483699D01*
X195686784Y-146483466D01*
X195637856Y-146483112D01*
X195591814Y-146482637D01*
X195549524Y-146482043D01*
X195511852Y-146481329D01*
X195479665Y-146480495D01*
X195453829Y-146479542D01*
X195435212Y-146478470D01*
X195424679Y-146477278D01*
X195423048Y-146476827D01*
X195404080Y-146463983D01*
X195388839Y-146444984D01*
X195378833Y-146422567D01*
X195375568Y-146399468D01*
X195376267Y-146391905D01*
X195383951Y-146369307D01*
X195398120Y-146348783D01*
X195416459Y-146333425D01*
X195422426Y-146330289D01*
X195426297Y-146328680D01*
X195430766Y-146327280D01*
X195436465Y-146326074D01*
X195444029Y-146325048D01*
X195454090Y-146324188D01*
X195467283Y-146323478D01*
X195484242Y-146322905D01*
X195505599Y-146322454D01*
X195531989Y-146322110D01*
X195564044Y-146321859D01*
X195602399Y-146321687D01*
X195647688Y-146321579D01*
X195700543Y-146321520D01*
X195761599Y-146321497D01*
X195807565Y-146321494D01*
X195874488Y-146321502D01*
G37*
G36*
X204069173Y-145907267D02*
G01*
X204121985Y-145918172D01*
X204179315Y-145937533D01*
X204234691Y-145965151D01*
X204287084Y-146000068D01*
X204335462Y-146041326D01*
X204378798Y-146087968D01*
X204416061Y-146139037D01*
X204446222Y-146193575D01*
X204463374Y-146235636D01*
X204479596Y-146295492D01*
X204488434Y-146358856D01*
X204489874Y-146423636D01*
X204483907Y-146487738D01*
X204470521Y-146549070D01*
X204465188Y-146566222D01*
X204440817Y-146624901D01*
X204408438Y-146680165D01*
X204368932Y-146731200D01*
X204323177Y-146777189D01*
X204272054Y-146817317D01*
X204216443Y-146850768D01*
X204157224Y-146876726D01*
X204116591Y-146889358D01*
X204083276Y-146896055D01*
X204044223Y-146900700D01*
X204002473Y-146903177D01*
X203961066Y-146903375D01*
X203923045Y-146901178D01*
X203896836Y-146897569D01*
X203830739Y-146880550D01*
X203768753Y-146855235D01*
X203710903Y-146821637D01*
X203657208Y-146779769D01*
X203620784Y-146744134D01*
X203577433Y-146691781D01*
X203542829Y-146636730D01*
X203516744Y-146578434D01*
X203498947Y-146516347D01*
X203489209Y-146449922D01*
X203487751Y-146427511D01*
X203488379Y-146383984D01*
X203649723Y-146383984D01*
X203650519Y-146439445D01*
X203659416Y-146491059D01*
X203676707Y-146539960D01*
X203702430Y-146586883D01*
X203737041Y-146632246D01*
X203777393Y-146670407D01*
X203823121Y-146701111D01*
X203873860Y-146724101D01*
X203914637Y-146736047D01*
X203942887Y-146740250D01*
X203976783Y-146741698D01*
X204013179Y-146740547D01*
X204048931Y-146736953D01*
X204080893Y-146731072D01*
X204095206Y-146727087D01*
X204144069Y-146706956D01*
X204188107Y-146679527D01*
X204222658Y-146650018D01*
X204260891Y-146607026D01*
X204290677Y-146560367D01*
X204311901Y-146510326D01*
X204324452Y-146457191D01*
X204328216Y-146401248D01*
X204327610Y-146383879D01*
X204321509Y-146332276D01*
X204309065Y-146285929D01*
X204289558Y-146243260D01*
X204262271Y-146202688D01*
X204227321Y-146163477D01*
X204206555Y-146143177D01*
X204189474Y-146128117D01*
X204173733Y-146116509D01*
X204156987Y-146106565D01*
X204143821Y-146099838D01*
X204110410Y-146084790D01*
X204080243Y-146074514D01*
X204050006Y-146068258D01*
X204016386Y-146065275D01*
X203988717Y-146064731D01*
X203950695Y-146065851D01*
X203918404Y-146069712D01*
X203888530Y-146077063D01*
X203857759Y-146088654D01*
X203833613Y-146099838D01*
X203814842Y-146109671D01*
X203798673Y-146119952D01*
X203782759Y-146132469D01*
X203764755Y-146149009D01*
X203750112Y-146163477D01*
X203714341Y-146203739D01*
X203687096Y-146244583D01*
X203667688Y-146287519D01*
X203655429Y-146334058D01*
X203649723Y-146383984D01*
X203488379Y-146383984D01*
X203488758Y-146357751D01*
X203498403Y-146291310D01*
X203516655Y-146228262D01*
X203543486Y-146168682D01*
X203578866Y-146112645D01*
X203622766Y-146060227D01*
X203637235Y-146045568D01*
X203689540Y-146000657D01*
X203745968Y-145963871D01*
X203805925Y-145935365D01*
X203868818Y-145915296D01*
X203934053Y-145903819D01*
X204001036Y-145901090D01*
X204069173Y-145907267D01*
G37*
G36*
X193638374Y-145908665D02*
G01*
X193704789Y-145924816D01*
X193727809Y-145932573D01*
X193759091Y-145945642D01*
X193791438Y-145962250D01*
X193823345Y-145981337D01*
X193853303Y-146001838D01*
X193879806Y-146022692D01*
X193901345Y-146042835D01*
X193916415Y-146061205D01*
X193920650Y-146068538D01*
X193928544Y-146093917D01*
X193928397Y-146118558D01*
X193921219Y-146141141D01*
X193908021Y-146160348D01*
X193889811Y-146174859D01*
X193867602Y-146183355D01*
X193842403Y-146184517D01*
X193833032Y-146182940D01*
X193823649Y-146180636D01*
X193815769Y-146177798D01*
X193807669Y-146173323D01*
X193797624Y-146166104D01*
X193783909Y-146155036D01*
X193765767Y-146139830D01*
X193726509Y-146111687D01*
X193682596Y-146088750D01*
X193638425Y-146073114D01*
X193612656Y-146068293D01*
X193581105Y-146065489D01*
X193546944Y-146064712D01*
X193513342Y-146065970D01*
X193483472Y-146069272D01*
X193467116Y-146072634D01*
X193415622Y-146090924D01*
X193367794Y-146117268D01*
X193324612Y-146150860D01*
X193287055Y-146190893D01*
X193256103Y-146236560D01*
X193246799Y-146254156D01*
X193229710Y-146294119D01*
X193218893Y-146332983D01*
X193213743Y-146373798D01*
X193213655Y-146419613D01*
X193213712Y-146420835D01*
X193219607Y-146474192D01*
X193232350Y-146522244D01*
X193252565Y-146566403D01*
X193280879Y-146608081D01*
X193312012Y-146642846D01*
X193352374Y-146678659D01*
X193394200Y-146705836D01*
X193438854Y-146724977D01*
X193487699Y-146736680D01*
X193536566Y-146741355D01*
X193572563Y-146741779D01*
X193602450Y-146739783D01*
X193624535Y-146736198D01*
X193659877Y-146725802D01*
X193697512Y-146709546D01*
X193734271Y-146689048D01*
X193766987Y-146665925D01*
X193774513Y-146659618D01*
X193796845Y-146641589D01*
X193815819Y-146630048D01*
X193833624Y-146624072D01*
X193852451Y-146622736D01*
X193860612Y-146623280D01*
X193886027Y-146629919D01*
X193906474Y-146644097D01*
X193921010Y-146665154D01*
X193921291Y-146665765D01*
X193928642Y-146688129D01*
X193929517Y-146709578D01*
X193923524Y-146730752D01*
X193910277Y-146752290D01*
X193889384Y-146774831D01*
X193860459Y-146799014D01*
X193824773Y-146824368D01*
X193773116Y-146854223D01*
X193716850Y-146878183D01*
X193673150Y-146891490D01*
X193646662Y-146896467D01*
X193613770Y-146900121D01*
X193577250Y-146902366D01*
X193539874Y-146903117D01*
X193504416Y-146902287D01*
X193473650Y-146899792D01*
X193461659Y-146898029D01*
X193397738Y-146882086D01*
X193336635Y-146857461D01*
X193278876Y-146824445D01*
X193224990Y-146783329D01*
X193186418Y-146746280D01*
X193142550Y-146693959D01*
X193107409Y-146638872D01*
X193080865Y-146580670D01*
X193062791Y-146519007D01*
X193053060Y-146453536D01*
X193051544Y-146383910D01*
X193051710Y-146379614D01*
X193057627Y-146316173D01*
X193070096Y-146258129D01*
X193089607Y-146203880D01*
X193116648Y-146151823D01*
X193125683Y-146137349D01*
X193167061Y-146081421D01*
X193213897Y-146032592D01*
X193265523Y-145991089D01*
X193321268Y-145957140D01*
X193380463Y-145930972D01*
X193442441Y-145912813D01*
X193506531Y-145902891D01*
X193572065Y-145901432D01*
X193638374Y-145908665D01*
G37*
G36*
X196568786Y-145505989D02*
G01*
X196590884Y-145518238D01*
X196607832Y-145537995D01*
X196610850Y-145543429D01*
X196613273Y-145548606D01*
X196615234Y-145554323D01*
X196616781Y-145561565D01*
X196617963Y-145571316D01*
X196618829Y-145584560D01*
X196619428Y-145602279D01*
X196619808Y-145625460D01*
X196620018Y-145655084D01*
X196620107Y-145692137D01*
X196620124Y-145730785D01*
X196620124Y-145899963D01*
X196737031Y-145900065D01*
X196777002Y-145900227D01*
X196808891Y-145900770D01*
X196833875Y-145901897D01*
X196853131Y-145903811D01*
X196867833Y-145906712D01*
X196879160Y-145910805D01*
X196888288Y-145916292D01*
X196896392Y-145923374D01*
X196901086Y-145928290D01*
X196914683Y-145949421D01*
X196920602Y-145973194D01*
X196919177Y-145997613D01*
X196910743Y-146020680D01*
X196895635Y-146040398D01*
X196880383Y-146051645D01*
X196874444Y-146054785D01*
X196868357Y-146057218D01*
X196860911Y-146059034D01*
X196850894Y-146060322D01*
X196837091Y-146061174D01*
X196818290Y-146061678D01*
X196793279Y-146061925D01*
X196760845Y-146062006D01*
X196740864Y-146062012D01*
X196619792Y-146062012D01*
X196621115Y-146350228D01*
X196622439Y-146638443D01*
X196635357Y-146664749D01*
X196653716Y-146693320D01*
X196678473Y-146716366D01*
X196700120Y-146729823D01*
X196711922Y-146735165D01*
X196724545Y-146738355D01*
X196740881Y-146739886D01*
X196761338Y-146740252D01*
X196785017Y-146739623D01*
X196803394Y-146736999D01*
X196819414Y-146731305D01*
X196836022Y-146721465D01*
X196856165Y-146706404D01*
X196857985Y-146704967D01*
X196884836Y-146688228D01*
X196911401Y-146680673D01*
X196937524Y-146682314D01*
X196963049Y-146693168D01*
X196965714Y-146694859D01*
X196982075Y-146710773D01*
X196992976Y-146732167D01*
X196997537Y-146756476D01*
X196995066Y-146780427D01*
X196986182Y-146799187D01*
X196969855Y-146819248D01*
X196947570Y-146839466D01*
X196920814Y-146858695D01*
X196891072Y-146875787D01*
X196859830Y-146889598D01*
X196848288Y-146893615D01*
X196829561Y-146897752D01*
X196804468Y-146900733D01*
X196775839Y-146902479D01*
X196746504Y-146902912D01*
X196719293Y-146901955D01*
X196697037Y-146899530D01*
X196689573Y-146897985D01*
X196642269Y-146881415D01*
X196598414Y-146857260D01*
X196558966Y-146826527D01*
X196524882Y-146790222D01*
X196497117Y-146749354D01*
X196476630Y-146704928D01*
X196464996Y-146661588D01*
X196463946Y-146654355D01*
X196463007Y-146644758D01*
X196462175Y-146632297D01*
X196461442Y-146616469D01*
X196460802Y-146596772D01*
X196460250Y-146572707D01*
X196459780Y-146543770D01*
X196459385Y-146509461D01*
X196459060Y-146469277D01*
X196458798Y-146422718D01*
X196458594Y-146369282D01*
X196458441Y-146308467D01*
X196458334Y-146239771D01*
X196458265Y-146162694D01*
X196458237Y-146099022D01*
X196458251Y-146013310D01*
X196458346Y-145934086D01*
X196458521Y-145861623D01*
X196458773Y-145796195D01*
X196459100Y-145738075D01*
X196459499Y-145687536D01*
X196459969Y-145644851D01*
X196460507Y-145610295D01*
X196461110Y-145584140D01*
X196461778Y-145566660D01*
X196462507Y-145558128D01*
X196462614Y-145557664D01*
X196471601Y-145539405D01*
X196486548Y-145521964D01*
X196504517Y-145508735D01*
X196505302Y-145508318D01*
X196517282Y-145504501D01*
X196533666Y-145502148D01*
X196542425Y-145501786D01*
X196568786Y-145505989D01*
G37*
G36*
X198878311Y-145903566D02*
G01*
X198941080Y-145913060D01*
X199001834Y-145930070D01*
X199059566Y-145954428D01*
X199113267Y-145985968D01*
X199161929Y-146024524D01*
X199172010Y-146034081D01*
X199189293Y-146052127D01*
X199200431Y-146066757D01*
X199206829Y-146079917D01*
X199208089Y-146084073D01*
X199211012Y-146111017D01*
X199205831Y-146135564D01*
X199193548Y-146156391D01*
X199175166Y-146172179D01*
X199151689Y-146181606D01*
X199132410Y-146183714D01*
X199118066Y-146183115D01*
X199105922Y-146180643D01*
X199093928Y-146175288D01*
X199080037Y-146166036D01*
X199062203Y-146151878D01*
X199053856Y-146144908D01*
X199006765Y-146111264D01*
X198955007Y-146085615D01*
X198925848Y-146075319D01*
X198897215Y-146069004D01*
X198862882Y-146065308D01*
X198826041Y-146064270D01*
X198789886Y-146065927D01*
X198757608Y-146070318D01*
X198745279Y-146073174D01*
X198694829Y-146091574D01*
X198647628Y-146118033D01*
X198604834Y-146151587D01*
X198567604Y-146191276D01*
X198537095Y-146236136D01*
X198527594Y-146254156D01*
X198512792Y-146288390D01*
X198502950Y-146321386D01*
X198497374Y-146356350D01*
X198495365Y-146396490D01*
X198495329Y-146402732D01*
X198498648Y-146457535D01*
X198509102Y-146507132D01*
X198527201Y-146552762D01*
X198553457Y-146595667D01*
X198588382Y-146637086D01*
X198594619Y-146643468D01*
X198614687Y-146663042D01*
X198631397Y-146677583D01*
X198647428Y-146689078D01*
X198665462Y-146699516D01*
X198680459Y-146707134D01*
X198732513Y-146727807D01*
X198786031Y-146739785D01*
X198840030Y-146743142D01*
X198893528Y-146737953D01*
X198945543Y-146724291D01*
X198995094Y-146702232D01*
X199029310Y-146680750D01*
X199044654Y-146669291D01*
X199058067Y-146658420D01*
X199066770Y-146650394D01*
X199067062Y-146650075D01*
X199087105Y-146634296D01*
X199111553Y-146625038D01*
X199137802Y-146622770D01*
X199163247Y-146627960D01*
X199170954Y-146631354D01*
X199190144Y-146645975D01*
X199203414Y-146666018D01*
X199210271Y-146689400D01*
X199210222Y-146714041D01*
X199202775Y-146737859D01*
X199198100Y-146745964D01*
X199181801Y-146765551D01*
X199158343Y-146786830D01*
X199129395Y-146808707D01*
X199096629Y-146830087D01*
X199061714Y-146849877D01*
X199026322Y-146866982D01*
X198993812Y-146879738D01*
X198947408Y-146892269D01*
X198895800Y-146900547D01*
X198842122Y-146904346D01*
X198789508Y-146903441D01*
X198742196Y-146897811D01*
X198687019Y-146884279D01*
X198632617Y-146863544D01*
X198605447Y-146850485D01*
X198569403Y-146830257D01*
X198536596Y-146807675D01*
X198504607Y-146780872D01*
X198471016Y-146747982D01*
X198466581Y-146743347D01*
X198424006Y-146693044D01*
X198389991Y-146640338D01*
X198363917Y-146584061D01*
X198345168Y-146523043D01*
X198341465Y-146506489D01*
X198336757Y-146474694D01*
X198334220Y-146437060D01*
X198333787Y-146396355D01*
X198335393Y-146355351D01*
X198338970Y-146316819D01*
X198344453Y-146283528D01*
X198347063Y-146272676D01*
X198358231Y-146238492D01*
X198373786Y-146200908D01*
X198392063Y-146163531D01*
X198411394Y-146129970D01*
X198416845Y-146121634D01*
X198444076Y-146086411D01*
X198477783Y-146050813D01*
X198515807Y-146016663D01*
X198555989Y-145985781D01*
X198596167Y-145959992D01*
X198627259Y-145944073D01*
X198688002Y-145921840D01*
X198750764Y-145907789D01*
X198814537Y-145901753D01*
X198878311Y-145903566D01*
G37*
G36*
X202507644Y-145907620D02*
G01*
X202571826Y-145922841D01*
X202633289Y-145946626D01*
X202691410Y-145978754D01*
X202745567Y-146019007D01*
X202773507Y-146044597D01*
X202820208Y-146096508D01*
X202858321Y-146151878D01*
X202887871Y-146210755D01*
X202908881Y-146273192D01*
X202921373Y-146339240D01*
X202924456Y-146374040D01*
X202924025Y-146443350D01*
X202914794Y-146509859D01*
X202896857Y-146573323D01*
X202870306Y-146633498D01*
X202835235Y-146690139D01*
X202791737Y-146743003D01*
X202778668Y-146756489D01*
X202727639Y-146801921D01*
X202674043Y-146838715D01*
X202617121Y-146867319D01*
X202556110Y-146888176D01*
X202551662Y-146889358D01*
X202518347Y-146896055D01*
X202479294Y-146900700D01*
X202437544Y-146903177D01*
X202396137Y-146903375D01*
X202358116Y-146901178D01*
X202331907Y-146897569D01*
X202266904Y-146880708D01*
X202205448Y-146855669D01*
X202148201Y-146823067D01*
X202095825Y-146783516D01*
X202048981Y-146737632D01*
X202008331Y-146686029D01*
X201974535Y-146629321D01*
X201948256Y-146568123D01*
X201936553Y-146530189D01*
X201931913Y-146511551D01*
X201928625Y-146494713D01*
X201926447Y-146477321D01*
X201925140Y-146457021D01*
X201924465Y-146431460D01*
X201924286Y-146413697D01*
X202083046Y-146413697D01*
X202088732Y-146466954D01*
X202103072Y-146518646D01*
X202125946Y-146568033D01*
X202157232Y-146614376D01*
X202183029Y-146643549D01*
X202223708Y-146679236D01*
X202268311Y-146706963D01*
X202317889Y-146727311D01*
X202349708Y-146736047D01*
X202375022Y-146739825D01*
X202406228Y-146741378D01*
X202440261Y-146740831D01*
X202474057Y-146738311D01*
X202504550Y-146733943D01*
X202525647Y-146728850D01*
X202575650Y-146708395D01*
X202621859Y-146679935D01*
X202663351Y-146644271D01*
X202699200Y-146602201D01*
X202728483Y-146554525D01*
X202729527Y-146552469D01*
X202748498Y-146504851D01*
X202759771Y-146453629D01*
X202763276Y-146400451D01*
X202758945Y-146346962D01*
X202746706Y-146294809D01*
X202741105Y-146278661D01*
X202722043Y-146239048D01*
X202695577Y-146200026D01*
X202663464Y-146163525D01*
X202627461Y-146131472D01*
X202589327Y-146105796D01*
X202578074Y-146099795D01*
X202545374Y-146084799D01*
X202515478Y-146074531D01*
X202485184Y-146068264D01*
X202451293Y-146065269D01*
X202423788Y-146064731D01*
X202385766Y-146065851D01*
X202353475Y-146069712D01*
X202323601Y-146077063D01*
X202292830Y-146088654D01*
X202268684Y-146099838D01*
X202249832Y-146109727D01*
X202233498Y-146120132D01*
X202217336Y-146132836D01*
X202199003Y-146149619D01*
X202184816Y-146163553D01*
X202165186Y-146183625D01*
X202150665Y-146199941D01*
X202139457Y-146214919D01*
X202129765Y-146230972D01*
X202119794Y-146250518D01*
X202119118Y-146251918D01*
X202098118Y-146305440D01*
X202086134Y-146359612D01*
X202083046Y-146413697D01*
X201924286Y-146413697D01*
X201924241Y-146409260D01*
X201924365Y-146374195D01*
X201925343Y-146346137D01*
X201927327Y-146322859D01*
X201930473Y-146302136D01*
X201932208Y-146293511D01*
X201950014Y-146232270D01*
X201976215Y-146173579D01*
X202010093Y-146118336D01*
X202050932Y-146067436D01*
X202098016Y-146021776D01*
X202150627Y-145982255D01*
X202206179Y-145950672D01*
X202247449Y-145932435D01*
X202287062Y-145919173D01*
X202328640Y-145909872D01*
X202373611Y-145903742D01*
X202441365Y-145901180D01*
X202507644Y-145907620D01*
G37*
G36*
X201267975Y-145905521D02*
G01*
X201330975Y-145918005D01*
X201391990Y-145938634D01*
X201450064Y-145967442D01*
X201471323Y-145980645D01*
X201525980Y-146021997D01*
X201574274Y-146069574D01*
X201615685Y-146122626D01*
X201649692Y-146180402D01*
X201675774Y-146242150D01*
X201691518Y-146298079D01*
X201693622Y-146308094D01*
X201695398Y-146317925D01*
X201696874Y-146328430D01*
X201698078Y-146340467D01*
X201699039Y-146354893D01*
X201699785Y-146372568D01*
X201700345Y-146394349D01*
X201700747Y-146421095D01*
X201701019Y-146453663D01*
X201701190Y-146492913D01*
X201701288Y-146539701D01*
X201701341Y-146594886D01*
X201701342Y-146595207D01*
X201701513Y-146848290D01*
X201687623Y-146867896D01*
X201668118Y-146888631D01*
X201645113Y-146900957D01*
X201621260Y-146904666D01*
X201594268Y-146900374D01*
X201571048Y-146887866D01*
X201556565Y-146873132D01*
X201544094Y-146856790D01*
X201541464Y-146604088D01*
X201540876Y-146549012D01*
X201540328Y-146502363D01*
X201539784Y-146463307D01*
X201539208Y-146431011D01*
X201538563Y-146404642D01*
X201537812Y-146383365D01*
X201536920Y-146366349D01*
X201535850Y-146352760D01*
X201534566Y-146341764D01*
X201533031Y-146332528D01*
X201531209Y-146324219D01*
X201529063Y-146316004D01*
X201528861Y-146315269D01*
X201510019Y-146263749D01*
X201483454Y-146216181D01*
X201450033Y-146173432D01*
X201410622Y-146136371D01*
X201366086Y-146105865D01*
X201317293Y-146082783D01*
X201287131Y-146073071D01*
X201261855Y-146068335D01*
X201230665Y-146065557D01*
X201196640Y-146064736D01*
X201162859Y-146065869D01*
X201132402Y-146068954D01*
X201111192Y-146073174D01*
X201059749Y-146091852D01*
X201012302Y-146118505D01*
X200969572Y-146152449D01*
X200932283Y-146192997D01*
X200901156Y-146239461D01*
X200876915Y-146291157D01*
X200874338Y-146298141D01*
X200872031Y-146304740D01*
X200870072Y-146311153D01*
X200868424Y-146318174D01*
X200867051Y-146326602D01*
X200865917Y-146337234D01*
X200864987Y-146350866D01*
X200864223Y-146368297D01*
X200863590Y-146390322D01*
X200863052Y-146417739D01*
X200862573Y-146451345D01*
X200862117Y-146491937D01*
X200861647Y-146540312D01*
X200861209Y-146588280D01*
X200858859Y-146848324D01*
X200844969Y-146867914D01*
X200833357Y-146881426D01*
X200820167Y-146892792D01*
X200814946Y-146896085D01*
X200793814Y-146902906D01*
X200769730Y-146903960D01*
X200747027Y-146899201D01*
X200741626Y-146896880D01*
X200728717Y-146888093D01*
X200716175Y-146875910D01*
X200713847Y-146873040D01*
X200701440Y-146856775D01*
X200700144Y-146411937D01*
X200699986Y-146348352D01*
X200699885Y-146287268D01*
X200699841Y-146229337D01*
X200699851Y-146175212D01*
X200699913Y-146125545D01*
X200700026Y-146080988D01*
X200700188Y-146042195D01*
X200700397Y-146009818D01*
X200700651Y-145984508D01*
X200700949Y-145966920D01*
X200701288Y-145957704D01*
X200701419Y-145956564D01*
X200705948Y-145947122D01*
X200714654Y-145934707D01*
X200720576Y-145927671D01*
X200741007Y-145911159D01*
X200764243Y-145902487D01*
X200788457Y-145901793D01*
X200811819Y-145909215D01*
X200827060Y-145919641D01*
X200841435Y-145934465D01*
X200851004Y-145950579D01*
X200856966Y-145970693D01*
X200860256Y-145994625D01*
X200863489Y-146028629D01*
X200901685Y-145999869D01*
X200956569Y-145964156D01*
X201015191Y-145936396D01*
X201076597Y-145916620D01*
X201139832Y-145904860D01*
X201203943Y-145901150D01*
X201267975Y-145905521D01*
G37*
G36*
X197712369Y-145902616D02*
G01*
X197777285Y-145912401D01*
X197840712Y-145930744D01*
X197897655Y-145955585D01*
X197955525Y-145990292D01*
X198007537Y-146031606D01*
X198053218Y-146078807D01*
X198092096Y-146131174D01*
X198123699Y-146187986D01*
X198147554Y-146248524D01*
X198163189Y-146312068D01*
X198169799Y-146370422D01*
X198170845Y-146393332D01*
X198170981Y-146409283D01*
X198169944Y-146420553D01*
X198167468Y-146429421D01*
X198163290Y-146438164D01*
X198161578Y-146441257D01*
X198151138Y-146455639D01*
X198138284Y-146468030D01*
X198134299Y-146470836D01*
X198117918Y-146481024D01*
X197728172Y-146483339D01*
X197338425Y-146485654D01*
X197353255Y-146525009D01*
X197376920Y-146574980D01*
X197408078Y-146619984D01*
X197445999Y-146659317D01*
X197489954Y-146692273D01*
X197539215Y-146718150D01*
X197562322Y-146727090D01*
X197577984Y-146732259D01*
X197591626Y-146735839D01*
X197605597Y-146738123D01*
X197622247Y-146739405D01*
X197643924Y-146739980D01*
X197666496Y-146740128D01*
X197694932Y-146739994D01*
X197716486Y-146739259D01*
X197733528Y-146737674D01*
X197748430Y-146734993D01*
X197763563Y-146730968D01*
X197768356Y-146729507D01*
X197806368Y-146715178D01*
X197842274Y-146696044D01*
X197878611Y-146670659D01*
X197895035Y-146657435D01*
X197916454Y-146640799D01*
X197934288Y-146629425D01*
X197947255Y-146624128D01*
X197947415Y-146624097D01*
X197975774Y-146622647D01*
X198000844Y-146628829D01*
X198021480Y-146641764D01*
X198036534Y-146660578D01*
X198044858Y-146684393D01*
X198046154Y-146699547D01*
X198045003Y-146717826D01*
X198040737Y-146733098D01*
X198032140Y-146747612D01*
X198017994Y-146763620D01*
X198004460Y-146776622D01*
X197953139Y-146817874D01*
X197896507Y-146851680D01*
X197835190Y-146877699D01*
X197797088Y-146889256D01*
X197763036Y-146896100D01*
X197723280Y-146900801D01*
X197680896Y-146903244D01*
X197638960Y-146903315D01*
X197600546Y-146900899D01*
X197576315Y-146897465D01*
X197512262Y-146880747D01*
X197451090Y-146855528D01*
X197393540Y-146822316D01*
X197340353Y-146781620D01*
X197292270Y-146733949D01*
X197250032Y-146679810D01*
X197242469Y-146668433D01*
X197213278Y-146615092D01*
X197191095Y-146556882D01*
X197176119Y-146495211D01*
X197168552Y-146431487D01*
X197168593Y-146367121D01*
X197174250Y-146321291D01*
X197341241Y-146321291D01*
X197670548Y-146321291D01*
X197724847Y-146321269D01*
X197776353Y-146321206D01*
X197824332Y-146321105D01*
X197868048Y-146320971D01*
X197906766Y-146320806D01*
X197939751Y-146320613D01*
X197966269Y-146320398D01*
X197985584Y-146320163D01*
X197996961Y-146319911D01*
X197999854Y-146319700D01*
X197998469Y-146314832D01*
X197994873Y-146303802D01*
X197990803Y-146291803D01*
X197968871Y-146241670D01*
X197939777Y-146196603D01*
X197904402Y-146157143D01*
X197863624Y-146123831D01*
X197818325Y-146097207D01*
X197769382Y-146077814D01*
X197717678Y-146066190D01*
X197664091Y-146062879D01*
X197623656Y-146066109D01*
X197571791Y-146077043D01*
X197524854Y-146094834D01*
X197481423Y-146120208D01*
X197440075Y-146153889D01*
X197427500Y-146166088D01*
X197407776Y-146186883D01*
X197392913Y-146205281D01*
X197380497Y-146224610D01*
X197368429Y-146247558D01*
X197359058Y-146267474D01*
X197351140Y-146285921D01*
X197345739Y-146300336D01*
X197344096Y-146306243D01*
X197341241Y-146321291D01*
X197174250Y-146321291D01*
X197176443Y-146303520D01*
X197185144Y-146265731D01*
X197195448Y-146235038D01*
X197210125Y-146200524D01*
X197227566Y-146165440D01*
X197246166Y-146133035D01*
X197263082Y-146108165D01*
X197284204Y-146082799D01*
X197310010Y-146055547D01*
X197338155Y-146028623D01*
X197366293Y-146004243D01*
X197392079Y-145984622D01*
X197398340Y-145980423D01*
X197456604Y-145948120D01*
X197518080Y-145924141D01*
X197581826Y-145908533D01*
X197646902Y-145901342D01*
X197712369Y-145902616D01*
G37*
G36*
X194251088Y-145401741D02*
G01*
X194273221Y-145411063D01*
X194292320Y-145427536D01*
X194305649Y-145448542D01*
X194307420Y-145452827D01*
X194308929Y-145457901D01*
X194310198Y-145464494D01*
X194311247Y-145473338D01*
X194312099Y-145485163D01*
X194312773Y-145500700D01*
X194313291Y-145520679D01*
X194313675Y-145545832D01*
X194313945Y-145576890D01*
X194314121Y-145614583D01*
X194314227Y-145659642D01*
X194314281Y-145712798D01*
X194314298Y-145748332D01*
X194314378Y-145798418D01*
X194314571Y-145845650D01*
X194314867Y-145889234D01*
X194315255Y-145928374D01*
X194315724Y-145962276D01*
X194316262Y-145990144D01*
X194316859Y-146011182D01*
X194317503Y-146024595D01*
X194318184Y-146029588D01*
X194318223Y-146029603D01*
X194323711Y-146026534D01*
X194331937Y-146019063D01*
X194332731Y-146018229D01*
X194341697Y-146010210D01*
X194355721Y-145999315D01*
X194372061Y-145987657D01*
X194375240Y-145985504D01*
X194433229Y-145952006D01*
X194494283Y-145926883D01*
X194557525Y-145910140D01*
X194622078Y-145901788D01*
X194687066Y-145901832D01*
X194751611Y-145910281D01*
X194814837Y-145927143D01*
X194875865Y-145952426D01*
X194925475Y-145980618D01*
X194950964Y-145999176D01*
X194979287Y-146023206D01*
X195008144Y-146050472D01*
X195035237Y-146078738D01*
X195058269Y-146105768D01*
X195069108Y-146120357D01*
X195103225Y-146177726D01*
X195129042Y-146238793D01*
X195146361Y-146302764D01*
X195154980Y-146368847D01*
X195154699Y-146436247D01*
X195153215Y-146453200D01*
X195142279Y-146520418D01*
X195123833Y-146582504D01*
X195097522Y-146640208D01*
X195062989Y-146694277D01*
X195019881Y-146745458D01*
X195009002Y-146756614D01*
X194957413Y-146802548D01*
X194903162Y-146839684D01*
X194845837Y-146868205D01*
X194785026Y-146888294D01*
X194720319Y-146900135D01*
X194680168Y-146903326D01*
X194611655Y-146902689D01*
X194547775Y-146894339D01*
X194487661Y-146878015D01*
X194430444Y-146853452D01*
X194375257Y-146820389D01*
X194352597Y-146803997D01*
X194314400Y-146774963D01*
X194314298Y-146806247D01*
X194310864Y-146838519D01*
X194301032Y-146865186D01*
X194285167Y-146885595D01*
X194263635Y-146899092D01*
X194262012Y-146899728D01*
X194237536Y-146904542D01*
X194212221Y-146901927D01*
X194192215Y-146893716D01*
X194177924Y-146882327D01*
X194165365Y-146867949D01*
X194163301Y-146864803D01*
X194152399Y-146846792D01*
X194152384Y-146402315D01*
X194317009Y-146402315D01*
X194317139Y-146430224D01*
X194317732Y-146451152D01*
X194319055Y-146467374D01*
X194321373Y-146481169D01*
X194324954Y-146494812D01*
X194329462Y-146508804D01*
X194351590Y-146560478D01*
X194381144Y-146607194D01*
X194417387Y-146648266D01*
X194459586Y-146683011D01*
X194507006Y-146710744D01*
X194558911Y-146730779D01*
X194571363Y-146734215D01*
X194604277Y-146739873D01*
X194642457Y-146741980D01*
X194682676Y-146740669D01*
X194721707Y-146736076D01*
X194756321Y-146728336D01*
X194763050Y-146726215D01*
X194812179Y-146705031D01*
X194856708Y-146676538D01*
X194896054Y-146641690D01*
X194929631Y-146601442D01*
X194956856Y-146556747D01*
X194977144Y-146508559D01*
X194989910Y-146457834D01*
X194994570Y-146405524D01*
X194990821Y-146354356D01*
X194979064Y-146302028D01*
X194960585Y-146255016D01*
X194934603Y-146211807D01*
X194900335Y-146170890D01*
X194891111Y-146161557D01*
X194851752Y-146127094D01*
X194811523Y-146100932D01*
X194768529Y-146082168D01*
X194720875Y-146069900D01*
X194688925Y-146065245D01*
X194633197Y-146063563D01*
X194579101Y-146070832D01*
X194527407Y-146086781D01*
X194478886Y-146111140D01*
X194434309Y-146143641D01*
X194415795Y-146160797D01*
X194379058Y-146203426D01*
X194349556Y-146250561D01*
X194329914Y-146295826D01*
X194324842Y-146311121D01*
X194321303Y-146324392D01*
X194319024Y-146337899D01*
X194317731Y-146353896D01*
X194317151Y-146374643D01*
X194317009Y-146402315D01*
X194152384Y-146402315D01*
X194152351Y-145457340D01*
X194164684Y-145438320D01*
X194182719Y-145417860D01*
X194204213Y-145405022D01*
X194227544Y-145399688D01*
X194251088Y-145401741D01*
G37*
G36*
X199579442Y-145404257D02*
G01*
X199601224Y-145416111D01*
X199619020Y-145433787D01*
X199629308Y-145452316D01*
X199630509Y-145460334D01*
X199631543Y-145477585D01*
X199632409Y-145504075D01*
X199633107Y-145539805D01*
X199633637Y-145584781D01*
X199634000Y-145639005D01*
X199634195Y-145702481D01*
X199634232Y-145749844D01*
X199634232Y-146034339D01*
X199660855Y-146012654D01*
X199715488Y-145973945D01*
X199773924Y-145943314D01*
X199835297Y-145920852D01*
X199898742Y-145906650D01*
X199963394Y-145900799D01*
X200028388Y-145903390D01*
X200092859Y-145914514D01*
X200155940Y-145934262D01*
X200203379Y-145955585D01*
X200261028Y-145990321D01*
X200313372Y-146032235D01*
X200359751Y-146080512D01*
X200399503Y-146134335D01*
X200431965Y-146192891D01*
X200456478Y-146255364D01*
X200462099Y-146274440D01*
X200474250Y-146318976D01*
X200475814Y-146581815D01*
X200477379Y-146844655D01*
X200466765Y-146863540D01*
X200450728Y-146883552D01*
X200429929Y-146897100D01*
X200406334Y-146903846D01*
X200381906Y-146903456D01*
X200358610Y-146895592D01*
X200343164Y-146884681D01*
X200334057Y-146873813D01*
X200325305Y-146859546D01*
X200323588Y-146856052D01*
X200321668Y-146851389D01*
X200320057Y-146845896D01*
X200318727Y-146838764D01*
X200317652Y-146829188D01*
X200316805Y-146816360D01*
X200316156Y-146799474D01*
X200315681Y-146777722D01*
X200315350Y-146750298D01*
X200315136Y-146716394D01*
X200315013Y-146675205D01*
X200314953Y-146625923D01*
X200314939Y-146601096D01*
X200314878Y-146544235D01*
X200314709Y-146495767D01*
X200314372Y-146454829D01*
X200313809Y-146420554D01*
X200312959Y-146392077D01*
X200311764Y-146368532D01*
X200310164Y-146349054D01*
X200308101Y-146332777D01*
X200305516Y-146318836D01*
X200302348Y-146306366D01*
X200298539Y-146294501D01*
X200294029Y-146282375D01*
X200292951Y-146279621D01*
X200268826Y-146230395D01*
X200237764Y-146186440D01*
X200200663Y-146148301D01*
X200158422Y-146116526D01*
X200111941Y-146091661D01*
X200062118Y-146074251D01*
X200009853Y-146064843D01*
X199956045Y-146063984D01*
X199940387Y-146065399D01*
X199916543Y-146068814D01*
X199892031Y-146073440D01*
X199871101Y-146078443D01*
X199865731Y-146080027D01*
X199823850Y-146097596D01*
X199782846Y-146122871D01*
X199744395Y-146154330D01*
X199710174Y-146190454D01*
X199681860Y-146229723D01*
X199664588Y-146262382D01*
X199658924Y-146275259D01*
X199654102Y-146286823D01*
X199650046Y-146297923D01*
X199646680Y-146309408D01*
X199643927Y-146322128D01*
X199641712Y-146336930D01*
X199639959Y-146354664D01*
X199638591Y-146376179D01*
X199637533Y-146402324D01*
X199636707Y-146433948D01*
X199636039Y-146471900D01*
X199635452Y-146517029D01*
X199634871Y-146570183D01*
X199634588Y-146597122D01*
X199631917Y-146852119D01*
X199620422Y-146868886D01*
X199602282Y-146887830D01*
X199579637Y-146899963D01*
X199554602Y-146904663D01*
X199529296Y-146901308D01*
X199520798Y-146898131D01*
X199500111Y-146883979D01*
X199483980Y-146862370D01*
X199479350Y-146852665D01*
X199478366Y-146849565D01*
X199477476Y-146844910D01*
X199476675Y-146838258D01*
X199475958Y-146829170D01*
X199475321Y-146817205D01*
X199474759Y-146801924D01*
X199474268Y-146782886D01*
X199473843Y-146759650D01*
X199473481Y-146731778D01*
X199473176Y-146698828D01*
X199472924Y-146660360D01*
X199472721Y-146615936D01*
X199472563Y-146565113D01*
X199472444Y-146507452D01*
X199472361Y-146442514D01*
X199472309Y-146369857D01*
X199472283Y-146289042D01*
X199472280Y-146199628D01*
X199472285Y-146151288D01*
X199472303Y-146058199D01*
X199472330Y-145973919D01*
X199472372Y-145897997D01*
X199472434Y-145829981D01*
X199472523Y-145769421D01*
X199472644Y-145715865D01*
X199472801Y-145668862D01*
X199473002Y-145627961D01*
X199473251Y-145592711D01*
X199473554Y-145562661D01*
X199473917Y-145537359D01*
X199474344Y-145516355D01*
X199474842Y-145499197D01*
X199475416Y-145485435D01*
X199476072Y-145474617D01*
X199476816Y-145466291D01*
X199477652Y-145460008D01*
X199478586Y-145455315D01*
X199479624Y-145451762D01*
X199480772Y-145448898D01*
X199480934Y-145448542D01*
X199496075Y-145424805D01*
X199515994Y-145408992D01*
X199540833Y-145401012D01*
X199556054Y-145399927D01*
X199579442Y-145404257D01*
G37*
G36*
X206033707Y-145903096D02*
G01*
X206055351Y-145910981D01*
X206074486Y-145926213D01*
X206080012Y-145932981D01*
X206083592Y-145939439D01*
X206090697Y-145953706D01*
X206101035Y-145975152D01*
X206114312Y-146003150D01*
X206130236Y-146037070D01*
X206148514Y-146076285D01*
X206168853Y-146120167D01*
X206190960Y-146168087D01*
X206214542Y-146219417D01*
X206239307Y-146273528D01*
X206264252Y-146328235D01*
X206289655Y-146384038D01*
X206313954Y-146437397D01*
X206336876Y-146487715D01*
X206358148Y-146534396D01*
X206377500Y-146576842D01*
X206394657Y-146614457D01*
X206409349Y-146646642D01*
X206421301Y-146672802D01*
X206430243Y-146692339D01*
X206435902Y-146704655D01*
X206438005Y-146709154D01*
X206438009Y-146709161D01*
X206440022Y-146705232D01*
X206445598Y-146693462D01*
X206454466Y-146674438D01*
X206466356Y-146648747D01*
X206480999Y-146616978D01*
X206498125Y-146579718D01*
X206517462Y-146537555D01*
X206538742Y-146491077D01*
X206561694Y-146440870D01*
X206586047Y-146387524D01*
X206611533Y-146331626D01*
X206614404Y-146325322D01*
X206646827Y-146254258D01*
X206675668Y-146191282D01*
X206701105Y-146136017D01*
X206723315Y-146088091D01*
X206742478Y-146047127D01*
X206758772Y-146012752D01*
X206772375Y-145984590D01*
X206783464Y-145962267D01*
X206792219Y-145945408D01*
X206798818Y-145933639D01*
X206803438Y-145926584D01*
X206804861Y-145924907D01*
X206826008Y-145909462D01*
X206850066Y-145902108D01*
X206875123Y-145903034D01*
X206899265Y-145912430D01*
X206903495Y-145915124D01*
X206921941Y-145930307D01*
X206932738Y-145946736D01*
X206937364Y-145967214D01*
X206937824Y-145980170D01*
X206937708Y-145984453D01*
X206937288Y-145988999D01*
X206936371Y-145994251D01*
X206934764Y-146000654D01*
X206932274Y-146008650D01*
X206928707Y-146018682D01*
X206923872Y-146031195D01*
X206917575Y-146046631D01*
X206909623Y-146065434D01*
X206899824Y-146088048D01*
X206887985Y-146114915D01*
X206873913Y-146146479D01*
X206857414Y-146183183D01*
X206838296Y-146225472D01*
X206816367Y-146273787D01*
X206791433Y-146328574D01*
X206763302Y-146390274D01*
X206731780Y-146459332D01*
X206696674Y-146536190D01*
X206681688Y-146568994D01*
X206650301Y-146637625D01*
X206619745Y-146704308D01*
X206590265Y-146768518D01*
X206562103Y-146829727D01*
X206535504Y-146887411D01*
X206510713Y-146941041D01*
X206487973Y-146990093D01*
X206467528Y-147034040D01*
X206449623Y-147072356D01*
X206434502Y-147104513D01*
X206422408Y-147129987D01*
X206413586Y-147148251D01*
X206408279Y-147158779D01*
X206407378Y-147160405D01*
X206370567Y-147214387D01*
X206327401Y-147262715D01*
X206278770Y-147304866D01*
X206225564Y-147340313D01*
X206168672Y-147368531D01*
X206108984Y-147388996D01*
X206047391Y-147401183D01*
X205993410Y-147404642D01*
X205971498Y-147404448D01*
X205956430Y-147403507D01*
X205945796Y-147401388D01*
X205937184Y-147397657D01*
X205930243Y-147393297D01*
X205911816Y-147375639D01*
X205900041Y-147353471D01*
X205895342Y-147328949D01*
X205898144Y-147304226D01*
X205908353Y-147282206D01*
X205919856Y-147268510D01*
X205933956Y-147258425D01*
X205952423Y-147251204D01*
X205977026Y-147246097D01*
X206000437Y-147243216D01*
X206036688Y-147238629D01*
X206067030Y-147232359D01*
X206094786Y-147223457D01*
X206123278Y-147210976D01*
X206136052Y-147204549D01*
X206166354Y-147185858D01*
X206197479Y-147161463D01*
X206226575Y-147133910D01*
X206250794Y-147105746D01*
X206258031Y-147095555D01*
X206264415Y-147084723D01*
X206273293Y-147068003D01*
X206283943Y-147046928D01*
X206295644Y-147023029D01*
X206307675Y-146997837D01*
X206319317Y-146972883D01*
X206329847Y-146949699D01*
X206338545Y-146929816D01*
X206344691Y-146914764D01*
X206347563Y-146906076D01*
X206347685Y-146905097D01*
X206345799Y-146900307D01*
X206340307Y-146887652D01*
X206331460Y-146867687D01*
X206319509Y-146840965D01*
X206304704Y-146808042D01*
X206287295Y-146769470D01*
X206267533Y-146725806D01*
X206245669Y-146677602D01*
X206221952Y-146625413D01*
X206196635Y-146569793D01*
X206169966Y-146511296D01*
X206142972Y-146452175D01*
X206110191Y-146380399D01*
X206081067Y-146316545D01*
X206055387Y-146260126D01*
X206032939Y-146210652D01*
X206013510Y-146167633D01*
X205996889Y-146130579D01*
X205982862Y-146099003D01*
X205971217Y-146072414D01*
X205961742Y-146050322D01*
X205954224Y-146032240D01*
X205948451Y-146017676D01*
X205944211Y-146006142D01*
X205941290Y-145997149D01*
X205939478Y-145990206D01*
X205938560Y-145984825D01*
X205938324Y-145980723D01*
X205942333Y-145955535D01*
X205953173Y-145934547D01*
X205969287Y-145918285D01*
X205989119Y-145907272D01*
X206011111Y-145902035D01*
X206033707Y-145903096D01*
G37*
G36*
X205615229Y-145903609D02*
G01*
X205618423Y-145904580D01*
X205638109Y-145915087D01*
X205655706Y-145931563D01*
X205668346Y-145951014D01*
X205671716Y-145960178D01*
X205672598Y-145967166D01*
X205673362Y-145981281D01*
X205674008Y-146002731D01*
X205674540Y-146031729D01*
X205674957Y-146068483D01*
X205675262Y-146113204D01*
X205675456Y-146166102D01*
X205675540Y-146227388D01*
X205675516Y-146297270D01*
X205675384Y-146375961D01*
X205675147Y-146463669D01*
X205675102Y-146477610D01*
X205674848Y-146558217D01*
X205674620Y-146630138D01*
X205674386Y-146693947D01*
X205674116Y-146750216D01*
X205673778Y-146799519D01*
X205673341Y-146842429D01*
X205672775Y-146879521D01*
X205672046Y-146911367D01*
X205671126Y-146938542D01*
X205669981Y-146961618D01*
X205668582Y-146981169D01*
X205666897Y-146997768D01*
X205664894Y-147011990D01*
X205662543Y-147024406D01*
X205659813Y-147035592D01*
X205656671Y-147046120D01*
X205653088Y-147056564D01*
X205649031Y-147067498D01*
X205644470Y-147079494D01*
X205642010Y-147086018D01*
X205618376Y-147138169D01*
X205587271Y-147187769D01*
X205547945Y-147235951D01*
X205530496Y-147254320D01*
X205498860Y-147284879D01*
X205469575Y-147309542D01*
X205440004Y-147330213D01*
X205407510Y-147348797D01*
X205382904Y-147360977D01*
X205352353Y-147374668D01*
X205324926Y-147385011D01*
X205298336Y-147392484D01*
X205270299Y-147397568D01*
X205238527Y-147400743D01*
X205200736Y-147402488D01*
X205183248Y-147402897D01*
X205146210Y-147403269D01*
X205116982Y-147402787D01*
X205094147Y-147401388D01*
X205076288Y-147399008D01*
X205070536Y-147397839D01*
X205004457Y-147378939D01*
X204944310Y-147353255D01*
X204889381Y-147320454D01*
X204862590Y-147300430D01*
X204839053Y-147280992D01*
X204822079Y-147265243D01*
X204810627Y-147251586D01*
X204803656Y-147238425D01*
X204800124Y-147224164D01*
X204798991Y-147207207D01*
X204798961Y-147202842D01*
X204800549Y-147178226D01*
X204806165Y-147160178D01*
X204817088Y-147146426D01*
X204834596Y-147134696D01*
X204838410Y-147132692D01*
X204861812Y-147124123D01*
X204884367Y-147123343D01*
X204907263Y-147130611D01*
X204931689Y-147146186D01*
X204942958Y-147155501D01*
X204979100Y-147184238D01*
X205014810Y-147206244D01*
X205053131Y-147223368D01*
X205056914Y-147224770D01*
X205107617Y-147238556D01*
X205160638Y-147244260D01*
X205214204Y-147241994D01*
X205266542Y-147231874D01*
X205315880Y-147214012D01*
X205329683Y-147207238D01*
X205375255Y-147178273D01*
X205415980Y-147142092D01*
X205450912Y-147099877D01*
X205479109Y-147052808D01*
X205499625Y-147002067D01*
X205503071Y-146990321D01*
X205505219Y-146978776D01*
X205507298Y-146960984D01*
X205509243Y-146938491D01*
X205510989Y-146912846D01*
X205512471Y-146885595D01*
X205513623Y-146858286D01*
X205514380Y-146832466D01*
X205514677Y-146809683D01*
X205514449Y-146791484D01*
X205513630Y-146779416D01*
X205512155Y-146775027D01*
X205512148Y-146775027D01*
X205507222Y-146777859D01*
X205497563Y-146785266D01*
X205485886Y-146795107D01*
X205448072Y-146823659D01*
X205403619Y-146849594D01*
X205355047Y-146871643D01*
X205304878Y-146888541D01*
X205294367Y-146891319D01*
X205264616Y-146897019D01*
X205228842Y-146901118D01*
X205190166Y-146903475D01*
X205151710Y-146903948D01*
X205116595Y-146902397D01*
X205097218Y-146900261D01*
X205032297Y-146886284D01*
X204970883Y-146863818D01*
X204912846Y-146832794D01*
X204858054Y-146793142D01*
X204807988Y-146746478D01*
X204764287Y-146695189D01*
X204729285Y-146641374D01*
X204702758Y-146584462D01*
X204684478Y-146523885D01*
X204674220Y-146459071D01*
X204671637Y-146402315D01*
X204671663Y-146401898D01*
X204833766Y-146401898D01*
X204836064Y-146448600D01*
X204843136Y-146489770D01*
X204855512Y-146528107D01*
X204860968Y-146540858D01*
X204888281Y-146590252D01*
X204922545Y-146633960D01*
X204963014Y-146671356D01*
X205008941Y-146701811D01*
X205059583Y-146724699D01*
X205090649Y-146734215D01*
X205122807Y-146739762D01*
X205160268Y-146741935D01*
X205199765Y-146740860D01*
X205238028Y-146736666D01*
X205271791Y-146729481D01*
X205280477Y-146726787D01*
X205329617Y-146705420D01*
X205375110Y-146675790D01*
X205417391Y-146637613D01*
X205418020Y-146636956D01*
X205453759Y-146593804D01*
X205480805Y-146547977D01*
X205499536Y-146498642D01*
X205510334Y-146444967D01*
X205511727Y-146432008D01*
X205512123Y-146378844D01*
X205503974Y-146326728D01*
X205487913Y-146276649D01*
X205464572Y-146229599D01*
X205434584Y-146186567D01*
X205398582Y-146148541D01*
X205357199Y-146116513D01*
X205311066Y-146091472D01*
X205288358Y-146082548D01*
X205233950Y-146068324D01*
X205179302Y-146063028D01*
X205125309Y-146066399D01*
X205072868Y-146078176D01*
X205022873Y-146098096D01*
X204976220Y-146125898D01*
X204933803Y-146161321D01*
X204903514Y-146194982D01*
X204873348Y-146240159D01*
X204851708Y-146288821D01*
X204838539Y-146341132D01*
X204833785Y-146397258D01*
X204833766Y-146401898D01*
X204671663Y-146401898D01*
X204676025Y-146333208D01*
X204689060Y-146267228D01*
X204710552Y-146204743D01*
X204740308Y-146146123D01*
X204778138Y-146091736D01*
X204823849Y-146041949D01*
X204877249Y-145997132D01*
X204885433Y-145991200D01*
X204940578Y-145957440D01*
X204999310Y-145931620D01*
X205060655Y-145913720D01*
X205123640Y-145903718D01*
X205187293Y-145901595D01*
X205250641Y-145907327D01*
X205312712Y-145920895D01*
X205372532Y-145942278D01*
X205429129Y-145971453D01*
X205476094Y-146004029D01*
X205514291Y-146034256D01*
X205514291Y-145999371D01*
X205515727Y-145971962D01*
X205520622Y-145951055D01*
X205529854Y-145934259D01*
X205543501Y-145919882D01*
X205565155Y-145906698D01*
X205590013Y-145901080D01*
X205615229Y-145903609D01*
G37*
%TD*%
M02*
