%TF.GenerationSoftware,KiCad,Pcbnew,7.0.6-7.0.6~ubuntu22.04.1*%
%TF.CreationDate,2023-08-02T12:12:09+12:00*%
%TF.ProjectId,TWIST_SWTICH_SPACER_PLATE,54574953-545f-4535-9754-4943485f5350,v1.1*%
%TF.SameCoordinates,Original*%
%TF.FileFunction,Copper,L1,Top*%
%TF.FilePolarity,Positive*%
%FSLAX46Y46*%
G04 Gerber Fmt 4.6, Leading zero omitted, Abs format (unit mm)*
G04 Created by KiCad (PCBNEW 7.0.6-7.0.6~ubuntu22.04.1) date 2023-08-02 12:12:09*
%MOMM*%
%LPD*%
G01*
G04 APERTURE LIST*
G04 APERTURE END LIST*
%TA.AperFunction,NonConductor*%
G36*
X208742539Y-145220185D02*
G01*
X208788294Y-145272989D01*
X208799500Y-145324500D01*
X208799500Y-154675500D01*
X208779815Y-154742539D01*
X208727011Y-154788294D01*
X208675500Y-154799500D01*
X191324500Y-154799500D01*
X191257461Y-154779815D01*
X191211706Y-154727011D01*
X191200500Y-154675500D01*
X191200500Y-150056330D01*
X192745710Y-150056330D01*
X192775925Y-150279387D01*
X192775926Y-150279390D01*
X192845483Y-150493465D01*
X192952146Y-150691678D01*
X192952148Y-150691681D01*
X193092489Y-150867663D01*
X193092491Y-150867664D01*
X193092492Y-150867666D01*
X193262004Y-151015765D01*
X193455236Y-151131215D01*
X193665976Y-151210307D01*
X193887450Y-151250500D01*
X193887453Y-151250500D01*
X194056148Y-151250500D01*
X194056155Y-151250500D01*
X194224188Y-151235377D01*
X194224192Y-151235376D01*
X194441160Y-151175496D01*
X194441162Y-151175495D01*
X194441170Y-151175493D01*
X194643973Y-151077829D01*
X194826078Y-150945522D01*
X194981632Y-150782825D01*
X195105635Y-150594968D01*
X195194103Y-150387988D01*
X195244191Y-150168537D01*
X195254290Y-149943670D01*
X195249769Y-149910291D01*
X196745792Y-149910291D01*
X196755675Y-150268822D01*
X196755675Y-150268827D01*
X196755676Y-150268832D01*
X196786826Y-150493465D01*
X196804942Y-150624107D01*
X196892989Y-150971799D01*
X196892989Y-150971801D01*
X197018751Y-151307695D01*
X197018752Y-151307698D01*
X197169841Y-151606256D01*
X197180704Y-151627721D01*
X197376878Y-151927988D01*
X197376880Y-151927990D01*
X197604894Y-152204853D01*
X197604899Y-152204858D01*
X197861985Y-152454955D01*
X197861990Y-152454959D01*
X198145011Y-152675243D01*
X198145014Y-152675245D01*
X198145022Y-152675251D01*
X198450580Y-152863077D01*
X198774946Y-153016149D01*
X198774948Y-153016149D01*
X198774953Y-153016152D01*
X198774952Y-153016152D01*
X199114168Y-153132604D01*
X199114183Y-153132609D01*
X199464172Y-153211043D01*
X199820665Y-153250500D01*
X200089598Y-153250500D01*
X200127731Y-153248396D01*
X200358125Y-153235685D01*
X200711904Y-153176650D01*
X201057041Y-153079054D01*
X201389346Y-152944083D01*
X201704787Y-152773375D01*
X201999534Y-152569002D01*
X202270010Y-152333445D01*
X202512931Y-152069562D01*
X202725348Y-151780559D01*
X202904683Y-151469941D01*
X203048759Y-151141481D01*
X203155827Y-150799164D01*
X203224588Y-150447147D01*
X203254207Y-150089702D01*
X203253287Y-150056330D01*
X204745710Y-150056330D01*
X204775925Y-150279387D01*
X204775926Y-150279390D01*
X204845483Y-150493465D01*
X204952146Y-150691678D01*
X204952148Y-150691681D01*
X205092489Y-150867663D01*
X205092491Y-150867664D01*
X205092492Y-150867666D01*
X205262004Y-151015765D01*
X205455236Y-151131215D01*
X205665976Y-151210307D01*
X205887450Y-151250500D01*
X205887453Y-151250500D01*
X206056148Y-151250500D01*
X206056155Y-151250500D01*
X206224188Y-151235377D01*
X206224192Y-151235376D01*
X206441160Y-151175496D01*
X206441162Y-151175495D01*
X206441170Y-151175493D01*
X206643973Y-151077829D01*
X206826078Y-150945522D01*
X206981632Y-150782825D01*
X207105635Y-150594968D01*
X207194103Y-150387988D01*
X207244191Y-150168537D01*
X207254290Y-149943670D01*
X207224075Y-149720613D01*
X207154517Y-149506536D01*
X207047852Y-149308319D01*
X206907508Y-149132334D01*
X206737996Y-148984235D01*
X206544764Y-148868785D01*
X206426775Y-148824503D01*
X206334023Y-148789692D01*
X206112550Y-148749500D01*
X206112547Y-148749500D01*
X205943845Y-148749500D01*
X205905399Y-148752960D01*
X205775813Y-148764622D01*
X205775807Y-148764623D01*
X205558839Y-148824503D01*
X205558826Y-148824508D01*
X205356033Y-148922167D01*
X205356025Y-148922171D01*
X205173927Y-149054473D01*
X205173925Y-149054474D01*
X205018366Y-149217176D01*
X204894363Y-149405033D01*
X204805899Y-149612004D01*
X204805895Y-149612017D01*
X204755810Y-149831457D01*
X204755808Y-149831468D01*
X204750769Y-149943674D01*
X204745710Y-150056330D01*
X203253287Y-150056330D01*
X203244324Y-149731168D01*
X203195059Y-149375897D01*
X203107011Y-149028202D01*
X203090549Y-148984235D01*
X203035243Y-148836519D01*
X202981248Y-148692303D01*
X202819296Y-148372279D01*
X202623122Y-148072012D01*
X202395107Y-147795148D01*
X202262920Y-147666555D01*
X202138014Y-147545044D01*
X202138009Y-147545040D01*
X201854988Y-147324756D01*
X201854985Y-147324754D01*
X201854982Y-147324752D01*
X201854978Y-147324749D01*
X201549420Y-147136923D01*
X201549419Y-147136922D01*
X201549415Y-147136920D01*
X201225046Y-146983847D01*
X201225047Y-146983847D01*
X200885831Y-146867395D01*
X200885820Y-146867392D01*
X200885817Y-146867391D01*
X200535828Y-146788957D01*
X200535824Y-146788956D01*
X200179335Y-146749500D01*
X199910405Y-146749500D01*
X199910402Y-146749500D01*
X199641874Y-146764315D01*
X199288094Y-146823350D01*
X199288090Y-146823351D01*
X198942960Y-146920945D01*
X198942957Y-146920946D01*
X198610661Y-147055913D01*
X198610648Y-147055919D01*
X198295220Y-147226620D01*
X198295219Y-147226621D01*
X198000460Y-147431002D01*
X197729996Y-147666548D01*
X197729992Y-147666551D01*
X197487067Y-147930440D01*
X197274652Y-148219441D01*
X197274651Y-148219442D01*
X197095317Y-148530058D01*
X196951240Y-148858520D01*
X196951239Y-148858521D01*
X196844173Y-149200832D01*
X196775412Y-149552849D01*
X196775410Y-149552863D01*
X196745793Y-149910287D01*
X196745792Y-149910291D01*
X195249769Y-149910291D01*
X195224075Y-149720613D01*
X195154517Y-149506536D01*
X195047852Y-149308319D01*
X194907508Y-149132334D01*
X194737996Y-148984235D01*
X194544764Y-148868785D01*
X194426775Y-148824503D01*
X194334023Y-148789692D01*
X194112550Y-148749500D01*
X194112547Y-148749500D01*
X193943845Y-148749500D01*
X193905399Y-148752960D01*
X193775813Y-148764622D01*
X193775807Y-148764623D01*
X193558839Y-148824503D01*
X193558826Y-148824508D01*
X193356033Y-148922167D01*
X193356025Y-148922171D01*
X193173927Y-149054473D01*
X193173925Y-149054474D01*
X193018366Y-149217176D01*
X192894363Y-149405033D01*
X192805899Y-149612004D01*
X192805895Y-149612017D01*
X192755810Y-149831457D01*
X192755808Y-149831468D01*
X192750769Y-149943674D01*
X192745710Y-150056330D01*
X191200500Y-150056330D01*
X191200500Y-145324500D01*
X191220185Y-145257461D01*
X191272989Y-145211706D01*
X191324500Y-145200500D01*
X208675500Y-145200500D01*
X208742539Y-145220185D01*
G37*
%TD.AperFunction*%
M02*
