%TF.GenerationSoftware,KiCad,Pcbnew,7.0.6-7.0.6~ubuntu22.04.1*%
%TF.CreationDate,2023-08-02T12:12:06+12:00*%
%TF.ProjectId,TWIST_SWTICH_SPACER_PLATE,54574953-545f-4535-9754-4943485f5350,v1.1*%
%TF.SameCoordinates,Original*%
%TF.FileFunction,Drillmap*%
%TF.FilePolarity,Positive*%
%FSLAX45Y45*%
G04 Gerber Fmt 4.5, Leading zero omitted, Abs format (unit mm)*
G04 Created by KiCad (PCBNEW 7.0.6-7.0.6~ubuntu22.04.1) date 2023-08-02 12:12:06*
%MOMM*%
%LPD*%
G01*
G04 APERTURE LIST*
%ADD10C,0.100000*%
%ADD11C,0.200000*%
G04 APERTURE END LIST*
D10*
X20900000Y-14500000D02*
X20900000Y-15500000D01*
X19100000Y-14500000D02*
X19100000Y-15500000D01*
X19100000Y-15500000D02*
X20900000Y-15500000D01*
X19100000Y-14500000D02*
X20900000Y-14500000D01*
D11*
X19355777Y-15816484D02*
X19355777Y-15616484D01*
X19355777Y-15616484D02*
X19403396Y-15616484D01*
X19403396Y-15616484D02*
X19431967Y-15626008D01*
X19431967Y-15626008D02*
X19451015Y-15645055D01*
X19451015Y-15645055D02*
X19460539Y-15664103D01*
X19460539Y-15664103D02*
X19470063Y-15702198D01*
X19470063Y-15702198D02*
X19470063Y-15730769D01*
X19470063Y-15730769D02*
X19460539Y-15768865D01*
X19460539Y-15768865D02*
X19451015Y-15787912D01*
X19451015Y-15787912D02*
X19431967Y-15806960D01*
X19431967Y-15806960D02*
X19403396Y-15816484D01*
X19403396Y-15816484D02*
X19355777Y-15816484D01*
X19555777Y-15816484D02*
X19555777Y-15683150D01*
X19555777Y-15721246D02*
X19565301Y-15702198D01*
X19565301Y-15702198D02*
X19574824Y-15692674D01*
X19574824Y-15692674D02*
X19593872Y-15683150D01*
X19593872Y-15683150D02*
X19612920Y-15683150D01*
X19679586Y-15816484D02*
X19679586Y-15683150D01*
X19679586Y-15616484D02*
X19670063Y-15626008D01*
X19670063Y-15626008D02*
X19679586Y-15635531D01*
X19679586Y-15635531D02*
X19689110Y-15626008D01*
X19689110Y-15626008D02*
X19679586Y-15616484D01*
X19679586Y-15616484D02*
X19679586Y-15635531D01*
X19803396Y-15816484D02*
X19784348Y-15806960D01*
X19784348Y-15806960D02*
X19774824Y-15787912D01*
X19774824Y-15787912D02*
X19774824Y-15616484D01*
X19908158Y-15816484D02*
X19889110Y-15806960D01*
X19889110Y-15806960D02*
X19879586Y-15787912D01*
X19879586Y-15787912D02*
X19879586Y-15616484D01*
X20136729Y-15816484D02*
X20136729Y-15616484D01*
X20136729Y-15616484D02*
X20203396Y-15759341D01*
X20203396Y-15759341D02*
X20270063Y-15616484D01*
X20270063Y-15616484D02*
X20270063Y-15816484D01*
X20451015Y-15816484D02*
X20451015Y-15711722D01*
X20451015Y-15711722D02*
X20441491Y-15692674D01*
X20441491Y-15692674D02*
X20422444Y-15683150D01*
X20422444Y-15683150D02*
X20384348Y-15683150D01*
X20384348Y-15683150D02*
X20365301Y-15692674D01*
X20451015Y-15806960D02*
X20431967Y-15816484D01*
X20431967Y-15816484D02*
X20384348Y-15816484D01*
X20384348Y-15816484D02*
X20365301Y-15806960D01*
X20365301Y-15806960D02*
X20355777Y-15787912D01*
X20355777Y-15787912D02*
X20355777Y-15768865D01*
X20355777Y-15768865D02*
X20365301Y-15749817D01*
X20365301Y-15749817D02*
X20384348Y-15740293D01*
X20384348Y-15740293D02*
X20431967Y-15740293D01*
X20431967Y-15740293D02*
X20451015Y-15730769D01*
X20546253Y-15683150D02*
X20546253Y-15883150D01*
X20546253Y-15692674D02*
X20565301Y-15683150D01*
X20565301Y-15683150D02*
X20603396Y-15683150D01*
X20603396Y-15683150D02*
X20622444Y-15692674D01*
X20622444Y-15692674D02*
X20631967Y-15702198D01*
X20631967Y-15702198D02*
X20641491Y-15721246D01*
X20641491Y-15721246D02*
X20641491Y-15778388D01*
X20641491Y-15778388D02*
X20631967Y-15797436D01*
X20631967Y-15797436D02*
X20622444Y-15806960D01*
X20622444Y-15806960D02*
X20603396Y-15816484D01*
X20603396Y-15816484D02*
X20565301Y-15816484D01*
X20565301Y-15816484D02*
X20546253Y-15806960D01*
X20727205Y-15797436D02*
X20736729Y-15806960D01*
X20736729Y-15806960D02*
X20727205Y-15816484D01*
X20727205Y-15816484D02*
X20717682Y-15806960D01*
X20717682Y-15806960D02*
X20727205Y-15797436D01*
X20727205Y-15797436D02*
X20727205Y-15816484D01*
X20727205Y-15692674D02*
X20736729Y-15702198D01*
X20736729Y-15702198D02*
X20727205Y-15711722D01*
X20727205Y-15711722D02*
X20717682Y-15702198D01*
X20717682Y-15702198D02*
X20727205Y-15692674D01*
X20727205Y-15692674D02*
X20727205Y-15711722D01*
M02*
