%TF.GenerationSoftware,KiCad,Pcbnew,(6.0.0)*%
%TF.CreationDate,2022-08-17T22:15:53+12:00*%
%TF.ProjectId,TWIST_SWITCH,54574953-545f-4535-9749-5443482e6b69,v1.1*%
%TF.SameCoordinates,Original*%
%TF.FileFunction,Copper,L4,Bot*%
%TF.FilePolarity,Positive*%
%FSLAX46Y46*%
G04 Gerber Fmt 4.6, Leading zero omitted, Abs format (unit mm)*
G04 Created by KiCad (PCBNEW (6.0.0)) date 2022-08-17 22:15:53*
%MOMM*%
%LPD*%
G01*
G04 APERTURE LIST*
%TA.AperFunction,ConnectorPad*%
%ADD10R,6.000000X8.000000*%
%TD*%
%TA.AperFunction,ComponentPad*%
%ADD11C,3.400000*%
%TD*%
%TA.AperFunction,ConnectorPad*%
%ADD12C,7.500000*%
%TD*%
%TA.AperFunction,ViaPad*%
%ADD13C,0.700000*%
%TD*%
G04 APERTURE END LIST*
D10*
%TO.P,H3,1,1*%
%TO.N,GND2*%
X212000000Y-150000000D03*
D11*
X212000000Y-150000000D03*
%TD*%
D10*
%TO.P,H1,1,1*%
%TO.N,GND1*%
X188000000Y-150000000D03*
D11*
X188000000Y-150000000D03*
%TD*%
D12*
%TO.P,H2,1,1*%
%TO.N,GND1*%
X200000000Y-150000000D03*
%TD*%
D13*
%TO.N,GND2*%
X204500000Y-152500000D03*
X205500000Y-152500000D03*
X206500000Y-152500000D03*
X206500000Y-148500000D03*
X205500000Y-148500000D03*
X204500000Y-148500000D03*
X204500000Y-149500000D03*
X204500000Y-150500000D03*
X204500000Y-151500000D03*
X205500000Y-151500000D03*
X206500000Y-151500000D03*
X208500000Y-146500000D03*
X208500000Y-149500000D03*
X208500000Y-150500000D03*
X208500000Y-151500000D03*
X208500000Y-152500000D03*
X208500000Y-153500000D03*
X207500000Y-154400000D03*
X207500000Y-153500000D03*
X207500000Y-152500000D03*
X207500000Y-151500000D03*
X207500000Y-150500000D03*
X207500000Y-149500000D03*
X207500000Y-148500000D03*
X207500000Y-145600000D03*
X207500000Y-146500000D03*
X208500000Y-148500000D03*
X204500000Y-147500000D03*
X205500000Y-147500000D03*
X206500000Y-147500000D03*
X207500000Y-147500000D03*
X208500000Y-147500000D03*
%TO.N,GND1*%
X192500000Y-154400000D03*
X192500000Y-153500000D03*
X194500000Y-151500000D03*
X193500000Y-151500000D03*
X192500000Y-151500000D03*
X192500000Y-150500000D03*
X192500000Y-149500000D03*
X193500000Y-148500000D03*
X194500000Y-148500000D03*
X195500000Y-148500000D03*
X195500000Y-149500000D03*
X195500000Y-150500000D03*
X195500000Y-151500000D03*
X195500000Y-152500000D03*
X194500000Y-152500000D03*
X193500000Y-152500000D03*
X192500000Y-152500000D03*
X191500000Y-153500000D03*
X191500000Y-152500000D03*
X191500000Y-151500000D03*
X191500000Y-150500000D03*
X191500000Y-149500000D03*
X191500000Y-148500000D03*
X192500000Y-148500000D03*
X192500000Y-145600000D03*
X192500000Y-146500000D03*
X191500000Y-146500000D03*
X195500000Y-147500000D03*
X194500000Y-147500000D03*
X193500000Y-147500000D03*
X192500000Y-147500000D03*
X191500000Y-147500000D03*
%TO.N,GND2*%
X214500000Y-153500000D03*
X209500000Y-146500000D03*
X213500000Y-151500000D03*
X212500000Y-152500000D03*
X212500000Y-146500000D03*
X209500000Y-147500000D03*
X213500000Y-147500000D03*
X209500000Y-148500000D03*
X212500000Y-147500000D03*
X210500000Y-146500000D03*
X210500000Y-147500000D03*
X209500000Y-153500000D03*
X211500000Y-146500000D03*
X214500000Y-148500000D03*
X214500000Y-151500000D03*
X213500000Y-153500000D03*
X211500000Y-153500000D03*
X214500000Y-147500000D03*
X211500000Y-152500000D03*
X210500000Y-152500000D03*
X214500000Y-152500000D03*
X213500000Y-148500000D03*
X211500000Y-147500000D03*
X214500000Y-146500000D03*
X213500000Y-152500000D03*
X209500000Y-150500000D03*
X213500000Y-146500000D03*
X214500000Y-149500000D03*
X210500000Y-148500000D03*
X209500000Y-151500000D03*
X212500000Y-153500000D03*
X210500000Y-153500000D03*
X209500000Y-149500000D03*
X209500000Y-152500000D03*
X214500000Y-150500000D03*
X210500000Y-151500000D03*
%TO.N,GND1*%
X189500000Y-146500000D03*
X187500000Y-153500000D03*
X187500000Y-147500000D03*
X187500000Y-152500000D03*
X188500000Y-152500000D03*
X185500000Y-149500000D03*
X186500000Y-147500000D03*
X190500000Y-150500000D03*
X185500000Y-151500000D03*
X185500000Y-152500000D03*
X189500000Y-147500000D03*
X185500000Y-148500000D03*
X190500000Y-152500000D03*
X186500000Y-148500000D03*
X189500000Y-152500000D03*
X186500000Y-151500000D03*
X189500000Y-148500000D03*
X186500000Y-153500000D03*
X190500000Y-153500000D03*
X188500000Y-153500000D03*
X190500000Y-147500000D03*
X189500000Y-153500000D03*
X185500000Y-150500000D03*
X190500000Y-151500000D03*
X188500000Y-146500000D03*
X188500000Y-147500000D03*
X185500000Y-153500000D03*
X186500000Y-146500000D03*
X190500000Y-146500000D03*
X190500000Y-149500000D03*
X186500000Y-152500000D03*
X190500000Y-148500000D03*
X187500000Y-146500000D03*
X185500000Y-147500000D03*
X189500000Y-151500000D03*
X185500000Y-146500000D03*
%TD*%
%TA.AperFunction,Conductor*%
%TO.N,GND2*%
G36*
X207942121Y-145220002D02*
G01*
X207988614Y-145273658D01*
X208000000Y-145326000D01*
X208000000Y-145462688D01*
X207996746Y-145491137D01*
X207994858Y-145499284D01*
X207994857Y-145500000D01*
X207996439Y-145506937D01*
X207996602Y-145508391D01*
X207998726Y-145521460D01*
X208010129Y-145637224D01*
X208050155Y-145769175D01*
X208115155Y-145890781D01*
X208119080Y-145895564D01*
X208119081Y-145895565D01*
X208198708Y-145992589D01*
X208202631Y-145997369D01*
X208309219Y-146084845D01*
X208314677Y-146087763D01*
X208314678Y-146087763D01*
X208320710Y-146090987D01*
X208430825Y-146149845D01*
X208492967Y-146168695D01*
X208556858Y-146188076D01*
X208556860Y-146188076D01*
X208562776Y-146189871D01*
X208639144Y-146197393D01*
X208677454Y-146201167D01*
X208690665Y-146203339D01*
X208692331Y-146203531D01*
X208699284Y-146205142D01*
X208700000Y-146205143D01*
X208708718Y-146203154D01*
X208736733Y-146200000D01*
X214674000Y-146200000D01*
X214742121Y-146220002D01*
X214788614Y-146273658D01*
X214800000Y-146326000D01*
X214800000Y-153674000D01*
X214779998Y-153742121D01*
X214726342Y-153788614D01*
X214674000Y-153800000D01*
X208747312Y-153800000D01*
X208718863Y-153796746D01*
X208710716Y-153794858D01*
X208710000Y-153794857D01*
X208703063Y-153796439D01*
X208701609Y-153796602D01*
X208688540Y-153798726D01*
X208636541Y-153803848D01*
X208572776Y-153810129D01*
X208566860Y-153811924D01*
X208566858Y-153811924D01*
X208525914Y-153824344D01*
X208440825Y-153850155D01*
X208319219Y-153915155D01*
X208314436Y-153919080D01*
X208314435Y-153919081D01*
X208217411Y-153998708D01*
X208212631Y-154002631D01*
X208125155Y-154109219D01*
X208060155Y-154230825D01*
X208020129Y-154362776D01*
X208019523Y-154368932D01*
X208008833Y-154477454D01*
X208006661Y-154490665D01*
X208006469Y-154492331D01*
X208004858Y-154499284D01*
X208004857Y-154500000D01*
X208006846Y-154508718D01*
X208010000Y-154536733D01*
X208010000Y-154674000D01*
X207989998Y-154742121D01*
X207936342Y-154788614D01*
X207884000Y-154800000D01*
X204226000Y-154800000D01*
X204157879Y-154779998D01*
X204111386Y-154726342D01*
X204100000Y-154674000D01*
X204100000Y-150094594D01*
X204798074Y-150094594D01*
X204799053Y-150100291D01*
X204799053Y-150100292D01*
X204803475Y-150126024D01*
X204835438Y-150312043D01*
X204911804Y-150519043D01*
X205024614Y-150708659D01*
X205170090Y-150874543D01*
X205343360Y-151011137D01*
X205538620Y-151113869D01*
X205749333Y-151179297D01*
X205755070Y-151179976D01*
X205924789Y-151200064D01*
X205924795Y-151200064D01*
X205928476Y-151200500D01*
X206055970Y-151200500D01*
X206219711Y-151185454D01*
X206225273Y-151183885D01*
X206225275Y-151183885D01*
X206325887Y-151155510D01*
X206432064Y-151125565D01*
X206629947Y-151027980D01*
X206652503Y-151011137D01*
X206802109Y-150899420D01*
X206802110Y-150899420D01*
X206806733Y-150895967D01*
X206956501Y-150733949D01*
X207074236Y-150547350D01*
X207155994Y-150342421D01*
X207199038Y-150126024D01*
X207199450Y-150094594D01*
X207201850Y-149911188D01*
X207201926Y-149905406D01*
X207200947Y-149899708D01*
X207165541Y-149693654D01*
X207165541Y-149693653D01*
X207164562Y-149687957D01*
X207088196Y-149480957D01*
X206975386Y-149291341D01*
X206829910Y-149125457D01*
X206656640Y-148988863D01*
X206461380Y-148886131D01*
X206250667Y-148820703D01*
X206220403Y-148817121D01*
X206075211Y-148799936D01*
X206075205Y-148799936D01*
X206071524Y-148799500D01*
X205944030Y-148799500D01*
X205780289Y-148814546D01*
X205774727Y-148816115D01*
X205774725Y-148816115D01*
X205674113Y-148844490D01*
X205567936Y-148874435D01*
X205370053Y-148972020D01*
X205365427Y-148975474D01*
X205365426Y-148975475D01*
X205342709Y-148992439D01*
X205193267Y-149104033D01*
X205043499Y-149266051D01*
X204925764Y-149452650D01*
X204844006Y-149657579D01*
X204800962Y-149873976D01*
X204800886Y-149879751D01*
X204800886Y-149879755D01*
X204800475Y-149911188D01*
X204798074Y-150094594D01*
X204100000Y-150094594D01*
X204100000Y-145326000D01*
X204120002Y-145257879D01*
X204173658Y-145211386D01*
X204226000Y-145200000D01*
X207874000Y-145200000D01*
X207942121Y-145220002D01*
G37*
%TD.AperFunction*%
%TD*%
%TA.AperFunction,Conductor*%
%TO.N,GND1*%
G36*
X203842121Y-145220002D02*
G01*
X203888614Y-145273658D01*
X203900000Y-145326000D01*
X203900000Y-154674000D01*
X203879998Y-154742121D01*
X203826342Y-154788614D01*
X203774000Y-154800000D01*
X192126000Y-154800000D01*
X192057879Y-154779998D01*
X192011386Y-154726342D01*
X192000000Y-154674000D01*
X192000000Y-154537312D01*
X192003254Y-154508860D01*
X192005142Y-154500716D01*
X192005143Y-154500000D01*
X192003561Y-154493063D01*
X192003398Y-154491609D01*
X192001274Y-154478540D01*
X191990477Y-154368932D01*
X191989871Y-154362776D01*
X191949845Y-154230825D01*
X191884845Y-154109219D01*
X191797369Y-154002631D01*
X191690781Y-153915155D01*
X191569175Y-153850155D01*
X191503199Y-153830142D01*
X191443142Y-153811924D01*
X191443140Y-153811924D01*
X191437224Y-153810129D01*
X191360856Y-153802607D01*
X191322546Y-153798833D01*
X191309335Y-153796661D01*
X191307669Y-153796469D01*
X191300716Y-153794858D01*
X191300000Y-153794857D01*
X191291282Y-153796846D01*
X191263267Y-153800000D01*
X185326000Y-153800000D01*
X185257879Y-153779998D01*
X185211386Y-153726342D01*
X185200000Y-153674000D01*
X185200000Y-150094594D01*
X192798074Y-150094594D01*
X192799053Y-150100291D01*
X192799053Y-150100292D01*
X192811735Y-150174095D01*
X192835438Y-150312043D01*
X192911804Y-150519043D01*
X192914756Y-150524004D01*
X192914756Y-150524005D01*
X193003622Y-150673374D01*
X193024614Y-150708659D01*
X193170090Y-150874543D01*
X193343360Y-151011137D01*
X193538620Y-151113869D01*
X193749333Y-151179297D01*
X193755070Y-151179976D01*
X193924789Y-151200064D01*
X193924795Y-151200064D01*
X193928476Y-151200500D01*
X194055970Y-151200500D01*
X194219711Y-151185454D01*
X194225273Y-151183885D01*
X194225275Y-151183885D01*
X194325887Y-151155510D01*
X194432064Y-151125565D01*
X194629947Y-151027980D01*
X194641787Y-151019139D01*
X194802109Y-150899420D01*
X194802110Y-150899420D01*
X194806733Y-150895967D01*
X194956501Y-150733949D01*
X195074236Y-150547350D01*
X195155994Y-150342421D01*
X195199038Y-150126024D01*
X195199450Y-150094594D01*
X195200938Y-149980861D01*
X195201856Y-149910741D01*
X198296833Y-149910741D01*
X198302929Y-150169390D01*
X198348078Y-150424142D01*
X198431241Y-150669133D01*
X198550505Y-150898725D01*
X198703125Y-151107636D01*
X198706499Y-151111028D01*
X198706501Y-151111030D01*
X198720960Y-151125565D01*
X198885589Y-151291058D01*
X198889435Y-151293899D01*
X198889440Y-151293903D01*
X199037012Y-151402901D01*
X199093698Y-151444770D01*
X199097928Y-151446996D01*
X199097932Y-151446998D01*
X199318426Y-151563005D01*
X199322663Y-151565234D01*
X199567215Y-151649679D01*
X199821726Y-151696161D01*
X199904519Y-151700500D01*
X200065782Y-151700500D01*
X200068161Y-151700319D01*
X200068162Y-151700319D01*
X200253209Y-151686243D01*
X200253214Y-151686242D01*
X200257976Y-151685880D01*
X200262630Y-151684801D01*
X200262632Y-151684801D01*
X200505351Y-151628542D01*
X200505350Y-151628542D01*
X200510015Y-151627461D01*
X200750318Y-151531590D01*
X200973354Y-151400473D01*
X200977065Y-151397452D01*
X200977069Y-151397449D01*
X201170279Y-151240151D01*
X201173991Y-151237129D01*
X201347613Y-151045315D01*
X201372555Y-151007561D01*
X201487584Y-150833440D01*
X201490222Y-150829447D01*
X201514113Y-150777625D01*
X201596532Y-150598843D01*
X201596533Y-150598840D01*
X201598538Y-150594491D01*
X201670068Y-150345855D01*
X201674430Y-150312043D01*
X201702556Y-150093996D01*
X201703167Y-150089259D01*
X201697071Y-149830610D01*
X201651922Y-149575858D01*
X201568759Y-149330867D01*
X201449495Y-149101275D01*
X201296875Y-148892364D01*
X201293353Y-148888823D01*
X201117786Y-148712335D01*
X201114411Y-148708942D01*
X201110565Y-148706101D01*
X201110560Y-148706097D01*
X200910154Y-148558075D01*
X200910153Y-148558074D01*
X200906302Y-148555230D01*
X200902072Y-148553004D01*
X200902068Y-148553002D01*
X200681574Y-148436995D01*
X200681572Y-148436994D01*
X200677337Y-148434766D01*
X200432785Y-148350321D01*
X200178274Y-148303839D01*
X200095481Y-148299500D01*
X199934218Y-148299500D01*
X199931839Y-148299681D01*
X199931838Y-148299681D01*
X199746791Y-148313757D01*
X199746786Y-148313758D01*
X199742024Y-148314120D01*
X199737370Y-148315199D01*
X199737368Y-148315199D01*
X199589551Y-148349461D01*
X199489985Y-148372539D01*
X199249682Y-148468410D01*
X199026646Y-148599527D01*
X199022935Y-148602548D01*
X199022931Y-148602551D01*
X198888083Y-148712335D01*
X198826009Y-148762871D01*
X198652387Y-148954685D01*
X198649746Y-148958683D01*
X198649745Y-148958684D01*
X198609807Y-149019139D01*
X198509778Y-149170553D01*
X198507777Y-149174893D01*
X198507775Y-149174897D01*
X198403468Y-149401157D01*
X198401462Y-149405509D01*
X198329932Y-149654145D01*
X198329321Y-149658883D01*
X198329320Y-149658887D01*
X198314004Y-149777625D01*
X198296833Y-149910741D01*
X195201856Y-149910741D01*
X195201926Y-149905406D01*
X195199729Y-149892621D01*
X195165541Y-149693654D01*
X195165541Y-149693653D01*
X195164562Y-149687957D01*
X195088196Y-149480957D01*
X195014027Y-149356291D01*
X194978340Y-149296306D01*
X194978339Y-149296305D01*
X194975386Y-149291341D01*
X194829910Y-149125457D01*
X194656640Y-148988863D01*
X194461380Y-148886131D01*
X194250667Y-148820703D01*
X194236718Y-148819052D01*
X194075211Y-148799936D01*
X194075205Y-148799936D01*
X194071524Y-148799500D01*
X193944030Y-148799500D01*
X193780289Y-148814546D01*
X193774727Y-148816115D01*
X193774725Y-148816115D01*
X193674113Y-148844490D01*
X193567936Y-148874435D01*
X193370053Y-148972020D01*
X193365427Y-148975474D01*
X193365426Y-148975475D01*
X193342709Y-148992439D01*
X193193267Y-149104033D01*
X193043499Y-149266051D01*
X192925764Y-149452650D01*
X192844006Y-149657579D01*
X192800962Y-149873976D01*
X192800886Y-149879751D01*
X192800886Y-149879755D01*
X192800475Y-149911188D01*
X192798074Y-150094594D01*
X185200000Y-150094594D01*
X185200000Y-146326000D01*
X185220002Y-146257879D01*
X185273658Y-146211386D01*
X185326000Y-146200000D01*
X191262688Y-146200000D01*
X191291137Y-146203254D01*
X191299284Y-146205142D01*
X191300000Y-146205143D01*
X191306937Y-146203561D01*
X191308391Y-146203398D01*
X191321460Y-146201274D01*
X191373459Y-146196152D01*
X191437224Y-146189871D01*
X191443140Y-146188076D01*
X191443142Y-146188076D01*
X191503200Y-146169858D01*
X191569175Y-146149845D01*
X191690781Y-146084845D01*
X191738785Y-146045449D01*
X191792589Y-146001292D01*
X191797369Y-145997369D01*
X191884845Y-145890781D01*
X191949845Y-145769175D01*
X191989871Y-145637224D01*
X192001167Y-145522546D01*
X192003339Y-145509335D01*
X192003531Y-145507669D01*
X192005142Y-145500716D01*
X192005143Y-145500000D01*
X192003154Y-145491282D01*
X192000000Y-145463267D01*
X192000000Y-145326000D01*
X192020002Y-145257879D01*
X192073658Y-145211386D01*
X192126000Y-145200000D01*
X203774000Y-145200000D01*
X203842121Y-145220002D01*
G37*
%TD.AperFunction*%
%TD*%
M02*
