M48
; DRILL file {KiCad 7.0.2} date Wed Sep 13 12:46:11 2023
; FORMAT={-:-/ absolute / metric / decimal}
; #@! TF.CreationDate,2023-09-13T12:46:11+12:00
; #@! TF.GenerationSoftware,Kicad,Pcbnew,7.0.2
; #@! TF.FileFunction,Plated,1,4,PTH
FMAT,2
METRIC
; #@! TA.AperFunction,Plated,PTH,ViaDrill
T1C0.300
; #@! TA.AperFunction,Plated,PTH,ComponentDrill
T2C3.000
%
G90
G05
T1
X185.5Y-146.5
X185.5Y-147.5
X185.5Y-148.5
X185.5Y-149.5
X185.5Y-150.5
X185.5Y-151.5
X185.5Y-152.5
X185.5Y-153.5
X186.5Y-146.5
X186.5Y-147.5
X186.5Y-148.5
X186.5Y-151.5
X186.5Y-152.5
X186.5Y-153.5
X187.5Y-146.5
X187.5Y-147.5
X187.5Y-152.5
X187.5Y-153.5
X188.5Y-146.5
X188.5Y-147.5
X188.5Y-152.5
X188.5Y-153.5
X189.5Y-146.5
X189.5Y-147.5
X189.5Y-148.5
X189.5Y-151.5
X189.5Y-152.5
X189.5Y-153.5
X190.5Y-146.5
X190.5Y-147.5
X190.5Y-148.5
X190.5Y-149.5
X190.5Y-150.5
X190.5Y-151.5
X190.5Y-152.5
X190.5Y-153.5
X191.5Y-146.5
X191.5Y-147.5
X191.5Y-148.5
X191.5Y-149.5
X191.5Y-150.5
X191.5Y-151.5
X191.5Y-152.5
X191.5Y-153.5
X192.5Y-145.6
X192.5Y-146.5
X192.5Y-147.5
X192.5Y-148.5
X192.5Y-149.5
X192.5Y-150.5
X192.5Y-151.5
X192.5Y-152.5
X192.5Y-153.5
X192.5Y-154.4
X193.5Y-147.5
X193.5Y-148.5
X193.5Y-151.5
X193.5Y-152.5
X194.5Y-147.5
X194.5Y-148.5
X194.5Y-151.5
X194.5Y-152.5
X195.5Y-147.5
X195.5Y-148.5
X195.5Y-149.5
X195.5Y-150.5
X195.5Y-151.5
X195.5Y-152.5
X204.5Y-147.5
X204.5Y-148.5
X204.5Y-149.5
X204.5Y-150.5
X204.5Y-151.5
X204.5Y-152.5
X205.5Y-147.5
X205.5Y-148.5
X205.5Y-151.5
X205.5Y-152.5
X206.5Y-147.5
X206.5Y-148.5
X206.5Y-151.5
X206.5Y-152.5
X207.5Y-145.6
X207.5Y-146.5
X207.5Y-147.5
X207.5Y-148.5
X207.5Y-149.5
X207.5Y-150.5
X207.5Y-151.5
X207.5Y-152.5
X207.5Y-153.5
X207.5Y-154.4
X208.5Y-146.5
X208.5Y-147.5
X208.5Y-148.5
X208.5Y-149.5
X208.5Y-150.5
X208.5Y-151.5
X208.5Y-152.5
X208.5Y-153.5
X209.5Y-146.5
X209.5Y-147.5
X209.5Y-148.5
X209.5Y-149.5
X209.5Y-150.5
X209.5Y-151.5
X209.5Y-152.5
X209.5Y-153.5
X210.5Y-146.5
X210.5Y-147.5
X210.5Y-148.5
X210.5Y-151.5
X210.5Y-152.5
X210.5Y-153.5
X211.5Y-146.5
X211.5Y-147.5
X211.5Y-152.5
X211.5Y-153.5
X212.5Y-146.5
X212.5Y-147.5
X212.5Y-152.5
X212.5Y-153.5
X213.5Y-146.5
X213.5Y-147.5
X213.5Y-148.5
X213.5Y-151.5
X213.5Y-152.5
X213.5Y-153.5
X214.5Y-146.5
X214.5Y-147.5
X214.5Y-148.5
X214.5Y-149.5
X214.5Y-150.5
X214.5Y-151.5
X214.5Y-152.5
X214.5Y-153.5
T2
X188.0Y-150.0
X212.0Y-150.0
T0
M30
