%TF.GenerationSoftware,KiCad,Pcbnew,7.0.2*%
%TF.CreationDate,2023-09-13T12:46:08+12:00*%
%TF.ProjectId,TWIST_SWITCH,54574953-545f-4535-9749-5443482e6b69,v1.1*%
%TF.SameCoordinates,Original*%
%TF.FileFunction,Copper,L2,Inr*%
%TF.FilePolarity,Positive*%
%FSLAX46Y46*%
G04 Gerber Fmt 4.6, Leading zero omitted, Abs format (unit mm)*
G04 Created by KiCad (PCBNEW 7.0.2) date 2023-09-13 12:46:08*
%MOMM*%
%LPD*%
G01*
G04 APERTURE LIST*
%TA.AperFunction,ComponentPad*%
%ADD10C,3.400000*%
%TD*%
%TA.AperFunction,ViaPad*%
%ADD11C,0.700000*%
%TD*%
G04 APERTURE END LIST*
D10*
%TO.N,GND2*%
%TO.C,H3*%
X212000000Y-150000000D03*
%TD*%
%TO.N,GND1*%
%TO.C,H1*%
X188000000Y-150000000D03*
%TD*%
D11*
%TO.N,GND2*%
X207500000Y-146500000D03*
X214500000Y-153500000D03*
X204500000Y-150500000D03*
X208500000Y-147500000D03*
X207500000Y-145600000D03*
X207500000Y-151500000D03*
X209500000Y-146500000D03*
X206500000Y-148500000D03*
X208500000Y-152500000D03*
X213500000Y-151500000D03*
X208500000Y-150500000D03*
X212500000Y-152500000D03*
X212500000Y-146500000D03*
X209500000Y-147500000D03*
X213500000Y-147500000D03*
X209500000Y-148500000D03*
X212500000Y-147500000D03*
X210500000Y-146500000D03*
X204500000Y-151500000D03*
X207500000Y-152500000D03*
X207500000Y-150500000D03*
X210500000Y-147500000D03*
X205500000Y-147500000D03*
X209500000Y-153500000D03*
X211500000Y-146500000D03*
X205500000Y-151500000D03*
X214500000Y-148500000D03*
X214500000Y-151500000D03*
X213500000Y-153500000D03*
X211500000Y-153500000D03*
X204500000Y-152500000D03*
X204500000Y-149500000D03*
X208500000Y-148500000D03*
X206500000Y-147500000D03*
X207500000Y-147500000D03*
X214500000Y-147500000D03*
X211500000Y-152500000D03*
X210500000Y-152500000D03*
X206500000Y-151500000D03*
X214500000Y-152500000D03*
X213500000Y-148500000D03*
X211500000Y-147500000D03*
X208500000Y-153500000D03*
X207500000Y-154400000D03*
X204500000Y-147500000D03*
X205500000Y-152500000D03*
X208500000Y-146500000D03*
X214500000Y-146500000D03*
X207500000Y-149500000D03*
X208500000Y-151500000D03*
X207500000Y-153500000D03*
X205500000Y-148500000D03*
X213500000Y-152500000D03*
X209500000Y-150500000D03*
X213500000Y-146500000D03*
X207500000Y-148500000D03*
X208500000Y-149500000D03*
X214500000Y-149500000D03*
X210500000Y-148500000D03*
X204500000Y-148500000D03*
X209500000Y-151500000D03*
X212500000Y-153500000D03*
X210500000Y-153500000D03*
X209500000Y-149500000D03*
X206500000Y-152500000D03*
X209500000Y-152500000D03*
X214500000Y-150500000D03*
X210500000Y-151500000D03*
%TO.N,GND1*%
X189500000Y-146500000D03*
X194500000Y-151500000D03*
X187500000Y-153500000D03*
X187500000Y-147500000D03*
X191500000Y-151500000D03*
X187500000Y-152500000D03*
X188500000Y-152500000D03*
X185500000Y-149500000D03*
X193500000Y-148500000D03*
X192500000Y-148500000D03*
X186500000Y-147500000D03*
X190500000Y-150500000D03*
X193500000Y-147500000D03*
X192500000Y-150500000D03*
X191500000Y-149500000D03*
X185500000Y-151500000D03*
X195500000Y-151500000D03*
X185500000Y-152500000D03*
X194500000Y-148500000D03*
X192500000Y-147500000D03*
X192500000Y-145600000D03*
X194500000Y-152500000D03*
X189500000Y-147500000D03*
X185500000Y-148500000D03*
X195500000Y-148500000D03*
X191500000Y-147500000D03*
X192500000Y-149500000D03*
X195500000Y-152500000D03*
X190500000Y-152500000D03*
X186500000Y-148500000D03*
X189500000Y-152500000D03*
X186500000Y-151500000D03*
X189500000Y-148500000D03*
X191500000Y-153500000D03*
X192500000Y-152500000D03*
X191500000Y-148500000D03*
X192500000Y-154400000D03*
X186500000Y-153500000D03*
X190500000Y-153500000D03*
X188500000Y-153500000D03*
X190500000Y-147500000D03*
X189500000Y-153500000D03*
X185500000Y-150500000D03*
X190500000Y-151500000D03*
X188500000Y-146500000D03*
X188500000Y-147500000D03*
X191500000Y-152500000D03*
X192500000Y-153500000D03*
X194500000Y-147500000D03*
X185500000Y-153500000D03*
X186500000Y-146500000D03*
X193500000Y-151500000D03*
X190500000Y-146500000D03*
X190500000Y-149500000D03*
X186500000Y-152500000D03*
X195500000Y-149500000D03*
X190500000Y-148500000D03*
X191500000Y-150500000D03*
X187500000Y-146500000D03*
X191500000Y-146500000D03*
X195500000Y-150500000D03*
X193500000Y-152500000D03*
X185500000Y-147500000D03*
X192500000Y-151500000D03*
X189500000Y-151500000D03*
X195500000Y-147500000D03*
X185500000Y-146500000D03*
X192500000Y-146500000D03*
%TD*%
%TA.AperFunction,Conductor*%
%TO.N,GND1*%
G36*
X195836621Y-145220502D02*
G01*
X195883114Y-145274158D01*
X195894500Y-145326500D01*
X195894500Y-154673500D01*
X195874498Y-154741621D01*
X195820842Y-154788114D01*
X195768500Y-154799500D01*
X192126500Y-154799500D01*
X192058379Y-154779498D01*
X192011886Y-154725842D01*
X192000500Y-154673500D01*
X192000500Y-154431006D01*
X191973580Y-154295672D01*
X191943983Y-154224219D01*
X191920775Y-154168189D01*
X191844114Y-154053458D01*
X191844112Y-154053455D01*
X191746544Y-153955887D01*
X191631811Y-153879225D01*
X191504327Y-153826419D01*
X191368993Y-153799500D01*
X191332590Y-153799500D01*
X185326500Y-153799500D01*
X185258379Y-153779498D01*
X185211886Y-153725842D01*
X185200500Y-153673500D01*
X185200500Y-150111243D01*
X192799500Y-150111243D01*
X192825246Y-150248969D01*
X192840382Y-150329940D01*
X192920754Y-150537405D01*
X193037873Y-150726558D01*
X193037874Y-150726559D01*
X193037876Y-150726562D01*
X193187764Y-150890981D01*
X193365311Y-151025058D01*
X193564472Y-151124229D01*
X193778464Y-151185115D01*
X193817360Y-151188719D01*
X193941580Y-151200230D01*
X193941586Y-151200230D01*
X193944497Y-151200500D01*
X193947410Y-151200500D01*
X194052590Y-151200500D01*
X194055503Y-151200500D01*
X194058414Y-151200230D01*
X194058419Y-151200230D01*
X194143743Y-151192323D01*
X194221536Y-151185115D01*
X194435528Y-151124229D01*
X194634689Y-151025058D01*
X194812236Y-150890981D01*
X194962124Y-150726562D01*
X195039132Y-150602189D01*
X195079245Y-150537405D01*
X195079247Y-150537401D01*
X195159618Y-150329940D01*
X195200500Y-150111243D01*
X195200500Y-149888757D01*
X195159618Y-149670060D01*
X195079247Y-149462599D01*
X195079246Y-149462598D01*
X195079245Y-149462594D01*
X194962126Y-149273441D01*
X194962125Y-149273440D01*
X194962124Y-149273438D01*
X194812236Y-149109019D01*
X194634689Y-148974942D01*
X194634688Y-148974942D01*
X194435527Y-148875770D01*
X194221534Y-148814884D01*
X194058419Y-148799769D01*
X194058393Y-148799767D01*
X194055503Y-148799500D01*
X193944497Y-148799500D01*
X193941607Y-148799767D01*
X193941580Y-148799769D01*
X193778465Y-148814884D01*
X193564472Y-148875770D01*
X193365310Y-148974942D01*
X193187765Y-149109018D01*
X193037873Y-149273441D01*
X192920754Y-149462594D01*
X192840382Y-149670059D01*
X192826754Y-149742958D01*
X192799500Y-149888757D01*
X192799500Y-150111243D01*
X185200500Y-150111243D01*
X185200500Y-146326500D01*
X185220502Y-146258379D01*
X185274158Y-146211886D01*
X185326500Y-146200500D01*
X191368993Y-146200500D01*
X191504328Y-146173580D01*
X191631811Y-146120775D01*
X191746542Y-146044114D01*
X191844114Y-145946542D01*
X191920775Y-145831811D01*
X191973580Y-145704328D01*
X192000500Y-145568993D01*
X192000500Y-145500000D01*
X192000500Y-145460118D01*
X192000500Y-145326499D01*
X192020502Y-145258379D01*
X192074158Y-145211886D01*
X192126500Y-145200500D01*
X195768500Y-145200500D01*
X195836621Y-145220502D01*
G37*
%TD.AperFunction*%
%TD*%
%TA.AperFunction,Conductor*%
%TO.N,GND2*%
G36*
X207941621Y-145220502D02*
G01*
X207988114Y-145274158D01*
X207999500Y-145326500D01*
X207999500Y-145568993D01*
X208026419Y-145704327D01*
X208079225Y-145831811D01*
X208155887Y-145946544D01*
X208253455Y-146044112D01*
X208253458Y-146044114D01*
X208368189Y-146120775D01*
X208495672Y-146173580D01*
X208631007Y-146200500D01*
X208677410Y-146200500D01*
X214673500Y-146200500D01*
X214741621Y-146220502D01*
X214788114Y-146274158D01*
X214799500Y-146326500D01*
X214799500Y-153673500D01*
X214779498Y-153741621D01*
X214725842Y-153788114D01*
X214673500Y-153799500D01*
X208641007Y-153799500D01*
X208505672Y-153826419D01*
X208378188Y-153879225D01*
X208263455Y-153955887D01*
X208165887Y-154053455D01*
X208089225Y-154168188D01*
X208036419Y-154295672D01*
X208009500Y-154431006D01*
X208009500Y-154673500D01*
X207989498Y-154741621D01*
X207935842Y-154788114D01*
X207883500Y-154799500D01*
X196226000Y-154799500D01*
X196157879Y-154779498D01*
X196111386Y-154725842D01*
X196100000Y-154673500D01*
X196100000Y-150000000D01*
X198044517Y-150000000D01*
X198064422Y-150278298D01*
X198123726Y-150550916D01*
X198123729Y-150550923D01*
X198221231Y-150812337D01*
X198323703Y-151000000D01*
X198354945Y-151057215D01*
X198522146Y-151280570D01*
X198719429Y-151477853D01*
X198940988Y-151643709D01*
X198942787Y-151645056D01*
X199187663Y-151778769D01*
X199449077Y-151876271D01*
X199449078Y-151876271D01*
X199449083Y-151876273D01*
X199721701Y-151935577D01*
X199721706Y-151935578D01*
X199930343Y-151950500D01*
X199932600Y-151950500D01*
X200067400Y-151950500D01*
X200069657Y-151950500D01*
X200278294Y-151935578D01*
X200336608Y-151922892D01*
X200550916Y-151876273D01*
X200550919Y-151876271D01*
X200550923Y-151876271D01*
X200812337Y-151778769D01*
X201057213Y-151645056D01*
X201280568Y-151477855D01*
X201477855Y-151280568D01*
X201645056Y-151057213D01*
X201778769Y-150812337D01*
X201876271Y-150550923D01*
X201935578Y-150278294D01*
X201947526Y-150111243D01*
X204799500Y-150111243D01*
X204830728Y-150278294D01*
X204840382Y-150329940D01*
X204920754Y-150537405D01*
X205037873Y-150726558D01*
X205037874Y-150726559D01*
X205037876Y-150726562D01*
X205187764Y-150890981D01*
X205365311Y-151025058D01*
X205564472Y-151124229D01*
X205778464Y-151185115D01*
X205817360Y-151188719D01*
X205941580Y-151200230D01*
X205941586Y-151200230D01*
X205944497Y-151200500D01*
X205947410Y-151200500D01*
X206052590Y-151200500D01*
X206055503Y-151200500D01*
X206058414Y-151200230D01*
X206058419Y-151200230D01*
X206143743Y-151192323D01*
X206221536Y-151185115D01*
X206435528Y-151124229D01*
X206634689Y-151025058D01*
X206812236Y-150890981D01*
X206962124Y-150726562D01*
X207079247Y-150537401D01*
X207159618Y-150329940D01*
X207200500Y-150111243D01*
X207200500Y-149888757D01*
X207159618Y-149670060D01*
X207079247Y-149462599D01*
X207079246Y-149462598D01*
X207079245Y-149462594D01*
X206962126Y-149273441D01*
X206962125Y-149273440D01*
X206962124Y-149273438D01*
X206812236Y-149109019D01*
X206634689Y-148974942D01*
X206634688Y-148974942D01*
X206435527Y-148875770D01*
X206221534Y-148814884D01*
X206058419Y-148799769D01*
X206058393Y-148799767D01*
X206055503Y-148799500D01*
X205944497Y-148799500D01*
X205941607Y-148799767D01*
X205941580Y-148799769D01*
X205778465Y-148814884D01*
X205564472Y-148875770D01*
X205365310Y-148974942D01*
X205187765Y-149109018D01*
X205037873Y-149273441D01*
X204920754Y-149462594D01*
X204840382Y-149670059D01*
X204830728Y-149721706D01*
X204799500Y-149888757D01*
X204799500Y-150111243D01*
X201947526Y-150111243D01*
X201955482Y-150000000D01*
X201935578Y-149721706D01*
X201879213Y-149462599D01*
X201876273Y-149449083D01*
X201876271Y-149449077D01*
X201778769Y-149187663D01*
X201645056Y-148942787D01*
X201607503Y-148892621D01*
X201477853Y-148719429D01*
X201280570Y-148522146D01*
X201057215Y-148354945D01*
X201015917Y-148332395D01*
X200812337Y-148221231D01*
X200651028Y-148161066D01*
X200550916Y-148123726D01*
X200278298Y-148064422D01*
X200071907Y-148049660D01*
X200071881Y-148049659D01*
X200069657Y-148049500D01*
X199930343Y-148049500D01*
X199928119Y-148049659D01*
X199928092Y-148049660D01*
X199721701Y-148064422D01*
X199449083Y-148123726D01*
X199253016Y-148196855D01*
X199187663Y-148221231D01*
X199187661Y-148221231D01*
X199187661Y-148221232D01*
X198942784Y-148354945D01*
X198719429Y-148522146D01*
X198522146Y-148719429D01*
X198354945Y-148942784D01*
X198221232Y-149187661D01*
X198123726Y-149449083D01*
X198064422Y-149721701D01*
X198044517Y-150000000D01*
X196100000Y-150000000D01*
X196100000Y-145326500D01*
X196120002Y-145258379D01*
X196173658Y-145211886D01*
X196226000Y-145200500D01*
X207873500Y-145200500D01*
X207941621Y-145220502D01*
G37*
%TD.AperFunction*%
%TD*%
M02*
