  0
SECTION
  2
HEADER
  9
$ANGBASE
  50
0.0
  9
$ANGDIR
  70
1
  9
$MEASUREMENT
  70
1
  0
ENDSEC
  0
SECTION
  2
TABLES
  0
TABLE
  2
LTYPE
  70
4
  0
LTYPE
  5
40F
  2
CONTINUOUS
  70
0
  3
Solid line
  72
65
  73
0
  40
0.0
  0
LTYPE
  5
410
  2
DASHDOT
 70
0
  3
Dash Dot ____ _ ____ _
 72
65
 73
4
 40
2.0
 49
1.25
 49
-0.25
 49
0.25
 49
-0.25
  0
LTYPE
  5
411
  2
DASHED
 70
0
  3
Dashed __ __ __ __ __
 72
65
 73
2
 40
0.75
 49
0.5
 49
-0.25
  0
LTYPE
  5
43B
  2
DOTTED
 70
0
  3
Dotted .  .  .  .
 72
65
 73
2
 40
0.2
 49
0.0
 49
-0.2
  0
ENDTAB
  0
TABLE
  2
STYLE
  70
4
  0
STYLE
  2
KICAD
  70
0
  40
0
  41
1
  42
1
  50
0
  71
0
  3
isocp.shx
  0
STYLE
  2
KICADB
  70
0
  40
0
  41
1
  42
1
  50
0
  71
0
  3
isocp.shx
  0
STYLE
  2
KICADI
  70
0
  40
0
  41
1
  42
1
  50
15
  71
0
  3
isocp.shx
  0
STYLE
  2
KICADBI
  70
0
  40
0
  41
1
  42
1
  50
15
  71
0
  3
isocp.shx
  0
ENDTAB
  0
TABLE
  2
LAYER
  70
1
  0
LAYER
  2
BLACK
  70
0
  62
7
  6
CONTINUOUS
  0
ENDTAB
  0
ENDSEC
  0
SECTION
  2
ENTITIES
0
LINE
8
BLACK
6
CONTINUOUS
10
215
20
-154
11
208.7
21
-154
0
LINE
8
BLACK
6
CONTINUOUS
10
185
20
-154
11
185
21
-146
0
LINE
8
BLACK
6
CONTINUOUS
10
208.21
20
-155
11
208.21
21
-154.5
0
LINE
8
BLACK
6
CONTINUOUS
10
208.2
20
-145
11
208.2
21
-145.5
0
LINE
8
BLACK
6
CONTINUOUS
10
215
20
-146
11
208.7
21
-146
0
LINE
8
BLACK
6
CONTINUOUS
10
191.3
20
-146
11
185
21
-146
0
LINE
8
BLACK
6
CONTINUOUS
10
191.8
20
-145.5
11
191.8
21
-145
0
ARC
8
BLACK
10
191.3
20
-154.5
40
0.5
50
-0
51
90
0
LINE
8
BLACK
6
CONTINUOUS
10
191.8
20
-154.5
11
191.8
21
-155
0
LINE
8
BLACK
6
CONTINUOUS
10
215
20
-146
11
215
21
-154
0
LINE
8
BLACK
6
CONTINUOUS
10
191.8
20
-155
11
208.21
21
-155
0
ARC
8
BLACK
10
208.71
20
-154.5
40
0.5
50
90
51
180
0
LINE
8
BLACK
6
CONTINUOUS
10
191.8
20
-145
11
208.2
21
-145
0
ARC
8
BLACK
10
208.7
20
-145.5
40
0.5
50
-180
51
-90
0
LINE
8
BLACK
6
CONTINUOUS
10
191.31
20
-154
11
185.01
21
-154
0
ARC
8
BLACK
10
191.3
20
-145.5
40
0.5
50
-90
51
-0
0
LINE
8
BLACK
6
CONTINUOUS
10
185.35
20
-146.35
11
185.65
21
-146.65
0
LINE
8
BLACK
6
CONTINUOUS
10
185.65
20
-146.35
11
185.35
21
-146.65
0
LINE
8
BLACK
6
CONTINUOUS
10
185.35
20
-147.35
11
185.65
21
-147.65
0
LINE
8
BLACK
6
CONTINUOUS
10
185.65
20
-147.35
11
185.35
21
-147.65
0
LINE
8
BLACK
6
CONTINUOUS
10
185.35
20
-148.35
11
185.65
21
-148.65
0
LINE
8
BLACK
6
CONTINUOUS
10
185.65
20
-148.35
11
185.35
21
-148.65
0
LINE
8
BLACK
6
CONTINUOUS
10
185.35
20
-149.35
11
185.65
21
-149.65
0
LINE
8
BLACK
6
CONTINUOUS
10
185.65
20
-149.35
11
185.35
21
-149.65
0
LINE
8
BLACK
6
CONTINUOUS
10
185.35
20
-150.35
11
185.65
21
-150.65
0
LINE
8
BLACK
6
CONTINUOUS
10
185.65
20
-150.35
11
185.35
21
-150.65
0
LINE
8
BLACK
6
CONTINUOUS
10
185.35
20
-151.35
11
185.65
21
-151.65
0
LINE
8
BLACK
6
CONTINUOUS
10
185.65
20
-151.35
11
185.35
21
-151.65
0
LINE
8
BLACK
6
CONTINUOUS
10
185.35
20
-152.35
11
185.65
21
-152.65
0
LINE
8
BLACK
6
CONTINUOUS
10
185.65
20
-152.35
11
185.35
21
-152.65
0
LINE
8
BLACK
6
CONTINUOUS
10
185.35
20
-153.35
11
185.65
21
-153.65
0
LINE
8
BLACK
6
CONTINUOUS
10
185.65
20
-153.35
11
185.35
21
-153.65
0
LINE
8
BLACK
6
CONTINUOUS
10
186.35
20
-146.35
11
186.65
21
-146.65
0
LINE
8
BLACK
6
CONTINUOUS
10
186.65
20
-146.35
11
186.35
21
-146.65
0
LINE
8
BLACK
6
CONTINUOUS
10
186.35
20
-147.35
11
186.65
21
-147.65
0
LINE
8
BLACK
6
CONTINUOUS
10
186.65
20
-147.35
11
186.35
21
-147.65
0
LINE
8
BLACK
6
CONTINUOUS
10
186.35
20
-148.35
11
186.65
21
-148.65
0
LINE
8
BLACK
6
CONTINUOUS
10
186.65
20
-148.35
11
186.35
21
-148.65
0
LINE
8
BLACK
6
CONTINUOUS
10
186.35
20
-151.35
11
186.65
21
-151.65
0
LINE
8
BLACK
6
CONTINUOUS
10
186.65
20
-151.35
11
186.35
21
-151.65
0
LINE
8
BLACK
6
CONTINUOUS
10
186.35
20
-152.35
11
186.65
21
-152.65
0
LINE
8
BLACK
6
CONTINUOUS
10
186.65
20
-152.35
11
186.35
21
-152.65
0
LINE
8
BLACK
6
CONTINUOUS
10
186.35
20
-153.35
11
186.65
21
-153.65
0
LINE
8
BLACK
6
CONTINUOUS
10
186.65
20
-153.35
11
186.35
21
-153.65
0
LINE
8
BLACK
6
CONTINUOUS
10
187.35
20
-146.35
11
187.65
21
-146.65
0
LINE
8
BLACK
6
CONTINUOUS
10
187.65
20
-146.35
11
187.35
21
-146.65
0
LINE
8
BLACK
6
CONTINUOUS
10
187.35
20
-147.35
11
187.65
21
-147.65
0
LINE
8
BLACK
6
CONTINUOUS
10
187.65
20
-147.35
11
187.35
21
-147.65
0
LINE
8
BLACK
6
CONTINUOUS
10
187.35
20
-152.35
11
187.65
21
-152.65
0
LINE
8
BLACK
6
CONTINUOUS
10
187.65
20
-152.35
11
187.35
21
-152.65
0
LINE
8
BLACK
6
CONTINUOUS
10
187.35
20
-153.35
11
187.65
21
-153.65
0
LINE
8
BLACK
6
CONTINUOUS
10
187.65
20
-153.35
11
187.35
21
-153.65
0
LINE
8
BLACK
6
CONTINUOUS
10
188.35
20
-146.35
11
188.65
21
-146.65
0
LINE
8
BLACK
6
CONTINUOUS
10
188.65
20
-146.35
11
188.35
21
-146.65
0
LINE
8
BLACK
6
CONTINUOUS
10
188.35
20
-147.35
11
188.65
21
-147.65
0
LINE
8
BLACK
6
CONTINUOUS
10
188.65
20
-147.35
11
188.35
21
-147.65
0
LINE
8
BLACK
6
CONTINUOUS
10
188.35
20
-152.35
11
188.65
21
-152.65
0
LINE
8
BLACK
6
CONTINUOUS
10
188.65
20
-152.35
11
188.35
21
-152.65
0
LINE
8
BLACK
6
CONTINUOUS
10
188.35
20
-153.35
11
188.65
21
-153.65
0
LINE
8
BLACK
6
CONTINUOUS
10
188.65
20
-153.35
11
188.35
21
-153.65
0
LINE
8
BLACK
6
CONTINUOUS
10
189.35
20
-146.35
11
189.65
21
-146.65
0
LINE
8
BLACK
6
CONTINUOUS
10
189.65
20
-146.35
11
189.35
21
-146.65
0
LINE
8
BLACK
6
CONTINUOUS
10
189.35
20
-147.35
11
189.65
21
-147.65
0
LINE
8
BLACK
6
CONTINUOUS
10
189.65
20
-147.35
11
189.35
21
-147.65
0
LINE
8
BLACK
6
CONTINUOUS
10
189.35
20
-148.35
11
189.65
21
-148.65
0
LINE
8
BLACK
6
CONTINUOUS
10
189.65
20
-148.35
11
189.35
21
-148.65
0
LINE
8
BLACK
6
CONTINUOUS
10
189.35
20
-151.35
11
189.65
21
-151.65
0
LINE
8
BLACK
6
CONTINUOUS
10
189.65
20
-151.35
11
189.35
21
-151.65
0
LINE
8
BLACK
6
CONTINUOUS
10
189.35
20
-152.35
11
189.65
21
-152.65
0
LINE
8
BLACK
6
CONTINUOUS
10
189.65
20
-152.35
11
189.35
21
-152.65
0
LINE
8
BLACK
6
CONTINUOUS
10
189.35
20
-153.35
11
189.65
21
-153.65
0
LINE
8
BLACK
6
CONTINUOUS
10
189.65
20
-153.35
11
189.35
21
-153.65
0
LINE
8
BLACK
6
CONTINUOUS
10
190.35
20
-146.35
11
190.65
21
-146.65
0
LINE
8
BLACK
6
CONTINUOUS
10
190.65
20
-146.35
11
190.35
21
-146.65
0
LINE
8
BLACK
6
CONTINUOUS
10
190.35
20
-147.35
11
190.65
21
-147.65
0
LINE
8
BLACK
6
CONTINUOUS
10
190.65
20
-147.35
11
190.35
21
-147.65
0
LINE
8
BLACK
6
CONTINUOUS
10
190.35
20
-148.35
11
190.65
21
-148.65
0
LINE
8
BLACK
6
CONTINUOUS
10
190.65
20
-148.35
11
190.35
21
-148.65
0
LINE
8
BLACK
6
CONTINUOUS
10
190.35
20
-149.35
11
190.65
21
-149.65
0
LINE
8
BLACK
6
CONTINUOUS
10
190.65
20
-149.35
11
190.35
21
-149.65
0
LINE
8
BLACK
6
CONTINUOUS
10
190.35
20
-150.35
11
190.65
21
-150.65
0
LINE
8
BLACK
6
CONTINUOUS
10
190.65
20
-150.35
11
190.35
21
-150.65
0
LINE
8
BLACK
6
CONTINUOUS
10
190.35
20
-151.35
11
190.65
21
-151.65
0
LINE
8
BLACK
6
CONTINUOUS
10
190.65
20
-151.35
11
190.35
21
-151.65
0
LINE
8
BLACK
6
CONTINUOUS
10
190.35
20
-152.35
11
190.65
21
-152.65
0
LINE
8
BLACK
6
CONTINUOUS
10
190.65
20
-152.35
11
190.35
21
-152.65
0
LINE
8
BLACK
6
CONTINUOUS
10
190.35
20
-153.35
11
190.65
21
-153.65
0
LINE
8
BLACK
6
CONTINUOUS
10
190.65
20
-153.35
11
190.35
21
-153.65
0
LINE
8
BLACK
6
CONTINUOUS
10
191.35
20
-146.35
11
191.65
21
-146.65
0
LINE
8
BLACK
6
CONTINUOUS
10
191.65
20
-146.35
11
191.35
21
-146.65
0
LINE
8
BLACK
6
CONTINUOUS
10
191.35
20
-147.35
11
191.65
21
-147.65
0
LINE
8
BLACK
6
CONTINUOUS
10
191.65
20
-147.35
11
191.35
21
-147.65
0
LINE
8
BLACK
6
CONTINUOUS
10
191.35
20
-148.35
11
191.65
21
-148.65
0
LINE
8
BLACK
6
CONTINUOUS
10
191.65
20
-148.35
11
191.35
21
-148.65
0
LINE
8
BLACK
6
CONTINUOUS
10
191.35
20
-149.35
11
191.65
21
-149.65
0
LINE
8
BLACK
6
CONTINUOUS
10
191.65
20
-149.35
11
191.35
21
-149.65
0
LINE
8
BLACK
6
CONTINUOUS
10
191.35
20
-150.35
11
191.65
21
-150.65
0
LINE
8
BLACK
6
CONTINUOUS
10
191.65
20
-150.35
11
191.35
21
-150.65
0
LINE
8
BLACK
6
CONTINUOUS
10
191.35
20
-151.35
11
191.65
21
-151.65
0
LINE
8
BLACK
6
CONTINUOUS
10
191.65
20
-151.35
11
191.35
21
-151.65
0
LINE
8
BLACK
6
CONTINUOUS
10
191.35
20
-152.35
11
191.65
21
-152.65
0
LINE
8
BLACK
6
CONTINUOUS
10
191.65
20
-152.35
11
191.35
21
-152.65
0
LINE
8
BLACK
6
CONTINUOUS
10
191.35
20
-153.35
11
191.65
21
-153.65
0
LINE
8
BLACK
6
CONTINUOUS
10
191.65
20
-153.35
11
191.35
21
-153.65
0
LINE
8
BLACK
6
CONTINUOUS
10
192.35
20
-145.45
11
192.65
21
-145.75
0
LINE
8
BLACK
6
CONTINUOUS
10
192.65
20
-145.45
11
192.35
21
-145.75
0
LINE
8
BLACK
6
CONTINUOUS
10
192.35
20
-146.35
11
192.65
21
-146.65
0
LINE
8
BLACK
6
CONTINUOUS
10
192.65
20
-146.35
11
192.35
21
-146.65
0
LINE
8
BLACK
6
CONTINUOUS
10
192.35
20
-147.35
11
192.65
21
-147.65
0
LINE
8
BLACK
6
CONTINUOUS
10
192.65
20
-147.35
11
192.35
21
-147.65
0
LINE
8
BLACK
6
CONTINUOUS
10
192.35
20
-148.35
11
192.65
21
-148.65
0
LINE
8
BLACK
6
CONTINUOUS
10
192.65
20
-148.35
11
192.35
21
-148.65
0
LINE
8
BLACK
6
CONTINUOUS
10
192.35
20
-149.35
11
192.65
21
-149.65
0
LINE
8
BLACK
6
CONTINUOUS
10
192.65
20
-149.35
11
192.35
21
-149.65
0
LINE
8
BLACK
6
CONTINUOUS
10
192.35
20
-150.35
11
192.65
21
-150.65
0
LINE
8
BLACK
6
CONTINUOUS
10
192.65
20
-150.35
11
192.35
21
-150.65
0
LINE
8
BLACK
6
CONTINUOUS
10
192.35
20
-151.35
11
192.65
21
-151.65
0
LINE
8
BLACK
6
CONTINUOUS
10
192.65
20
-151.35
11
192.35
21
-151.65
0
LINE
8
BLACK
6
CONTINUOUS
10
192.35
20
-152.35
11
192.65
21
-152.65
0
LINE
8
BLACK
6
CONTINUOUS
10
192.65
20
-152.35
11
192.35
21
-152.65
0
LINE
8
BLACK
6
CONTINUOUS
10
192.35
20
-153.35
11
192.65
21
-153.65
0
LINE
8
BLACK
6
CONTINUOUS
10
192.65
20
-153.35
11
192.35
21
-153.65
0
LINE
8
BLACK
6
CONTINUOUS
10
192.35
20
-154.25
11
192.65
21
-154.55
0
LINE
8
BLACK
6
CONTINUOUS
10
192.65
20
-154.25
11
192.35
21
-154.55
0
LINE
8
BLACK
6
CONTINUOUS
10
193.35
20
-147.35
11
193.65
21
-147.65
0
LINE
8
BLACK
6
CONTINUOUS
10
193.65
20
-147.35
11
193.35
21
-147.65
0
LINE
8
BLACK
6
CONTINUOUS
10
193.35
20
-148.35
11
193.65
21
-148.65
0
LINE
8
BLACK
6
CONTINUOUS
10
193.65
20
-148.35
11
193.35
21
-148.65
0
LINE
8
BLACK
6
CONTINUOUS
10
193.35
20
-151.35
11
193.65
21
-151.65
0
LINE
8
BLACK
6
CONTINUOUS
10
193.65
20
-151.35
11
193.35
21
-151.65
0
LINE
8
BLACK
6
CONTINUOUS
10
193.35
20
-152.35
11
193.65
21
-152.65
0
LINE
8
BLACK
6
CONTINUOUS
10
193.65
20
-152.35
11
193.35
21
-152.65
0
LINE
8
BLACK
6
CONTINUOUS
10
194.35
20
-147.35
11
194.65
21
-147.65
0
LINE
8
BLACK
6
CONTINUOUS
10
194.65
20
-147.35
11
194.35
21
-147.65
0
LINE
8
BLACK
6
CONTINUOUS
10
194.35
20
-148.35
11
194.65
21
-148.65
0
LINE
8
BLACK
6
CONTINUOUS
10
194.65
20
-148.35
11
194.35
21
-148.65
0
LINE
8
BLACK
6
CONTINUOUS
10
194.35
20
-151.35
11
194.65
21
-151.65
0
LINE
8
BLACK
6
CONTINUOUS
10
194.65
20
-151.35
11
194.35
21
-151.65
0
LINE
8
BLACK
6
CONTINUOUS
10
194.35
20
-152.35
11
194.65
21
-152.65
0
LINE
8
BLACK
6
CONTINUOUS
10
194.65
20
-152.35
11
194.35
21
-152.65
0
LINE
8
BLACK
6
CONTINUOUS
10
195.35
20
-147.35
11
195.65
21
-147.65
0
LINE
8
BLACK
6
CONTINUOUS
10
195.65
20
-147.35
11
195.35
21
-147.65
0
LINE
8
BLACK
6
CONTINUOUS
10
195.35
20
-148.35
11
195.65
21
-148.65
0
LINE
8
BLACK
6
CONTINUOUS
10
195.65
20
-148.35
11
195.35
21
-148.65
0
LINE
8
BLACK
6
CONTINUOUS
10
195.35
20
-149.35
11
195.65
21
-149.65
0
LINE
8
BLACK
6
CONTINUOUS
10
195.65
20
-149.35
11
195.35
21
-149.65
0
LINE
8
BLACK
6
CONTINUOUS
10
195.35
20
-150.35
11
195.65
21
-150.65
0
LINE
8
BLACK
6
CONTINUOUS
10
195.65
20
-150.35
11
195.35
21
-150.65
0
LINE
8
BLACK
6
CONTINUOUS
10
195.35
20
-151.35
11
195.65
21
-151.65
0
LINE
8
BLACK
6
CONTINUOUS
10
195.65
20
-151.35
11
195.35
21
-151.65
0
LINE
8
BLACK
6
CONTINUOUS
10
195.35
20
-152.35
11
195.65
21
-152.65
0
LINE
8
BLACK
6
CONTINUOUS
10
195.65
20
-152.35
11
195.35
21
-152.65
0
LINE
8
BLACK
6
CONTINUOUS
10
204.35
20
-147.35
11
204.65
21
-147.65
0
LINE
8
BLACK
6
CONTINUOUS
10
204.65
20
-147.35
11
204.35
21
-147.65
0
LINE
8
BLACK
6
CONTINUOUS
10
204.35
20
-148.35
11
204.65
21
-148.65
0
LINE
8
BLACK
6
CONTINUOUS
10
204.65
20
-148.35
11
204.35
21
-148.65
0
LINE
8
BLACK
6
CONTINUOUS
10
204.35
20
-149.35
11
204.65
21
-149.65
0
LINE
8
BLACK
6
CONTINUOUS
10
204.65
20
-149.35
11
204.35
21
-149.65
0
LINE
8
BLACK
6
CONTINUOUS
10
204.35
20
-150.35
11
204.65
21
-150.65
0
LINE
8
BLACK
6
CONTINUOUS
10
204.65
20
-150.35
11
204.35
21
-150.65
0
LINE
8
BLACK
6
CONTINUOUS
10
204.35
20
-151.35
11
204.65
21
-151.65
0
LINE
8
BLACK
6
CONTINUOUS
10
204.65
20
-151.35
11
204.35
21
-151.65
0
LINE
8
BLACK
6
CONTINUOUS
10
204.35
20
-152.35
11
204.65
21
-152.65
0
LINE
8
BLACK
6
CONTINUOUS
10
204.65
20
-152.35
11
204.35
21
-152.65
0
LINE
8
BLACK
6
CONTINUOUS
10
205.35
20
-147.35
11
205.65
21
-147.65
0
LINE
8
BLACK
6
CONTINUOUS
10
205.65
20
-147.35
11
205.35
21
-147.65
0
LINE
8
BLACK
6
CONTINUOUS
10
205.35
20
-148.35
11
205.65
21
-148.65
0
LINE
8
BLACK
6
CONTINUOUS
10
205.65
20
-148.35
11
205.35
21
-148.65
0
LINE
8
BLACK
6
CONTINUOUS
10
205.35
20
-151.35
11
205.65
21
-151.65
0
LINE
8
BLACK
6
CONTINUOUS
10
205.65
20
-151.35
11
205.35
21
-151.65
0
LINE
8
BLACK
6
CONTINUOUS
10
205.35
20
-152.35
11
205.65
21
-152.65
0
LINE
8
BLACK
6
CONTINUOUS
10
205.65
20
-152.35
11
205.35
21
-152.65
0
LINE
8
BLACK
6
CONTINUOUS
10
206.35
20
-147.35
11
206.65
21
-147.65
0
LINE
8
BLACK
6
CONTINUOUS
10
206.65
20
-147.35
11
206.35
21
-147.65
0
LINE
8
BLACK
6
CONTINUOUS
10
206.35
20
-148.35
11
206.65
21
-148.65
0
LINE
8
BLACK
6
CONTINUOUS
10
206.65
20
-148.35
11
206.35
21
-148.65
0
LINE
8
BLACK
6
CONTINUOUS
10
206.35
20
-151.35
11
206.65
21
-151.65
0
LINE
8
BLACK
6
CONTINUOUS
10
206.65
20
-151.35
11
206.35
21
-151.65
0
LINE
8
BLACK
6
CONTINUOUS
10
206.35
20
-152.35
11
206.65
21
-152.65
0
LINE
8
BLACK
6
CONTINUOUS
10
206.65
20
-152.35
11
206.35
21
-152.65
0
LINE
8
BLACK
6
CONTINUOUS
10
207.35
20
-145.45
11
207.65
21
-145.75
0
LINE
8
BLACK
6
CONTINUOUS
10
207.65
20
-145.45
11
207.35
21
-145.75
0
LINE
8
BLACK
6
CONTINUOUS
10
207.35
20
-146.35
11
207.65
21
-146.65
0
LINE
8
BLACK
6
CONTINUOUS
10
207.65
20
-146.35
11
207.35
21
-146.65
0
LINE
8
BLACK
6
CONTINUOUS
10
207.35
20
-147.35
11
207.65
21
-147.65
0
LINE
8
BLACK
6
CONTINUOUS
10
207.65
20
-147.35
11
207.35
21
-147.65
0
LINE
8
BLACK
6
CONTINUOUS
10
207.35
20
-148.35
11
207.65
21
-148.65
0
LINE
8
BLACK
6
CONTINUOUS
10
207.65
20
-148.35
11
207.35
21
-148.65
0
LINE
8
BLACK
6
CONTINUOUS
10
207.35
20
-149.35
11
207.65
21
-149.65
0
LINE
8
BLACK
6
CONTINUOUS
10
207.65
20
-149.35
11
207.35
21
-149.65
0
LINE
8
BLACK
6
CONTINUOUS
10
207.35
20
-150.35
11
207.65
21
-150.65
0
LINE
8
BLACK
6
CONTINUOUS
10
207.65
20
-150.35
11
207.35
21
-150.65
0
LINE
8
BLACK
6
CONTINUOUS
10
207.35
20
-151.35
11
207.65
21
-151.65
0
LINE
8
BLACK
6
CONTINUOUS
10
207.65
20
-151.35
11
207.35
21
-151.65
0
LINE
8
BLACK
6
CONTINUOUS
10
207.35
20
-152.35
11
207.65
21
-152.65
0
LINE
8
BLACK
6
CONTINUOUS
10
207.65
20
-152.35
11
207.35
21
-152.65
0
LINE
8
BLACK
6
CONTINUOUS
10
207.35
20
-153.35
11
207.65
21
-153.65
0
LINE
8
BLACK
6
CONTINUOUS
10
207.65
20
-153.35
11
207.35
21
-153.65
0
LINE
8
BLACK
6
CONTINUOUS
10
207.35
20
-154.25
11
207.65
21
-154.55
0
LINE
8
BLACK
6
CONTINUOUS
10
207.65
20
-154.25
11
207.35
21
-154.55
0
LINE
8
BLACK
6
CONTINUOUS
10
208.35
20
-146.35
11
208.65
21
-146.65
0
LINE
8
BLACK
6
CONTINUOUS
10
208.65
20
-146.35
11
208.35
21
-146.65
0
LINE
8
BLACK
6
CONTINUOUS
10
208.35
20
-147.35
11
208.65
21
-147.65
0
LINE
8
BLACK
6
CONTINUOUS
10
208.65
20
-147.35
11
208.35
21
-147.65
0
LINE
8
BLACK
6
CONTINUOUS
10
208.35
20
-148.35
11
208.65
21
-148.65
0
LINE
8
BLACK
6
CONTINUOUS
10
208.65
20
-148.35
11
208.35
21
-148.65
0
LINE
8
BLACK
6
CONTINUOUS
10
208.35
20
-149.35
11
208.65
21
-149.65
0
LINE
8
BLACK
6
CONTINUOUS
10
208.65
20
-149.35
11
208.35
21
-149.65
0
LINE
8
BLACK
6
CONTINUOUS
10
208.35
20
-150.35
11
208.65
21
-150.65
0
LINE
8
BLACK
6
CONTINUOUS
10
208.65
20
-150.35
11
208.35
21
-150.65
0
LINE
8
BLACK
6
CONTINUOUS
10
208.35
20
-151.35
11
208.65
21
-151.65
0
LINE
8
BLACK
6
CONTINUOUS
10
208.65
20
-151.35
11
208.35
21
-151.65
0
LINE
8
BLACK
6
CONTINUOUS
10
208.35
20
-152.35
11
208.65
21
-152.65
0
LINE
8
BLACK
6
CONTINUOUS
10
208.65
20
-152.35
11
208.35
21
-152.65
0
LINE
8
BLACK
6
CONTINUOUS
10
208.35
20
-153.35
11
208.65
21
-153.65
0
LINE
8
BLACK
6
CONTINUOUS
10
208.65
20
-153.35
11
208.35
21
-153.65
0
LINE
8
BLACK
6
CONTINUOUS
10
209.35
20
-146.35
11
209.65
21
-146.65
0
LINE
8
BLACK
6
CONTINUOUS
10
209.65
20
-146.35
11
209.35
21
-146.65
0
LINE
8
BLACK
6
CONTINUOUS
10
209.35
20
-147.35
11
209.65
21
-147.65
0
LINE
8
BLACK
6
CONTINUOUS
10
209.65
20
-147.35
11
209.35
21
-147.65
0
LINE
8
BLACK
6
CONTINUOUS
10
209.35
20
-148.35
11
209.65
21
-148.65
0
LINE
8
BLACK
6
CONTINUOUS
10
209.65
20
-148.35
11
209.35
21
-148.65
0
LINE
8
BLACK
6
CONTINUOUS
10
209.35
20
-149.35
11
209.65
21
-149.65
0
LINE
8
BLACK
6
CONTINUOUS
10
209.65
20
-149.35
11
209.35
21
-149.65
0
LINE
8
BLACK
6
CONTINUOUS
10
209.35
20
-150.35
11
209.65
21
-150.65
0
LINE
8
BLACK
6
CONTINUOUS
10
209.65
20
-150.35
11
209.35
21
-150.65
0
LINE
8
BLACK
6
CONTINUOUS
10
209.35
20
-151.35
11
209.65
21
-151.65
0
LINE
8
BLACK
6
CONTINUOUS
10
209.65
20
-151.35
11
209.35
21
-151.65
0
LINE
8
BLACK
6
CONTINUOUS
10
209.35
20
-152.35
11
209.65
21
-152.65
0
LINE
8
BLACK
6
CONTINUOUS
10
209.65
20
-152.35
11
209.35
21
-152.65
0
LINE
8
BLACK
6
CONTINUOUS
10
209.35
20
-153.35
11
209.65
21
-153.65
0
LINE
8
BLACK
6
CONTINUOUS
10
209.65
20
-153.35
11
209.35
21
-153.65
0
LINE
8
BLACK
6
CONTINUOUS
10
210.35
20
-146.35
11
210.65
21
-146.65
0
LINE
8
BLACK
6
CONTINUOUS
10
210.65
20
-146.35
11
210.35
21
-146.65
0
LINE
8
BLACK
6
CONTINUOUS
10
210.35
20
-147.35
11
210.65
21
-147.65
0
LINE
8
BLACK
6
CONTINUOUS
10
210.65
20
-147.35
11
210.35
21
-147.65
0
LINE
8
BLACK
6
CONTINUOUS
10
210.35
20
-148.35
11
210.65
21
-148.65
0
LINE
8
BLACK
6
CONTINUOUS
10
210.65
20
-148.35
11
210.35
21
-148.65
0
LINE
8
BLACK
6
CONTINUOUS
10
210.35
20
-151.35
11
210.65
21
-151.65
0
LINE
8
BLACK
6
CONTINUOUS
10
210.65
20
-151.35
11
210.35
21
-151.65
0
LINE
8
BLACK
6
CONTINUOUS
10
210.35
20
-152.35
11
210.65
21
-152.65
0
LINE
8
BLACK
6
CONTINUOUS
10
210.65
20
-152.35
11
210.35
21
-152.65
0
LINE
8
BLACK
6
CONTINUOUS
10
210.35
20
-153.35
11
210.65
21
-153.65
0
LINE
8
BLACK
6
CONTINUOUS
10
210.65
20
-153.35
11
210.35
21
-153.65
0
LINE
8
BLACK
6
CONTINUOUS
10
211.35
20
-146.35
11
211.65
21
-146.65
0
LINE
8
BLACK
6
CONTINUOUS
10
211.65
20
-146.35
11
211.35
21
-146.65
0
LINE
8
BLACK
6
CONTINUOUS
10
211.35
20
-147.35
11
211.65
21
-147.65
0
LINE
8
BLACK
6
CONTINUOUS
10
211.65
20
-147.35
11
211.35
21
-147.65
0
LINE
8
BLACK
6
CONTINUOUS
10
211.35
20
-152.35
11
211.65
21
-152.65
0
LINE
8
BLACK
6
CONTINUOUS
10
211.65
20
-152.35
11
211.35
21
-152.65
0
LINE
8
BLACK
6
CONTINUOUS
10
211.35
20
-153.35
11
211.65
21
-153.65
0
LINE
8
BLACK
6
CONTINUOUS
10
211.65
20
-153.35
11
211.35
21
-153.65
0
LINE
8
BLACK
6
CONTINUOUS
10
212.35
20
-146.35
11
212.65
21
-146.65
0
LINE
8
BLACK
6
CONTINUOUS
10
212.65
20
-146.35
11
212.35
21
-146.65
0
LINE
8
BLACK
6
CONTINUOUS
10
212.35
20
-147.35
11
212.65
21
-147.65
0
LINE
8
BLACK
6
CONTINUOUS
10
212.65
20
-147.35
11
212.35
21
-147.65
0
LINE
8
BLACK
6
CONTINUOUS
10
212.35
20
-152.35
11
212.65
21
-152.65
0
LINE
8
BLACK
6
CONTINUOUS
10
212.65
20
-152.35
11
212.35
21
-152.65
0
LINE
8
BLACK
6
CONTINUOUS
10
212.35
20
-153.35
11
212.65
21
-153.65
0
LINE
8
BLACK
6
CONTINUOUS
10
212.65
20
-153.35
11
212.35
21
-153.65
0
LINE
8
BLACK
6
CONTINUOUS
10
213.35
20
-146.35
11
213.65
21
-146.65
0
LINE
8
BLACK
6
CONTINUOUS
10
213.65
20
-146.35
11
213.35
21
-146.65
0
LINE
8
BLACK
6
CONTINUOUS
10
213.35
20
-147.35
11
213.65
21
-147.65
0
LINE
8
BLACK
6
CONTINUOUS
10
213.65
20
-147.35
11
213.35
21
-147.65
0
LINE
8
BLACK
6
CONTINUOUS
10
213.35
20
-148.35
11
213.65
21
-148.65
0
LINE
8
BLACK
6
CONTINUOUS
10
213.65
20
-148.35
11
213.35
21
-148.65
0
LINE
8
BLACK
6
CONTINUOUS
10
213.35
20
-151.35
11
213.65
21
-151.65
0
LINE
8
BLACK
6
CONTINUOUS
10
213.65
20
-151.35
11
213.35
21
-151.65
0
LINE
8
BLACK
6
CONTINUOUS
10
213.35
20
-152.35
11
213.65
21
-152.65
0
LINE
8
BLACK
6
CONTINUOUS
10
213.65
20
-152.35
11
213.35
21
-152.65
0
LINE
8
BLACK
6
CONTINUOUS
10
213.35
20
-153.35
11
213.65
21
-153.65
0
LINE
8
BLACK
6
CONTINUOUS
10
213.65
20
-153.35
11
213.35
21
-153.65
0
LINE
8
BLACK
6
CONTINUOUS
10
214.35
20
-146.35
11
214.65
21
-146.65
0
LINE
8
BLACK
6
CONTINUOUS
10
214.65
20
-146.35
11
214.35
21
-146.65
0
LINE
8
BLACK
6
CONTINUOUS
10
214.35
20
-147.35
11
214.65
21
-147.65
0
LINE
8
BLACK
6
CONTINUOUS
10
214.65
20
-147.35
11
214.35
21
-147.65
0
LINE
8
BLACK
6
CONTINUOUS
10
214.35
20
-148.35
11
214.65
21
-148.65
0
LINE
8
BLACK
6
CONTINUOUS
10
214.65
20
-148.35
11
214.35
21
-148.65
0
LINE
8
BLACK
6
CONTINUOUS
10
214.35
20
-149.35
11
214.65
21
-149.65
0
LINE
8
BLACK
6
CONTINUOUS
10
214.65
20
-149.35
11
214.35
21
-149.65
0
LINE
8
BLACK
6
CONTINUOUS
10
214.35
20
-150.35
11
214.65
21
-150.65
0
LINE
8
BLACK
6
CONTINUOUS
10
214.65
20
-150.35
11
214.35
21
-150.65
0
LINE
8
BLACK
6
CONTINUOUS
10
214.35
20
-151.35
11
214.65
21
-151.65
0
LINE
8
BLACK
6
CONTINUOUS
10
214.65
20
-151.35
11
214.35
21
-151.65
0
LINE
8
BLACK
6
CONTINUOUS
10
214.35
20
-152.35
11
214.65
21
-152.65
0
LINE
8
BLACK
6
CONTINUOUS
10
214.65
20
-152.35
11
214.35
21
-152.65
0
LINE
8
BLACK
6
CONTINUOUS
10
214.35
20
-153.35
11
214.65
21
-153.65
0
LINE
8
BLACK
6
CONTINUOUS
10
214.65
20
-153.35
11
214.35
21
-153.65
0
CIRCLE
8
BLACK
10
188
20
-150
40
1.5
0
CIRCLE
8
BLACK
10
212
20
-150
40
1.5
0
LINE
8
BLACK
6
CONTINUOUS
10
187.426
20
-158.175
11
187.426
21
-156.175
0
LINE
8
BLACK
6
CONTINUOUS
10
187.426
20
-156.175
11
187.902
21
-156.175
0
LINE
8
BLACK
6
CONTINUOUS
10
187.902
20
-156.175
11
188.188
21
-156.27
0
LINE
8
BLACK
6
CONTINUOUS
10
188.188
20
-156.27
11
188.379
21
-156.461
0
LINE
8
BLACK
6
CONTINUOUS
10
188.379
20
-156.461
11
188.474
21
-156.651
0
LINE
8
BLACK
6
CONTINUOUS
10
188.474
20
-156.651
11
188.569
21
-157.032
0
LINE
8
BLACK
6
CONTINUOUS
10
188.569
20
-157.032
11
188.569
21
-157.318
0
LINE
8
BLACK
6
CONTINUOUS
10
188.569
20
-157.318
11
188.474
21
-157.699
0
LINE
8
BLACK
6
CONTINUOUS
10
188.474
20
-157.699
11
188.379
21
-157.89
0
LINE
8
BLACK
6
CONTINUOUS
10
188.379
20
-157.89
11
188.188
21
-158.08
0
LINE
8
BLACK
6
CONTINUOUS
10
188.188
20
-158.08
11
187.902
21
-158.175
0
LINE
8
BLACK
6
CONTINUOUS
10
187.902
20
-158.175
11
187.426
21
-158.175
0
LINE
8
BLACK
6
CONTINUOUS
10
189.426
20
-158.175
11
189.426
21
-156.842
0
LINE
8
BLACK
6
CONTINUOUS
10
189.426
20
-157.223
11
189.521
21
-157.032
0
LINE
8
BLACK
6
CONTINUOUS
10
189.521
20
-157.032
11
189.617
21
-156.937
0
LINE
8
BLACK
6
CONTINUOUS
10
189.617
20
-156.937
11
189.807
21
-156.842
0
LINE
8
BLACK
6
CONTINUOUS
10
189.807
20
-156.842
11
189.998
21
-156.842
0
LINE
8
BLACK
6
CONTINUOUS
10
190.664
20
-158.175
11
190.664
21
-156.842
0
LINE
8
BLACK
6
CONTINUOUS
10
190.664
20
-156.175
11
190.569
21
-156.27
0
LINE
8
BLACK
6
CONTINUOUS
10
190.569
20
-156.27
11
190.664
21
-156.366
0
LINE
8
BLACK
6
CONTINUOUS
10
190.664
20
-156.366
11
190.76
21
-156.27
0
LINE
8
BLACK
6
CONTINUOUS
10
190.76
20
-156.27
11
190.664
21
-156.175
0
LINE
8
BLACK
6
CONTINUOUS
10
190.664
20
-156.175
11
190.664
21
-156.366
0
LINE
8
BLACK
6
CONTINUOUS
10
191.902
20
-158.175
11
191.712
21
-158.08
0
LINE
8
BLACK
6
CONTINUOUS
10
191.712
20
-158.08
11
191.617
21
-157.89
0
LINE
8
BLACK
6
CONTINUOUS
10
191.617
20
-157.89
11
191.617
21
-156.175
0
LINE
8
BLACK
6
CONTINUOUS
10
192.95
20
-158.175
11
192.76
21
-158.08
0
LINE
8
BLACK
6
CONTINUOUS
10
192.76
20
-158.08
11
192.664
21
-157.89
0
LINE
8
BLACK
6
CONTINUOUS
10
192.664
20
-157.89
11
192.664
21
-156.175
0
LINE
8
BLACK
6
CONTINUOUS
10
195.236
20
-158.175
11
195.236
21
-156.175
0
LINE
8
BLACK
6
CONTINUOUS
10
195.236
20
-156.175
11
195.902
21
-157.604
0
LINE
8
BLACK
6
CONTINUOUS
10
195.902
20
-157.604
11
196.569
21
-156.175
0
LINE
8
BLACK
6
CONTINUOUS
10
196.569
20
-156.175
11
196.569
21
-158.175
0
LINE
8
BLACK
6
CONTINUOUS
10
198.379
20
-158.175
11
198.379
21
-157.128
0
LINE
8
BLACK
6
CONTINUOUS
10
198.379
20
-157.128
11
198.283
21
-156.937
0
LINE
8
BLACK
6
CONTINUOUS
10
198.283
20
-156.937
11
198.093
21
-156.842
0
LINE
8
BLACK
6
CONTINUOUS
10
198.093
20
-156.842
11
197.712
21
-156.842
0
LINE
8
BLACK
6
CONTINUOUS
10
197.712
20
-156.842
11
197.521
21
-156.937
0
LINE
8
BLACK
6
CONTINUOUS
10
198.379
20
-158.08
11
198.188
21
-158.175
0
LINE
8
BLACK
6
CONTINUOUS
10
198.188
20
-158.175
11
197.712
21
-158.175
0
LINE
8
BLACK
6
CONTINUOUS
10
197.712
20
-158.175
11
197.521
21
-158.08
0
LINE
8
BLACK
6
CONTINUOUS
10
197.521
20
-158.08
11
197.426
21
-157.89
0
LINE
8
BLACK
6
CONTINUOUS
10
197.426
20
-157.89
11
197.426
21
-157.699
0
LINE
8
BLACK
6
CONTINUOUS
10
197.426
20
-157.699
11
197.521
21
-157.509
0
LINE
8
BLACK
6
CONTINUOUS
10
197.521
20
-157.509
11
197.712
21
-157.413
0
LINE
8
BLACK
6
CONTINUOUS
10
197.712
20
-157.413
11
198.188
21
-157.413
0
LINE
8
BLACK
6
CONTINUOUS
10
198.188
20
-157.413
11
198.379
21
-157.318
0
LINE
8
BLACK
6
CONTINUOUS
10
199.331
20
-156.842
11
199.331
21
-158.842
0
LINE
8
BLACK
6
CONTINUOUS
10
199.331
20
-156.937
11
199.521
21
-156.842
0
LINE
8
BLACK
6
CONTINUOUS
10
199.521
20
-156.842
11
199.902
21
-156.842
0
LINE
8
BLACK
6
CONTINUOUS
10
199.902
20
-156.842
11
200.093
21
-156.937
0
LINE
8
BLACK
6
CONTINUOUS
10
200.093
20
-156.937
11
200.188
21
-157.032
0
LINE
8
BLACK
6
CONTINUOUS
10
200.188
20
-157.032
11
200.283
21
-157.223
0
LINE
8
BLACK
6
CONTINUOUS
10
200.283
20
-157.223
11
200.283
21
-157.794
0
LINE
8
BLACK
6
CONTINUOUS
10
200.283
20
-157.794
11
200.188
21
-157.985
0
LINE
8
BLACK
6
CONTINUOUS
10
200.188
20
-157.985
11
200.093
21
-158.08
0
LINE
8
BLACK
6
CONTINUOUS
10
200.093
20
-158.08
11
199.902
21
-158.175
0
LINE
8
BLACK
6
CONTINUOUS
10
199.902
20
-158.175
11
199.521
21
-158.175
0
LINE
8
BLACK
6
CONTINUOUS
10
199.521
20
-158.175
11
199.331
21
-158.08
0
LINE
8
BLACK
6
CONTINUOUS
10
201.14
20
-157.985
11
201.236
21
-158.08
0
LINE
8
BLACK
6
CONTINUOUS
10
201.236
20
-158.08
11
201.14
21
-158.175
0
LINE
8
BLACK
6
CONTINUOUS
10
201.14
20
-158.175
11
201.045
21
-158.08
0
LINE
8
BLACK
6
CONTINUOUS
10
201.045
20
-158.08
11
201.14
21
-157.985
0
LINE
8
BLACK
6
CONTINUOUS
10
201.14
20
-157.985
11
201.14
21
-158.175
0
LINE
8
BLACK
6
CONTINUOUS
10
201.14
20
-156.937
11
201.236
21
-157.032
0
LINE
8
BLACK
6
CONTINUOUS
10
201.236
20
-157.032
11
201.14
21
-157.128
0
LINE
8
BLACK
6
CONTINUOUS
10
201.14
20
-157.128
11
201.045
21
-157.032
0
LINE
8
BLACK
6
CONTINUOUS
10
201.045
20
-157.032
11
201.14
21
-156.937
0
LINE
8
BLACK
6
CONTINUOUS
10
201.14
20
-156.937
11
201.14
21
-157.128
0
LINE
8
BLACK
6
CONTINUOUS
10
184.65
20
-161.3
11
184.95
21
-161.6
0
LINE
8
BLACK
6
CONTINUOUS
10
184.95
20
-161.3
11
184.65
21
-161.6
0
LINE
8
BLACK
6
CONTINUOUS
10
187.807
20
-160.375
11
187.998
21
-160.375
0
LINE
8
BLACK
6
CONTINUOUS
10
187.998
20
-160.375
11
188.188
21
-160.47
0
LINE
8
BLACK
6
CONTINUOUS
10
188.188
20
-160.47
11
188.283
21
-160.566
0
LINE
8
BLACK
6
CONTINUOUS
10
188.283
20
-160.566
11
188.379
21
-160.756
0
LINE
8
BLACK
6
CONTINUOUS
10
188.379
20
-160.756
11
188.474
21
-161.137
0
LINE
8
BLACK
6
CONTINUOUS
10
188.474
20
-161.137
11
188.474
21
-161.613
0
LINE
8
BLACK
6
CONTINUOUS
10
188.474
20
-161.613
11
188.379
21
-161.994
0
LINE
8
BLACK
6
CONTINUOUS
10
188.379
20
-161.994
11
188.283
21
-162.185
0
LINE
8
BLACK
6
CONTINUOUS
10
188.283
20
-162.185
11
188.188
21
-162.28
0
LINE
8
BLACK
6
CONTINUOUS
10
188.188
20
-162.28
11
187.998
21
-162.375
0
LINE
8
BLACK
6
CONTINUOUS
10
187.998
20
-162.375
11
187.807
21
-162.375
0
LINE
8
BLACK
6
CONTINUOUS
10
187.807
20
-162.375
11
187.617
21
-162.28
0
LINE
8
BLACK
6
CONTINUOUS
10
187.617
20
-162.28
11
187.521
21
-162.185
0
LINE
8
BLACK
6
CONTINUOUS
10
187.521
20
-162.185
11
187.426
21
-161.994
0
LINE
8
BLACK
6
CONTINUOUS
10
187.426
20
-161.994
11
187.331
21
-161.613
0
LINE
8
BLACK
6
CONTINUOUS
10
187.331
20
-161.613
11
187.331
21
-161.137
0
LINE
8
BLACK
6
CONTINUOUS
10
187.331
20
-161.137
11
187.426
21
-160.756
0
LINE
8
BLACK
6
CONTINUOUS
10
187.426
20
-160.756
11
187.521
21
-160.566
0
LINE
8
BLACK
6
CONTINUOUS
10
187.521
20
-160.566
11
187.617
21
-160.47
0
LINE
8
BLACK
6
CONTINUOUS
10
187.617
20
-160.47
11
187.807
21
-160.375
0
LINE
8
BLACK
6
CONTINUOUS
10
189.331
20
-162.185
11
189.426
21
-162.28
0
LINE
8
BLACK
6
CONTINUOUS
10
189.426
20
-162.28
11
189.331
21
-162.375
0
LINE
8
BLACK
6
CONTINUOUS
10
189.331
20
-162.375
11
189.236
21
-162.28
0
LINE
8
BLACK
6
CONTINUOUS
10
189.236
20
-162.28
11
189.331
21
-162.185
0
LINE
8
BLACK
6
CONTINUOUS
10
189.331
20
-162.185
11
189.331
21
-162.375
0
LINE
8
BLACK
6
CONTINUOUS
10
190.093
20
-160.375
11
191.331
21
-160.375
0
LINE
8
BLACK
6
CONTINUOUS
10
191.331
20
-160.375
11
190.664
21
-161.137
0
LINE
8
BLACK
6
CONTINUOUS
10
190.664
20
-161.137
11
190.95
21
-161.137
0
LINE
8
BLACK
6
CONTINUOUS
10
190.95
20
-161.137
11
191.14
21
-161.232
0
LINE
8
BLACK
6
CONTINUOUS
10
191.14
20
-161.232
11
191.236
21
-161.328
0
LINE
8
BLACK
6
CONTINUOUS
10
191.236
20
-161.328
11
191.331
21
-161.518
0
LINE
8
BLACK
6
CONTINUOUS
10
191.331
20
-161.518
11
191.331
21
-161.994
0
LINE
8
BLACK
6
CONTINUOUS
10
191.331
20
-161.994
11
191.236
21
-162.185
0
LINE
8
BLACK
6
CONTINUOUS
10
191.236
20
-162.185
11
191.14
21
-162.28
0
LINE
8
BLACK
6
CONTINUOUS
10
191.14
20
-162.28
11
190.95
21
-162.375
0
LINE
8
BLACK
6
CONTINUOUS
10
190.95
20
-162.375
11
190.379
21
-162.375
0
LINE
8
BLACK
6
CONTINUOUS
10
190.379
20
-162.375
11
190.188
21
-162.28
0
LINE
8
BLACK
6
CONTINUOUS
10
190.188
20
-162.28
11
190.093
21
-162.185
0
LINE
8
BLACK
6
CONTINUOUS
10
192.569
20
-160.375
11
192.76
21
-160.375
0
LINE
8
BLACK
6
CONTINUOUS
10
192.76
20
-160.375
11
192.95
21
-160.47
0
LINE
8
BLACK
6
CONTINUOUS
10
192.95
20
-160.47
11
193.045
21
-160.566
0
LINE
8
BLACK
6
CONTINUOUS
10
193.045
20
-160.566
11
193.14
21
-160.756
0
LINE
8
BLACK
6
CONTINUOUS
10
193.14
20
-160.756
11
193.236
21
-161.137
0
LINE
8
BLACK
6
CONTINUOUS
10
193.236
20
-161.137
11
193.236
21
-161.613
0
LINE
8
BLACK
6
CONTINUOUS
10
193.236
20
-161.613
11
193.14
21
-161.994
0
LINE
8
BLACK
6
CONTINUOUS
10
193.14
20
-161.994
11
193.045
21
-162.185
0
LINE
8
BLACK
6
CONTINUOUS
10
193.045
20
-162.185
11
192.95
21
-162.28
0
LINE
8
BLACK
6
CONTINUOUS
10
192.95
20
-162.28
11
192.76
21
-162.375
0
LINE
8
BLACK
6
CONTINUOUS
10
192.76
20
-162.375
11
192.569
21
-162.375
0
LINE
8
BLACK
6
CONTINUOUS
10
192.569
20
-162.375
11
192.379
21
-162.28
0
LINE
8
BLACK
6
CONTINUOUS
10
192.379
20
-162.28
11
192.283
21
-162.185
0
LINE
8
BLACK
6
CONTINUOUS
10
192.283
20
-162.185
11
192.188
21
-161.994
0
LINE
8
BLACK
6
CONTINUOUS
10
192.188
20
-161.994
11
192.093
21
-161.613
0
LINE
8
BLACK
6
CONTINUOUS
10
192.093
20
-161.613
11
192.093
21
-161.137
0
LINE
8
BLACK
6
CONTINUOUS
10
192.093
20
-161.137
11
192.188
21
-160.756
0
LINE
8
BLACK
6
CONTINUOUS
10
192.188
20
-160.756
11
192.283
21
-160.566
0
LINE
8
BLACK
6
CONTINUOUS
10
192.283
20
-160.566
11
192.379
21
-160.47
0
LINE
8
BLACK
6
CONTINUOUS
10
192.379
20
-160.47
11
192.569
21
-160.375
0
LINE
8
BLACK
6
CONTINUOUS
10
194.474
20
-160.375
11
194.664
21
-160.375
0
LINE
8
BLACK
6
CONTINUOUS
10
194.664
20
-160.375
11
194.855
21
-160.47
0
LINE
8
BLACK
6
CONTINUOUS
10
194.855
20
-160.47
11
194.95
21
-160.566
0
LINE
8
BLACK
6
CONTINUOUS
10
194.95
20
-160.566
11
195.045
21
-160.756
0
LINE
8
BLACK
6
CONTINUOUS
10
195.045
20
-160.756
11
195.14
21
-161.137
0
LINE
8
BLACK
6
CONTINUOUS
10
195.14
20
-161.137
11
195.14
21
-161.613
0
LINE
8
BLACK
6
CONTINUOUS
10
195.14
20
-161.613
11
195.045
21
-161.994
0
LINE
8
BLACK
6
CONTINUOUS
10
195.045
20
-161.994
11
194.95
21
-162.185
0
LINE
8
BLACK
6
CONTINUOUS
10
194.95
20
-162.185
11
194.855
21
-162.28
0
LINE
8
BLACK
6
CONTINUOUS
10
194.855
20
-162.28
11
194.664
21
-162.375
0
LINE
8
BLACK
6
CONTINUOUS
10
194.664
20
-162.375
11
194.474
21
-162.375
0
LINE
8
BLACK
6
CONTINUOUS
10
194.474
20
-162.375
11
194.283
21
-162.28
0
LINE
8
BLACK
6
CONTINUOUS
10
194.283
20
-162.28
11
194.188
21
-162.185
0
LINE
8
BLACK
6
CONTINUOUS
10
194.188
20
-162.185
11
194.093
21
-161.994
0
LINE
8
BLACK
6
CONTINUOUS
10
194.093
20
-161.994
11
193.998
21
-161.613
0
LINE
8
BLACK
6
CONTINUOUS
10
193.998
20
-161.613
11
193.998
21
-161.137
0
LINE
8
BLACK
6
CONTINUOUS
10
193.998
20
-161.137
11
194.093
21
-160.756
0
LINE
8
BLACK
6
CONTINUOUS
10
194.093
20
-160.756
11
194.188
21
-160.566
0
LINE
8
BLACK
6
CONTINUOUS
10
194.188
20
-160.566
11
194.283
21
-160.47
0
LINE
8
BLACK
6
CONTINUOUS
10
194.283
20
-160.47
11
194.474
21
-160.375
0
LINE
8
BLACK
6
CONTINUOUS
10
195.998
20
-162.375
11
195.998
21
-161.042
0
LINE
8
BLACK
6
CONTINUOUS
10
195.998
20
-161.232
11
196.093
21
-161.137
0
LINE
8
BLACK
6
CONTINUOUS
10
196.093
20
-161.137
11
196.283
21
-161.042
0
LINE
8
BLACK
6
CONTINUOUS
10
196.283
20
-161.042
11
196.569
21
-161.042
0
LINE
8
BLACK
6
CONTINUOUS
10
196.569
20
-161.042
11
196.76
21
-161.137
0
LINE
8
BLACK
6
CONTINUOUS
10
196.76
20
-161.137
11
196.855
21
-161.328
0
LINE
8
BLACK
6
CONTINUOUS
10
196.855
20
-161.328
11
196.855
21
-162.375
0
LINE
8
BLACK
6
CONTINUOUS
10
196.855
20
-161.328
11
196.95
21
-161.137
0
LINE
8
BLACK
6
CONTINUOUS
10
196.95
20
-161.137
11
197.14
21
-161.042
0
LINE
8
BLACK
6
CONTINUOUS
10
197.14
20
-161.042
11
197.426
21
-161.042
0
LINE
8
BLACK
6
CONTINUOUS
10
197.426
20
-161.042
11
197.617
21
-161.137
0
LINE
8
BLACK
6
CONTINUOUS
10
197.617
20
-161.137
11
197.712
21
-161.328
0
LINE
8
BLACK
6
CONTINUOUS
10
197.712
20
-161.328
11
197.712
21
-162.375
0
LINE
8
BLACK
6
CONTINUOUS
10
198.664
20
-162.375
11
198.664
21
-161.042
0
LINE
8
BLACK
6
CONTINUOUS
10
198.664
20
-161.232
11
198.76
21
-161.137
0
LINE
8
BLACK
6
CONTINUOUS
10
198.76
20
-161.137
11
198.95
21
-161.042
0
LINE
8
BLACK
6
CONTINUOUS
10
198.95
20
-161.042
11
199.236
21
-161.042
0
LINE
8
BLACK
6
CONTINUOUS
10
199.236
20
-161.042
11
199.426
21
-161.137
0
LINE
8
BLACK
6
CONTINUOUS
10
199.426
20
-161.137
11
199.521
21
-161.328
0
LINE
8
BLACK
6
CONTINUOUS
10
199.521
20
-161.328
11
199.521
21
-162.375
0
LINE
8
BLACK
6
CONTINUOUS
10
199.521
20
-161.328
11
199.617
21
-161.137
0
LINE
8
BLACK
6
CONTINUOUS
10
199.617
20
-161.137
11
199.807
21
-161.042
0
LINE
8
BLACK
6
CONTINUOUS
10
199.807
20
-161.042
11
200.093
21
-161.042
0
LINE
8
BLACK
6
CONTINUOUS
10
200.093
20
-161.042
11
200.283
21
-161.137
0
LINE
8
BLACK
6
CONTINUOUS
10
200.283
20
-161.137
11
200.379
21
-161.328
0
LINE
8
BLACK
6
CONTINUOUS
10
200.379
20
-161.328
11
200.379
21
-162.375
0
LINE
8
BLACK
6
CONTINUOUS
10
204.283
20
-160.28
11
202.569
21
-162.851
0
LINE
8
BLACK
6
CONTINUOUS
10
206.855
20
-160.375
11
207.045
21
-160.375
0
LINE
8
BLACK
6
CONTINUOUS
10
207.045
20
-160.375
11
207.236
21
-160.47
0
LINE
8
BLACK
6
CONTINUOUS
10
207.236
20
-160.47
11
207.331
21
-160.566
0
LINE
8
BLACK
6
CONTINUOUS
10
207.331
20
-160.566
11
207.426
21
-160.756
0
LINE
8
BLACK
6
CONTINUOUS
10
207.426
20
-160.756
11
207.521
21
-161.137
0
LINE
8
BLACK
6
CONTINUOUS
10
207.521
20
-161.137
11
207.521
21
-161.613
0
LINE
8
BLACK
6
CONTINUOUS
10
207.521
20
-161.613
11
207.426
21
-161.994
0
LINE
8
BLACK
6
CONTINUOUS
10
207.426
20
-161.994
11
207.331
21
-162.185
0
LINE
8
BLACK
6
CONTINUOUS
10
207.331
20
-162.185
11
207.236
21
-162.28
0
LINE
8
BLACK
6
CONTINUOUS
10
207.236
20
-162.28
11
207.045
21
-162.375
0
LINE
8
BLACK
6
CONTINUOUS
10
207.045
20
-162.375
11
206.855
21
-162.375
0
LINE
8
BLACK
6
CONTINUOUS
10
206.855
20
-162.375
11
206.664
21
-162.28
0
LINE
8
BLACK
6
CONTINUOUS
10
206.664
20
-162.28
11
206.569
21
-162.185
0
LINE
8
BLACK
6
CONTINUOUS
10
206.569
20
-162.185
11
206.474
21
-161.994
0
LINE
8
BLACK
6
CONTINUOUS
10
206.474
20
-161.994
11
206.379
21
-161.613
0
LINE
8
BLACK
6
CONTINUOUS
10
206.379
20
-161.613
11
206.379
21
-161.137
0
LINE
8
BLACK
6
CONTINUOUS
10
206.379
20
-161.137
11
206.474
21
-160.756
0
LINE
8
BLACK
6
CONTINUOUS
10
206.474
20
-160.756
11
206.569
21
-160.566
0
LINE
8
BLACK
6
CONTINUOUS
10
206.569
20
-160.566
11
206.664
21
-160.47
0
LINE
8
BLACK
6
CONTINUOUS
10
206.664
20
-160.47
11
206.855
21
-160.375
0
LINE
8
BLACK
6
CONTINUOUS
10
208.379
20
-162.185
11
208.474
21
-162.28
0
LINE
8
BLACK
6
CONTINUOUS
10
208.474
20
-162.28
11
208.379
21
-162.375
0
LINE
8
BLACK
6
CONTINUOUS
10
208.379
20
-162.375
11
208.283
21
-162.28
0
LINE
8
BLACK
6
CONTINUOUS
10
208.283
20
-162.28
11
208.379
21
-162.185
0
LINE
8
BLACK
6
CONTINUOUS
10
208.379
20
-162.185
11
208.379
21
-162.375
0
LINE
8
BLACK
6
CONTINUOUS
10
209.712
20
-160.375
11
209.902
21
-160.375
0
LINE
8
BLACK
6
CONTINUOUS
10
209.902
20
-160.375
11
210.093
21
-160.47
0
LINE
8
BLACK
6
CONTINUOUS
10
210.093
20
-160.47
11
210.188
21
-160.566
0
LINE
8
BLACK
6
CONTINUOUS
10
210.188
20
-160.566
11
210.283
21
-160.756
0
LINE
8
BLACK
6
CONTINUOUS
10
210.283
20
-160.756
11
210.379
21
-161.137
0
LINE
8
BLACK
6
CONTINUOUS
10
210.379
20
-161.137
11
210.379
21
-161.613
0
LINE
8
BLACK
6
CONTINUOUS
10
210.379
20
-161.613
11
210.283
21
-161.994
0
LINE
8
BLACK
6
CONTINUOUS
10
210.283
20
-161.994
11
210.188
21
-162.185
0
LINE
8
BLACK
6
CONTINUOUS
10
210.188
20
-162.185
11
210.093
21
-162.28
0
LINE
8
BLACK
6
CONTINUOUS
10
210.093
20
-162.28
11
209.902
21
-162.375
0
LINE
8
BLACK
6
CONTINUOUS
10
209.902
20
-162.375
11
209.712
21
-162.375
0
LINE
8
BLACK
6
CONTINUOUS
10
209.712
20
-162.375
11
209.521
21
-162.28
0
LINE
8
BLACK
6
CONTINUOUS
10
209.521
20
-162.28
11
209.426
21
-162.185
0
LINE
8
BLACK
6
CONTINUOUS
10
209.426
20
-162.185
11
209.331
21
-161.994
0
LINE
8
BLACK
6
CONTINUOUS
10
209.331
20
-161.994
11
209.236
21
-161.613
0
LINE
8
BLACK
6
CONTINUOUS
10
209.236
20
-161.613
11
209.236
21
-161.137
0
LINE
8
BLACK
6
CONTINUOUS
10
209.236
20
-161.137
11
209.331
21
-160.756
0
LINE
8
BLACK
6
CONTINUOUS
10
209.331
20
-160.756
11
209.426
21
-160.566
0
LINE
8
BLACK
6
CONTINUOUS
10
209.426
20
-160.566
11
209.521
21
-160.47
0
LINE
8
BLACK
6
CONTINUOUS
10
209.521
20
-160.47
11
209.712
21
-160.375
0
LINE
8
BLACK
6
CONTINUOUS
10
212.283
20
-162.375
11
211.14
21
-162.375
0
LINE
8
BLACK
6
CONTINUOUS
10
211.712
20
-162.375
11
211.712
21
-160.375
0
LINE
8
BLACK
6
CONTINUOUS
10
211.712
20
-160.375
11
211.521
21
-160.661
0
LINE
8
BLACK
6
CONTINUOUS
10
211.521
20
-160.661
11
211.331
21
-160.851
0
LINE
8
BLACK
6
CONTINUOUS
10
211.331
20
-160.851
11
211.14
21
-160.947
0
LINE
8
BLACK
6
CONTINUOUS
10
214.188
20
-162.375
11
213.045
21
-162.375
0
LINE
8
BLACK
6
CONTINUOUS
10
213.617
20
-162.375
11
213.617
21
-160.375
0
LINE
8
BLACK
6
CONTINUOUS
10
213.617
20
-160.375
11
213.426
21
-160.661
0
LINE
8
BLACK
6
CONTINUOUS
10
213.426
20
-160.661
11
213.236
21
-160.851
0
LINE
8
BLACK
6
CONTINUOUS
10
213.236
20
-160.851
11
213.045
21
-160.947
0
LINE
8
BLACK
6
CONTINUOUS
10
215.331
20
-161.232
11
215.14
21
-161.137
0
LINE
8
BLACK
6
CONTINUOUS
10
215.14
20
-161.137
11
215.045
21
-161.042
0
LINE
8
BLACK
6
CONTINUOUS
10
215.045
20
-161.042
11
214.95
21
-160.851
0
LINE
8
BLACK
6
CONTINUOUS
10
214.95
20
-160.851
11
214.95
21
-160.756
0
LINE
8
BLACK
6
CONTINUOUS
10
214.95
20
-160.756
11
215.045
21
-160.566
0
LINE
8
BLACK
6
CONTINUOUS
10
215.045
20
-160.566
11
215.14
21
-160.47
0
LINE
8
BLACK
6
CONTINUOUS
10
215.14
20
-160.47
11
215.331
21
-160.375
0
LINE
8
BLACK
6
CONTINUOUS
10
215.331
20
-160.375
11
215.712
21
-160.375
0
LINE
8
BLACK
6
CONTINUOUS
10
215.712
20
-160.375
11
215.902
21
-160.47
0
LINE
8
BLACK
6
CONTINUOUS
10
215.902
20
-160.47
11
215.998
21
-160.566
0
LINE
8
BLACK
6
CONTINUOUS
10
215.998
20
-160.566
11
216.093
21
-160.756
0
LINE
8
BLACK
6
CONTINUOUS
10
216.093
20
-160.756
11
216.093
21
-160.851
0
LINE
8
BLACK
6
CONTINUOUS
10
216.093
20
-160.851
11
215.998
21
-161.042
0
LINE
8
BLACK
6
CONTINUOUS
10
215.998
20
-161.042
11
215.902
21
-161.137
0
LINE
8
BLACK
6
CONTINUOUS
10
215.902
20
-161.137
11
215.712
21
-161.232
0
LINE
8
BLACK
6
CONTINUOUS
10
215.712
20
-161.232
11
215.331
21
-161.232
0
LINE
8
BLACK
6
CONTINUOUS
10
215.331
20
-161.232
11
215.14
21
-161.328
0
LINE
8
BLACK
6
CONTINUOUS
10
215.14
20
-161.328
11
215.045
21
-161.423
0
LINE
8
BLACK
6
CONTINUOUS
10
215.045
20
-161.423
11
214.95
21
-161.613
0
LINE
8
BLACK
6
CONTINUOUS
10
214.95
20
-161.613
11
214.95
21
-161.994
0
LINE
8
BLACK
6
CONTINUOUS
10
214.95
20
-161.994
11
215.045
21
-162.185
0
LINE
8
BLACK
6
CONTINUOUS
10
215.045
20
-162.185
11
215.14
21
-162.28
0
LINE
8
BLACK
6
CONTINUOUS
10
215.14
20
-162.28
11
215.331
21
-162.375
0
LINE
8
BLACK
6
CONTINUOUS
10
215.331
20
-162.375
11
215.712
21
-162.375
0
LINE
8
BLACK
6
CONTINUOUS
10
215.712
20
-162.375
11
215.902
21
-162.28
0
LINE
8
BLACK
6
CONTINUOUS
10
215.902
20
-162.28
11
215.998
21
-162.185
0
LINE
8
BLACK
6
CONTINUOUS
10
215.998
20
-162.185
11
216.093
21
-161.994
0
LINE
8
BLACK
6
CONTINUOUS
10
216.093
20
-161.994
11
216.093
21
-161.613
0
LINE
8
BLACK
6
CONTINUOUS
10
216.093
20
-161.613
11
215.998
21
-161.423
0
LINE
8
BLACK
6
CONTINUOUS
10
215.998
20
-161.423
11
215.902
21
-161.328
0
LINE
8
BLACK
6
CONTINUOUS
10
215.902
20
-161.328
11
215.712
21
-161.232
0
LINE
8
BLACK
6
CONTINUOUS
10
216.855
20
-160.375
11
216.855
21
-160.756
0
LINE
8
BLACK
6
CONTINUOUS
10
217.617
20
-160.375
11
217.617
21
-160.756
0
LINE
8
BLACK
6
CONTINUOUS
10
220.569
20
-163.137
11
220.474
21
-163.042
0
LINE
8
BLACK
6
CONTINUOUS
10
220.474
20
-163.042
11
220.283
21
-162.756
0
LINE
8
BLACK
6
CONTINUOUS
10
220.283
20
-162.756
11
220.188
21
-162.566
0
LINE
8
BLACK
6
CONTINUOUS
10
220.188
20
-162.566
11
220.093
21
-162.28
0
LINE
8
BLACK
6
CONTINUOUS
10
220.093
20
-162.28
11
219.998
21
-161.804
0
LINE
8
BLACK
6
CONTINUOUS
10
219.998
20
-161.804
11
219.998
21
-161.423
0
LINE
8
BLACK
6
CONTINUOUS
10
219.998
20
-161.423
11
220.093
21
-160.947
0
LINE
8
BLACK
6
CONTINUOUS
10
220.093
20
-160.947
11
220.188
21
-160.661
0
LINE
8
BLACK
6
CONTINUOUS
10
220.188
20
-160.661
11
220.283
21
-160.47
0
LINE
8
BLACK
6
CONTINUOUS
10
220.283
20
-160.47
11
220.474
21
-160.185
0
LINE
8
BLACK
6
CONTINUOUS
10
220.474
20
-160.185
11
220.569
21
-160.09
0
LINE
8
BLACK
6
CONTINUOUS
10
222.379
20
-162.375
11
221.236
21
-162.375
0
LINE
8
BLACK
6
CONTINUOUS
10
221.807
20
-162.375
11
221.807
21
-160.375
0
LINE
8
BLACK
6
CONTINUOUS
10
221.807
20
-160.375
11
221.617
21
-160.661
0
LINE
8
BLACK
6
CONTINUOUS
10
221.617
20
-160.661
11
221.426
21
-160.851
0
LINE
8
BLACK
6
CONTINUOUS
10
221.426
20
-160.851
11
221.236
21
-160.947
0
LINE
8
BLACK
6
CONTINUOUS
10
223.045
20
-160.375
11
224.283
21
-160.375
0
LINE
8
BLACK
6
CONTINUOUS
10
224.283
20
-160.375
11
223.617
21
-161.137
0
LINE
8
BLACK
6
CONTINUOUS
10
223.617
20
-161.137
11
223.902
21
-161.137
0
LINE
8
BLACK
6
CONTINUOUS
10
223.902
20
-161.137
11
224.093
21
-161.232
0
LINE
8
BLACK
6
CONTINUOUS
10
224.093
20
-161.232
11
224.188
21
-161.328
0
LINE
8
BLACK
6
CONTINUOUS
10
224.188
20
-161.328
11
224.283
21
-161.518
0
LINE
8
BLACK
6
CONTINUOUS
10
224.283
20
-161.518
11
224.283
21
-161.994
0
LINE
8
BLACK
6
CONTINUOUS
10
224.283
20
-161.994
11
224.188
21
-162.185
0
LINE
8
BLACK
6
CONTINUOUS
10
224.188
20
-162.185
11
224.093
21
-162.28
0
LINE
8
BLACK
6
CONTINUOUS
10
224.093
20
-162.28
11
223.902
21
-162.375
0
LINE
8
BLACK
6
CONTINUOUS
10
223.902
20
-162.375
11
223.331
21
-162.375
0
LINE
8
BLACK
6
CONTINUOUS
10
223.331
20
-162.375
11
223.14
21
-162.28
0
LINE
8
BLACK
6
CONTINUOUS
10
223.14
20
-162.28
11
223.045
21
-162.185
0
LINE
8
BLACK
6
CONTINUOUS
10
225.998
20
-160.375
11
225.617
21
-160.375
0
LINE
8
BLACK
6
CONTINUOUS
10
225.617
20
-160.375
11
225.426
21
-160.47
0
LINE
8
BLACK
6
CONTINUOUS
10
225.426
20
-160.47
11
225.331
21
-160.566
0
LINE
8
BLACK
6
CONTINUOUS
10
225.331
20
-160.566
11
225.14
21
-160.851
0
LINE
8
BLACK
6
CONTINUOUS
10
225.14
20
-160.851
11
225.045
21
-161.232
0
LINE
8
BLACK
6
CONTINUOUS
10
225.045
20
-161.232
11
225.045
21
-161.994
0
LINE
8
BLACK
6
CONTINUOUS
10
225.045
20
-161.994
11
225.14
21
-162.185
0
LINE
8
BLACK
6
CONTINUOUS
10
225.14
20
-162.185
11
225.236
21
-162.28
0
LINE
8
BLACK
6
CONTINUOUS
10
225.236
20
-162.28
11
225.426
21
-162.375
0
LINE
8
BLACK
6
CONTINUOUS
10
225.426
20
-162.375
11
225.807
21
-162.375
0
LINE
8
BLACK
6
CONTINUOUS
10
225.807
20
-162.375
11
225.998
21
-162.28
0
LINE
8
BLACK
6
CONTINUOUS
10
225.998
20
-162.28
11
226.093
21
-162.185
0
LINE
8
BLACK
6
CONTINUOUS
10
226.093
20
-162.185
11
226.188
21
-161.994
0
LINE
8
BLACK
6
CONTINUOUS
10
226.188
20
-161.994
11
226.188
21
-161.518
0
LINE
8
BLACK
6
CONTINUOUS
10
226.188
20
-161.518
11
226.093
21
-161.328
0
LINE
8
BLACK
6
CONTINUOUS
10
226.093
20
-161.328
11
225.998
21
-161.232
0
LINE
8
BLACK
6
CONTINUOUS
10
225.998
20
-161.232
11
225.807
21
-161.137
0
LINE
8
BLACK
6
CONTINUOUS
10
225.807
20
-161.137
11
225.426
21
-161.137
0
LINE
8
BLACK
6
CONTINUOUS
10
225.426
20
-161.137
11
225.236
21
-161.232
0
LINE
8
BLACK
6
CONTINUOUS
10
225.236
20
-161.232
11
225.14
21
-161.328
0
LINE
8
BLACK
6
CONTINUOUS
10
225.14
20
-161.328
11
225.045
21
-161.518
0
LINE
8
BLACK
6
CONTINUOUS
10
228.569
20
-162.375
11
228.569
21
-160.375
0
LINE
8
BLACK
6
CONTINUOUS
10
229.426
20
-162.375
11
229.426
21
-161.328
0
LINE
8
BLACK
6
CONTINUOUS
10
229.426
20
-161.328
11
229.331
21
-161.137
0
LINE
8
BLACK
6
CONTINUOUS
10
229.331
20
-161.137
11
229.14
21
-161.042
0
LINE
8
BLACK
6
CONTINUOUS
10
229.14
20
-161.042
11
228.855
21
-161.042
0
LINE
8
BLACK
6
CONTINUOUS
10
228.855
20
-161.042
11
228.664
21
-161.137
0
LINE
8
BLACK
6
CONTINUOUS
10
228.664
20
-161.137
11
228.569
21
-161.232
0
LINE
8
BLACK
6
CONTINUOUS
10
230.664
20
-162.375
11
230.474
21
-162.28
0
LINE
8
BLACK
6
CONTINUOUS
10
230.474
20
-162.28
11
230.379
21
-162.185
0
LINE
8
BLACK
6
CONTINUOUS
10
230.379
20
-162.185
11
230.283
21
-161.994
0
LINE
8
BLACK
6
CONTINUOUS
10
230.283
20
-161.994
11
230.283
21
-161.423
0
LINE
8
BLACK
6
CONTINUOUS
10
230.283
20
-161.423
11
230.379
21
-161.232
0
LINE
8
BLACK
6
CONTINUOUS
10
230.379
20
-161.232
11
230.474
21
-161.137
0
LINE
8
BLACK
6
CONTINUOUS
10
230.474
20
-161.137
11
230.664
21
-161.042
0
LINE
8
BLACK
6
CONTINUOUS
10
230.664
20
-161.042
11
230.95
21
-161.042
0
LINE
8
BLACK
6
CONTINUOUS
10
230.95
20
-161.042
11
231.14
21
-161.137
0
LINE
8
BLACK
6
CONTINUOUS
10
231.14
20
-161.137
11
231.236
21
-161.232
0
LINE
8
BLACK
6
CONTINUOUS
10
231.236
20
-161.232
11
231.331
21
-161.423
0
LINE
8
BLACK
6
CONTINUOUS
10
231.331
20
-161.423
11
231.331
21
-161.994
0
LINE
8
BLACK
6
CONTINUOUS
10
231.331
20
-161.994
11
231.236
21
-162.185
0
LINE
8
BLACK
6
CONTINUOUS
10
231.236
20
-162.185
11
231.14
21
-162.28
0
LINE
8
BLACK
6
CONTINUOUS
10
231.14
20
-162.28
11
230.95
21
-162.375
0
LINE
8
BLACK
6
CONTINUOUS
10
230.95
20
-162.375
11
230.664
21
-162.375
0
LINE
8
BLACK
6
CONTINUOUS
10
232.474
20
-162.375
11
232.283
21
-162.28
0
LINE
8
BLACK
6
CONTINUOUS
10
232.283
20
-162.28
11
232.188
21
-162.09
0
LINE
8
BLACK
6
CONTINUOUS
10
232.188
20
-162.09
11
232.188
21
-160.375
0
LINE
8
BLACK
6
CONTINUOUS
10
233.998
20
-162.28
11
233.807
21
-162.375
0
LINE
8
BLACK
6
CONTINUOUS
10
233.807
20
-162.375
11
233.426
21
-162.375
0
LINE
8
BLACK
6
CONTINUOUS
10
233.426
20
-162.375
11
233.236
21
-162.28
0
LINE
8
BLACK
6
CONTINUOUS
10
233.236
20
-162.28
11
233.14
21
-162.09
0
LINE
8
BLACK
6
CONTINUOUS
10
233.14
20
-162.09
11
233.14
21
-161.328
0
LINE
8
BLACK
6
CONTINUOUS
10
233.14
20
-161.328
11
233.236
21
-161.137
0
LINE
8
BLACK
6
CONTINUOUS
10
233.236
20
-161.137
11
233.426
21
-161.042
0
LINE
8
BLACK
6
CONTINUOUS
10
233.426
20
-161.042
11
233.807
21
-161.042
0
LINE
8
BLACK
6
CONTINUOUS
10
233.807
20
-161.042
11
233.998
21
-161.137
0
LINE
8
BLACK
6
CONTINUOUS
10
233.998
20
-161.137
11
234.093
21
-161.328
0
LINE
8
BLACK
6
CONTINUOUS
10
234.093
20
-161.328
11
234.093
21
-161.518
0
LINE
8
BLACK
6
CONTINUOUS
10
234.093
20
-161.518
11
233.14
21
-161.709
0
LINE
8
BLACK
6
CONTINUOUS
10
234.855
20
-162.28
11
235.045
21
-162.375
0
LINE
8
BLACK
6
CONTINUOUS
10
235.045
20
-162.375
11
235.426
21
-162.375
0
LINE
8
BLACK
6
CONTINUOUS
10
235.426
20
-162.375
11
235.617
21
-162.28
0
LINE
8
BLACK
6
CONTINUOUS
10
235.617
20
-162.28
11
235.712
21
-162.09
0
LINE
8
BLACK
6
CONTINUOUS
10
235.712
20
-162.09
11
235.712
21
-161.994
0
LINE
8
BLACK
6
CONTINUOUS
10
235.712
20
-161.994
11
235.617
21
-161.804
0
LINE
8
BLACK
6
CONTINUOUS
10
235.617
20
-161.804
11
235.426
21
-161.709
0
LINE
8
BLACK
6
CONTINUOUS
10
235.426
20
-161.709
11
235.14
21
-161.709
0
LINE
8
BLACK
6
CONTINUOUS
10
235.14
20
-161.709
11
234.95
21
-161.613
0
LINE
8
BLACK
6
CONTINUOUS
10
234.95
20
-161.613
11
234.855
21
-161.423
0
LINE
8
BLACK
6
CONTINUOUS
10
234.855
20
-161.423
11
234.855
21
-161.328
0
LINE
8
BLACK
6
CONTINUOUS
10
234.855
20
-161.328
11
234.95
21
-161.137
0
LINE
8
BLACK
6
CONTINUOUS
10
234.95
20
-161.137
11
235.14
21
-161.042
0
LINE
8
BLACK
6
CONTINUOUS
10
235.14
20
-161.042
11
235.426
21
-161.042
0
LINE
8
BLACK
6
CONTINUOUS
10
235.426
20
-161.042
11
235.617
21
-161.137
0
LINE
8
BLACK
6
CONTINUOUS
10
236.379
20
-163.137
11
236.474
21
-163.042
0
LINE
8
BLACK
6
CONTINUOUS
10
236.474
20
-163.042
11
236.664
21
-162.756
0
LINE
8
BLACK
6
CONTINUOUS
10
236.664
20
-162.756
11
236.76
21
-162.566
0
LINE
8
BLACK
6
CONTINUOUS
10
236.76
20
-162.566
11
236.855
21
-162.28
0
LINE
8
BLACK
6
CONTINUOUS
10
236.855
20
-162.28
11
236.95
21
-161.804
0
LINE
8
BLACK
6
CONTINUOUS
10
236.95
20
-161.804
11
236.95
21
-161.423
0
LINE
8
BLACK
6
CONTINUOUS
10
236.95
20
-161.423
11
236.855
21
-160.947
0
LINE
8
BLACK
6
CONTINUOUS
10
236.855
20
-160.947
11
236.76
21
-160.661
0
LINE
8
BLACK
6
CONTINUOUS
10
236.76
20
-160.661
11
236.664
21
-160.47
0
LINE
8
BLACK
6
CONTINUOUS
10
236.664
20
-160.47
11
236.474
21
-160.185
0
LINE
8
BLACK
6
CONTINUOUS
10
236.474
20
-160.185
11
236.379
21
-160.09
0
CIRCLE
8
BLACK
10
183.95
20
-164.09
40
1
0
LINE
8
BLACK
6
CONTINUOUS
10
187.236
20
-163.015
11
188.474
21
-163.015
0
LINE
8
BLACK
6
CONTINUOUS
10
188.474
20
-163.015
11
187.807
21
-163.777
0
LINE
8
BLACK
6
CONTINUOUS
10
187.807
20
-163.777
11
188.093
21
-163.777
0
LINE
8
BLACK
6
CONTINUOUS
10
188.093
20
-163.777
11
188.283
21
-163.872
0
LINE
8
BLACK
6
CONTINUOUS
10
188.283
20
-163.872
11
188.379
21
-163.968
0
LINE
8
BLACK
6
CONTINUOUS
10
188.379
20
-163.968
11
188.474
21
-164.158
0
LINE
8
BLACK
6
CONTINUOUS
10
188.474
20
-164.158
11
188.474
21
-164.634
0
LINE
8
BLACK
6
CONTINUOUS
10
188.474
20
-164.634
11
188.379
21
-164.825
0
LINE
8
BLACK
6
CONTINUOUS
10
188.379
20
-164.825
11
188.283
21
-164.92
0
LINE
8
BLACK
6
CONTINUOUS
10
188.283
20
-164.92
11
188.093
21
-165.015
0
LINE
8
BLACK
6
CONTINUOUS
10
188.093
20
-165.015
11
187.521
21
-165.015
0
LINE
8
BLACK
6
CONTINUOUS
10
187.521
20
-165.015
11
187.331
21
-164.92
0
LINE
8
BLACK
6
CONTINUOUS
10
187.331
20
-164.92
11
187.236
21
-164.825
0
LINE
8
BLACK
6
CONTINUOUS
10
189.331
20
-164.825
11
189.426
21
-164.92
0
LINE
8
BLACK
6
CONTINUOUS
10
189.426
20
-164.92
11
189.331
21
-165.015
0
LINE
8
BLACK
6
CONTINUOUS
10
189.331
20
-165.015
11
189.236
21
-164.92
0
LINE
8
BLACK
6
CONTINUOUS
10
189.236
20
-164.92
11
189.331
21
-164.825
0
LINE
8
BLACK
6
CONTINUOUS
10
189.331
20
-164.825
11
189.331
21
-165.015
0
LINE
8
BLACK
6
CONTINUOUS
10
190.664
20
-163.015
11
190.855
21
-163.015
0
LINE
8
BLACK
6
CONTINUOUS
10
190.855
20
-163.015
11
191.045
21
-163.11
0
LINE
8
BLACK
6
CONTINUOUS
10
191.045
20
-163.11
11
191.14
21
-163.206
0
LINE
8
BLACK
6
CONTINUOUS
10
191.14
20
-163.206
11
191.236
21
-163.396
0
LINE
8
BLACK
6
CONTINUOUS
10
191.236
20
-163.396
11
191.331
21
-163.777
0
LINE
8
BLACK
6
CONTINUOUS
10
191.331
20
-163.777
11
191.331
21
-164.253
0
LINE
8
BLACK
6
CONTINUOUS
10
191.331
20
-164.253
11
191.236
21
-164.634
0
LINE
8
BLACK
6
CONTINUOUS
10
191.236
20
-164.634
11
191.14
21
-164.825
0
LINE
8
BLACK
6
CONTINUOUS
10
191.14
20
-164.825
11
191.045
21
-164.92
0
LINE
8
BLACK
6
CONTINUOUS
10
191.045
20
-164.92
11
190.855
21
-165.015
0
LINE
8
BLACK
6
CONTINUOUS
10
190.855
20
-165.015
11
190.664
21
-165.015
0
LINE
8
BLACK
6
CONTINUOUS
10
190.664
20
-165.015
11
190.474
21
-164.92
0
LINE
8
BLACK
6
CONTINUOUS
10
190.474
20
-164.92
11
190.379
21
-164.825
0
LINE
8
BLACK
6
CONTINUOUS
10
190.379
20
-164.825
11
190.283
21
-164.634
0
LINE
8
BLACK
6
CONTINUOUS
10
190.283
20
-164.634
11
190.188
21
-164.253
0
LINE
8
BLACK
6
CONTINUOUS
10
190.188
20
-164.253
11
190.188
21
-163.777
0
LINE
8
BLACK
6
CONTINUOUS
10
190.188
20
-163.777
11
190.283
21
-163.396
0
LINE
8
BLACK
6
CONTINUOUS
10
190.283
20
-163.396
11
190.379
21
-163.206
0
LINE
8
BLACK
6
CONTINUOUS
10
190.379
20
-163.206
11
190.474
21
-163.11
0
LINE
8
BLACK
6
CONTINUOUS
10
190.474
20
-163.11
11
190.664
21
-163.015
0
LINE
8
BLACK
6
CONTINUOUS
10
192.569
20
-163.015
11
192.76
21
-163.015
0
LINE
8
BLACK
6
CONTINUOUS
10
192.76
20
-163.015
11
192.95
21
-163.11
0
LINE
8
BLACK
6
CONTINUOUS
10
192.95
20
-163.11
11
193.045
21
-163.206
0
LINE
8
BLACK
6
CONTINUOUS
10
193.045
20
-163.206
11
193.14
21
-163.396
0
LINE
8
BLACK
6
CONTINUOUS
10
193.14
20
-163.396
11
193.236
21
-163.777
0
LINE
8
BLACK
6
CONTINUOUS
10
193.236
20
-163.777
11
193.236
21
-164.253
0
LINE
8
BLACK
6
CONTINUOUS
10
193.236
20
-164.253
11
193.14
21
-164.634
0
LINE
8
BLACK
6
CONTINUOUS
10
193.14
20
-164.634
11
193.045
21
-164.825
0
LINE
8
BLACK
6
CONTINUOUS
10
193.045
20
-164.825
11
192.95
21
-164.92
0
LINE
8
BLACK
6
CONTINUOUS
10
192.95
20
-164.92
11
192.76
21
-165.015
0
LINE
8
BLACK
6
CONTINUOUS
10
192.76
20
-165.015
11
192.569
21
-165.015
0
LINE
8
BLACK
6
CONTINUOUS
10
192.569
20
-165.015
11
192.379
21
-164.92
0
LINE
8
BLACK
6
CONTINUOUS
10
192.379
20
-164.92
11
192.283
21
-164.825
0
LINE
8
BLACK
6
CONTINUOUS
10
192.283
20
-164.825
11
192.188
21
-164.634
0
LINE
8
BLACK
6
CONTINUOUS
10
192.188
20
-164.634
11
192.093
21
-164.253
0
LINE
8
BLACK
6
CONTINUOUS
10
192.093
20
-164.253
11
192.093
21
-163.777
0
LINE
8
BLACK
6
CONTINUOUS
10
192.093
20
-163.777
11
192.188
21
-163.396
0
LINE
8
BLACK
6
CONTINUOUS
10
192.188
20
-163.396
11
192.283
21
-163.206
0
LINE
8
BLACK
6
CONTINUOUS
10
192.283
20
-163.206
11
192.379
21
-163.11
0
LINE
8
BLACK
6
CONTINUOUS
10
192.379
20
-163.11
11
192.569
21
-163.015
0
LINE
8
BLACK
6
CONTINUOUS
10
194.474
20
-163.015
11
194.664
21
-163.015
0
LINE
8
BLACK
6
CONTINUOUS
10
194.664
20
-163.015
11
194.855
21
-163.11
0
LINE
8
BLACK
6
CONTINUOUS
10
194.855
20
-163.11
11
194.95
21
-163.206
0
LINE
8
BLACK
6
CONTINUOUS
10
194.95
20
-163.206
11
195.045
21
-163.396
0
LINE
8
BLACK
6
CONTINUOUS
10
195.045
20
-163.396
11
195.14
21
-163.777
0
LINE
8
BLACK
6
CONTINUOUS
10
195.14
20
-163.777
11
195.14
21
-164.253
0
LINE
8
BLACK
6
CONTINUOUS
10
195.14
20
-164.253
11
195.045
21
-164.634
0
LINE
8
BLACK
6
CONTINUOUS
10
195.045
20
-164.634
11
194.95
21
-164.825
0
LINE
8
BLACK
6
CONTINUOUS
10
194.95
20
-164.825
11
194.855
21
-164.92
0
LINE
8
BLACK
6
CONTINUOUS
10
194.855
20
-164.92
11
194.664
21
-165.015
0
LINE
8
BLACK
6
CONTINUOUS
10
194.664
20
-165.015
11
194.474
21
-165.015
0
LINE
8
BLACK
6
CONTINUOUS
10
194.474
20
-165.015
11
194.283
21
-164.92
0
LINE
8
BLACK
6
CONTINUOUS
10
194.283
20
-164.92
11
194.188
21
-164.825
0
LINE
8
BLACK
6
CONTINUOUS
10
194.188
20
-164.825
11
194.093
21
-164.634
0
LINE
8
BLACK
6
CONTINUOUS
10
194.093
20
-164.634
11
193.998
21
-164.253
0
LINE
8
BLACK
6
CONTINUOUS
10
193.998
20
-164.253
11
193.998
21
-163.777
0
LINE
8
BLACK
6
CONTINUOUS
10
193.998
20
-163.777
11
194.093
21
-163.396
0
LINE
8
BLACK
6
CONTINUOUS
10
194.093
20
-163.396
11
194.188
21
-163.206
0
LINE
8
BLACK
6
CONTINUOUS
10
194.188
20
-163.206
11
194.283
21
-163.11
0
LINE
8
BLACK
6
CONTINUOUS
10
194.283
20
-163.11
11
194.474
21
-163.015
0
LINE
8
BLACK
6
CONTINUOUS
10
195.998
20
-165.015
11
195.998
21
-163.682
0
LINE
8
BLACK
6
CONTINUOUS
10
195.998
20
-163.872
11
196.093
21
-163.777
0
LINE
8
BLACK
6
CONTINUOUS
10
196.093
20
-163.777
11
196.283
21
-163.682
0
LINE
8
BLACK
6
CONTINUOUS
10
196.283
20
-163.682
11
196.569
21
-163.682
0
LINE
8
BLACK
6
CONTINUOUS
10
196.569
20
-163.682
11
196.76
21
-163.777
0
LINE
8
BLACK
6
CONTINUOUS
10
196.76
20
-163.777
11
196.855
21
-163.968
0
LINE
8
BLACK
6
CONTINUOUS
10
196.855
20
-163.968
11
196.855
21
-165.015
0
LINE
8
BLACK
6
CONTINUOUS
10
196.855
20
-163.968
11
196.95
21
-163.777
0
LINE
8
BLACK
6
CONTINUOUS
10
196.95
20
-163.777
11
197.14
21
-163.682
0
LINE
8
BLACK
6
CONTINUOUS
10
197.14
20
-163.682
11
197.426
21
-163.682
0
LINE
8
BLACK
6
CONTINUOUS
10
197.426
20
-163.682
11
197.617
21
-163.777
0
LINE
8
BLACK
6
CONTINUOUS
10
197.617
20
-163.777
11
197.712
21
-163.968
0
LINE
8
BLACK
6
CONTINUOUS
10
197.712
20
-163.968
11
197.712
21
-165.015
0
LINE
8
BLACK
6
CONTINUOUS
10
198.664
20
-165.015
11
198.664
21
-163.682
0
LINE
8
BLACK
6
CONTINUOUS
10
198.664
20
-163.872
11
198.76
21
-163.777
0
LINE
8
BLACK
6
CONTINUOUS
10
198.76
20
-163.777
11
198.95
21
-163.682
0
LINE
8
BLACK
6
CONTINUOUS
10
198.95
20
-163.682
11
199.236
21
-163.682
0
LINE
8
BLACK
6
CONTINUOUS
10
199.236
20
-163.682
11
199.426
21
-163.777
0
LINE
8
BLACK
6
CONTINUOUS
10
199.426
20
-163.777
11
199.521
21
-163.968
0
LINE
8
BLACK
6
CONTINUOUS
10
199.521
20
-163.968
11
199.521
21
-165.015
0
LINE
8
BLACK
6
CONTINUOUS
10
199.521
20
-163.968
11
199.617
21
-163.777
0
LINE
8
BLACK
6
CONTINUOUS
10
199.617
20
-163.777
11
199.807
21
-163.682
0
LINE
8
BLACK
6
CONTINUOUS
10
199.807
20
-163.682
11
200.093
21
-163.682
0
LINE
8
BLACK
6
CONTINUOUS
10
200.093
20
-163.682
11
200.283
21
-163.777
0
LINE
8
BLACK
6
CONTINUOUS
10
200.283
20
-163.777
11
200.379
21
-163.968
0
LINE
8
BLACK
6
CONTINUOUS
10
200.379
20
-163.968
11
200.379
21
-165.015
0
LINE
8
BLACK
6
CONTINUOUS
10
204.283
20
-162.92
11
202.569
21
-165.491
0
LINE
8
BLACK
6
CONTINUOUS
10
206.855
20
-163.015
11
207.045
21
-163.015
0
LINE
8
BLACK
6
CONTINUOUS
10
207.045
20
-163.015
11
207.236
21
-163.11
0
LINE
8
BLACK
6
CONTINUOUS
10
207.236
20
-163.11
11
207.331
21
-163.206
0
LINE
8
BLACK
6
CONTINUOUS
10
207.331
20
-163.206
11
207.426
21
-163.396
0
LINE
8
BLACK
6
CONTINUOUS
10
207.426
20
-163.396
11
207.521
21
-163.777
0
LINE
8
BLACK
6
CONTINUOUS
10
207.521
20
-163.777
11
207.521
21
-164.253
0
LINE
8
BLACK
6
CONTINUOUS
10
207.521
20
-164.253
11
207.426
21
-164.634
0
LINE
8
BLACK
6
CONTINUOUS
10
207.426
20
-164.634
11
207.331
21
-164.825
0
LINE
8
BLACK
6
CONTINUOUS
10
207.331
20
-164.825
11
207.236
21
-164.92
0
LINE
8
BLACK
6
CONTINUOUS
10
207.236
20
-164.92
11
207.045
21
-165.015
0
LINE
8
BLACK
6
CONTINUOUS
10
207.045
20
-165.015
11
206.855
21
-165.015
0
LINE
8
BLACK
6
CONTINUOUS
10
206.855
20
-165.015
11
206.664
21
-164.92
0
LINE
8
BLACK
6
CONTINUOUS
10
206.664
20
-164.92
11
206.569
21
-164.825
0
LINE
8
BLACK
6
CONTINUOUS
10
206.569
20
-164.825
11
206.474
21
-164.634
0
LINE
8
BLACK
6
CONTINUOUS
10
206.474
20
-164.634
11
206.379
21
-164.253
0
LINE
8
BLACK
6
CONTINUOUS
10
206.379
20
-164.253
11
206.379
21
-163.777
0
LINE
8
BLACK
6
CONTINUOUS
10
206.379
20
-163.777
11
206.474
21
-163.396
0
LINE
8
BLACK
6
CONTINUOUS
10
206.474
20
-163.396
11
206.569
21
-163.206
0
LINE
8
BLACK
6
CONTINUOUS
10
206.569
20
-163.206
11
206.664
21
-163.11
0
LINE
8
BLACK
6
CONTINUOUS
10
206.664
20
-163.11
11
206.855
21
-163.015
0
LINE
8
BLACK
6
CONTINUOUS
10
208.379
20
-164.825
11
208.474
21
-164.92
0
LINE
8
BLACK
6
CONTINUOUS
10
208.474
20
-164.92
11
208.379
21
-165.015
0
LINE
8
BLACK
6
CONTINUOUS
10
208.379
20
-165.015
11
208.283
21
-164.92
0
LINE
8
BLACK
6
CONTINUOUS
10
208.283
20
-164.92
11
208.379
21
-164.825
0
LINE
8
BLACK
6
CONTINUOUS
10
208.379
20
-164.825
11
208.379
21
-165.015
0
LINE
8
BLACK
6
CONTINUOUS
10
210.379
20
-165.015
11
209.236
21
-165.015
0
LINE
8
BLACK
6
CONTINUOUS
10
209.807
20
-165.015
11
209.807
21
-163.015
0
LINE
8
BLACK
6
CONTINUOUS
10
209.807
20
-163.015
11
209.617
21
-163.301
0
LINE
8
BLACK
6
CONTINUOUS
10
209.617
20
-163.301
11
209.426
21
-163.491
0
LINE
8
BLACK
6
CONTINUOUS
10
209.426
20
-163.491
11
209.236
21
-163.587
0
LINE
8
BLACK
6
CONTINUOUS
10
212.283
20
-165.015
11
211.14
21
-165.015
0
LINE
8
BLACK
6
CONTINUOUS
10
211.712
20
-165.015
11
211.712
21
-163.015
0
LINE
8
BLACK
6
CONTINUOUS
10
211.712
20
-163.015
11
211.521
21
-163.301
0
LINE
8
BLACK
6
CONTINUOUS
10
211.521
20
-163.301
11
211.331
21
-163.491
0
LINE
8
BLACK
6
CONTINUOUS
10
211.331
20
-163.491
11
211.14
21
-163.587
0
LINE
8
BLACK
6
CONTINUOUS
10
213.426
20
-163.872
11
213.236
21
-163.777
0
LINE
8
BLACK
6
CONTINUOUS
10
213.236
20
-163.777
11
213.14
21
-163.682
0
LINE
8
BLACK
6
CONTINUOUS
10
213.14
20
-163.682
11
213.045
21
-163.491
0
LINE
8
BLACK
6
CONTINUOUS
10
213.045
20
-163.491
11
213.045
21
-163.396
0
LINE
8
BLACK
6
CONTINUOUS
10
213.045
20
-163.396
11
213.14
21
-163.206
0
LINE
8
BLACK
6
CONTINUOUS
10
213.14
20
-163.206
11
213.236
21
-163.11
0
LINE
8
BLACK
6
CONTINUOUS
10
213.236
20
-163.11
11
213.426
21
-163.015
0
LINE
8
BLACK
6
CONTINUOUS
10
213.426
20
-163.015
11
213.807
21
-163.015
0
LINE
8
BLACK
6
CONTINUOUS
10
213.807
20
-163.015
11
213.998
21
-163.11
0
LINE
8
BLACK
6
CONTINUOUS
10
213.998
20
-163.11
11
214.093
21
-163.206
0
LINE
8
BLACK
6
CONTINUOUS
10
214.093
20
-163.206
11
214.188
21
-163.396
0
LINE
8
BLACK
6
CONTINUOUS
10
214.188
20
-163.396
11
214.188
21
-163.491
0
LINE
8
BLACK
6
CONTINUOUS
10
214.188
20
-163.491
11
214.093
21
-163.682
0
LINE
8
BLACK
6
CONTINUOUS
10
214.093
20
-163.682
11
213.998
21
-163.777
0
LINE
8
BLACK
6
CONTINUOUS
10
213.998
20
-163.777
11
213.807
21
-163.872
0
LINE
8
BLACK
6
CONTINUOUS
10
213.807
20
-163.872
11
213.426
21
-163.872
0
LINE
8
BLACK
6
CONTINUOUS
10
213.426
20
-163.872
11
213.236
21
-163.968
0
LINE
8
BLACK
6
CONTINUOUS
10
213.236
20
-163.968
11
213.14
21
-164.063
0
LINE
8
BLACK
6
CONTINUOUS
10
213.14
20
-164.063
11
213.045
21
-164.253
0
LINE
8
BLACK
6
CONTINUOUS
10
213.045
20
-164.253
11
213.045
21
-164.634
0
LINE
8
BLACK
6
CONTINUOUS
10
213.045
20
-164.634
11
213.14
21
-164.825
0
LINE
8
BLACK
6
CONTINUOUS
10
213.14
20
-164.825
11
213.236
21
-164.92
0
LINE
8
BLACK
6
CONTINUOUS
10
213.236
20
-164.92
11
213.426
21
-165.015
0
LINE
8
BLACK
6
CONTINUOUS
10
213.426
20
-165.015
11
213.807
21
-165.015
0
LINE
8
BLACK
6
CONTINUOUS
10
213.807
20
-165.015
11
213.998
21
-164.92
0
LINE
8
BLACK
6
CONTINUOUS
10
213.998
20
-164.92
11
214.093
21
-164.825
0
LINE
8
BLACK
6
CONTINUOUS
10
214.093
20
-164.825
11
214.188
21
-164.634
0
LINE
8
BLACK
6
CONTINUOUS
10
214.188
20
-164.634
11
214.188
21
-164.253
0
LINE
8
BLACK
6
CONTINUOUS
10
214.188
20
-164.253
11
214.093
21
-164.063
0
LINE
8
BLACK
6
CONTINUOUS
10
214.093
20
-164.063
11
213.998
21
-163.968
0
LINE
8
BLACK
6
CONTINUOUS
10
213.998
20
-163.968
11
213.807
21
-163.872
0
LINE
8
BLACK
6
CONTINUOUS
10
216.093
20
-165.015
11
214.95
21
-165.015
0
LINE
8
BLACK
6
CONTINUOUS
10
215.521
20
-165.015
11
215.521
21
-163.015
0
LINE
8
BLACK
6
CONTINUOUS
10
215.521
20
-163.015
11
215.331
21
-163.301
0
LINE
8
BLACK
6
CONTINUOUS
10
215.331
20
-163.301
11
215.14
21
-163.491
0
LINE
8
BLACK
6
CONTINUOUS
10
215.14
20
-163.491
11
214.95
21
-163.587
0
LINE
8
BLACK
6
CONTINUOUS
10
216.855
20
-163.015
11
216.855
21
-163.396
0
LINE
8
BLACK
6
CONTINUOUS
10
217.617
20
-163.015
11
217.617
21
-163.396
0
LINE
8
BLACK
6
CONTINUOUS
10
220.569
20
-165.777
11
220.474
21
-165.682
0
LINE
8
BLACK
6
CONTINUOUS
10
220.474
20
-165.682
11
220.283
21
-165.396
0
LINE
8
BLACK
6
CONTINUOUS
10
220.283
20
-165.396
11
220.188
21
-165.206
0
LINE
8
BLACK
6
CONTINUOUS
10
220.188
20
-165.206
11
220.093
21
-164.92
0
LINE
8
BLACK
6
CONTINUOUS
10
220.093
20
-164.92
11
219.998
21
-164.444
0
LINE
8
BLACK
6
CONTINUOUS
10
219.998
20
-164.444
11
219.998
21
-164.063
0
LINE
8
BLACK
6
CONTINUOUS
10
219.998
20
-164.063
11
220.093
21
-163.587
0
LINE
8
BLACK
6
CONTINUOUS
10
220.093
20
-163.587
11
220.188
21
-163.301
0
LINE
8
BLACK
6
CONTINUOUS
10
220.188
20
-163.301
11
220.283
21
-163.11
0
LINE
8
BLACK
6
CONTINUOUS
10
220.283
20
-163.11
11
220.474
21
-162.825
0
LINE
8
BLACK
6
CONTINUOUS
10
220.474
20
-162.825
11
220.569
21
-162.73
0
LINE
8
BLACK
6
CONTINUOUS
10
221.236
20
-163.206
11
221.331
21
-163.11
0
LINE
8
BLACK
6
CONTINUOUS
10
221.331
20
-163.11
11
221.521
21
-163.015
0
LINE
8
BLACK
6
CONTINUOUS
10
221.521
20
-163.015
11
221.998
21
-163.015
0
LINE
8
BLACK
6
CONTINUOUS
10
221.998
20
-163.015
11
222.188
21
-163.11
0
LINE
8
BLACK
6
CONTINUOUS
10
222.188
20
-163.11
11
222.283
21
-163.206
0
LINE
8
BLACK
6
CONTINUOUS
10
222.283
20
-163.206
11
222.379
21
-163.396
0
LINE
8
BLACK
6
CONTINUOUS
10
222.379
20
-163.396
11
222.379
21
-163.587
0
LINE
8
BLACK
6
CONTINUOUS
10
222.379
20
-163.587
11
222.283
21
-163.872
0
LINE
8
BLACK
6
CONTINUOUS
10
222.283
20
-163.872
11
221.14
21
-165.015
0
LINE
8
BLACK
6
CONTINUOUS
10
221.14
20
-165.015
11
222.379
21
-165.015
0
LINE
8
BLACK
6
CONTINUOUS
10
224.76
20
-165.015
11
224.76
21
-163.015
0
LINE
8
BLACK
6
CONTINUOUS
10
225.617
20
-165.015
11
225.617
21
-163.968
0
LINE
8
BLACK
6
CONTINUOUS
10
225.617
20
-163.968
11
225.521
21
-163.777
0
LINE
8
BLACK
6
CONTINUOUS
10
225.521
20
-163.777
11
225.331
21
-163.682
0
LINE
8
BLACK
6
CONTINUOUS
10
225.331
20
-163.682
11
225.045
21
-163.682
0
LINE
8
BLACK
6
CONTINUOUS
10
225.045
20
-163.682
11
224.855
21
-163.777
0
LINE
8
BLACK
6
CONTINUOUS
10
224.855
20
-163.777
11
224.76
21
-163.872
0
LINE
8
BLACK
6
CONTINUOUS
10
226.855
20
-165.015
11
226.664
21
-164.92
0
LINE
8
BLACK
6
CONTINUOUS
10
226.664
20
-164.92
11
226.569
21
-164.825
0
LINE
8
BLACK
6
CONTINUOUS
10
226.569
20
-164.825
11
226.474
21
-164.634
0
LINE
8
BLACK
6
CONTINUOUS
10
226.474
20
-164.634
11
226.474
21
-164.063
0
LINE
8
BLACK
6
CONTINUOUS
10
226.474
20
-164.063
11
226.569
21
-163.872
0
LINE
8
BLACK
6
CONTINUOUS
10
226.569
20
-163.872
11
226.664
21
-163.777
0
LINE
8
BLACK
6
CONTINUOUS
10
226.664
20
-163.777
11
226.855
21
-163.682
0
LINE
8
BLACK
6
CONTINUOUS
10
226.855
20
-163.682
11
227.14
21
-163.682
0
LINE
8
BLACK
6
CONTINUOUS
10
227.14
20
-163.682
11
227.331
21
-163.777
0
LINE
8
BLACK
6
CONTINUOUS
10
227.331
20
-163.777
11
227.426
21
-163.872
0
LINE
8
BLACK
6
CONTINUOUS
10
227.426
20
-163.872
11
227.521
21
-164.063
0
LINE
8
BLACK
6
CONTINUOUS
10
227.521
20
-164.063
11
227.521
21
-164.634
0
LINE
8
BLACK
6
CONTINUOUS
10
227.521
20
-164.634
11
227.426
21
-164.825
0
LINE
8
BLACK
6
CONTINUOUS
10
227.426
20
-164.825
11
227.331
21
-164.92
0
LINE
8
BLACK
6
CONTINUOUS
10
227.331
20
-164.92
11
227.14
21
-165.015
0
LINE
8
BLACK
6
CONTINUOUS
10
227.14
20
-165.015
11
226.855
21
-165.015
0
LINE
8
BLACK
6
CONTINUOUS
10
228.664
20
-165.015
11
228.474
21
-164.92
0
LINE
8
BLACK
6
CONTINUOUS
10
228.474
20
-164.92
11
228.379
21
-164.73
0
LINE
8
BLACK
6
CONTINUOUS
10
228.379
20
-164.73
11
228.379
21
-163.015
0
LINE
8
BLACK
6
CONTINUOUS
10
230.188
20
-164.92
11
229.998
21
-165.015
0
LINE
8
BLACK
6
CONTINUOUS
10
229.998
20
-165.015
11
229.617
21
-165.015
0
LINE
8
BLACK
6
CONTINUOUS
10
229.617
20
-165.015
11
229.426
21
-164.92
0
LINE
8
BLACK
6
CONTINUOUS
10
229.426
20
-164.92
11
229.331
21
-164.73
0
LINE
8
BLACK
6
CONTINUOUS
10
229.331
20
-164.73
11
229.331
21
-163.968
0
LINE
8
BLACK
6
CONTINUOUS
10
229.331
20
-163.968
11
229.426
21
-163.777
0
LINE
8
BLACK
6
CONTINUOUS
10
229.426
20
-163.777
11
229.617
21
-163.682
0
LINE
8
BLACK
6
CONTINUOUS
10
229.617
20
-163.682
11
229.998
21
-163.682
0
LINE
8
BLACK
6
CONTINUOUS
10
229.998
20
-163.682
11
230.188
21
-163.777
0
LINE
8
BLACK
6
CONTINUOUS
10
230.188
20
-163.777
11
230.283
21
-163.968
0
LINE
8
BLACK
6
CONTINUOUS
10
230.283
20
-163.968
11
230.283
21
-164.158
0
LINE
8
BLACK
6
CONTINUOUS
10
230.283
20
-164.158
11
229.331
21
-164.349
0
LINE
8
BLACK
6
CONTINUOUS
10
231.045
20
-164.92
11
231.236
21
-165.015
0
LINE
8
BLACK
6
CONTINUOUS
10
231.236
20
-165.015
11
231.617
21
-165.015
0
LINE
8
BLACK
6
CONTINUOUS
10
231.617
20
-165.015
11
231.807
21
-164.92
0
LINE
8
BLACK
6
CONTINUOUS
10
231.807
20
-164.92
11
231.902
21
-164.73
0
LINE
8
BLACK
6
CONTINUOUS
10
231.902
20
-164.73
11
231.902
21
-164.634
0
LINE
8
BLACK
6
CONTINUOUS
10
231.902
20
-164.634
11
231.807
21
-164.444
0
LINE
8
BLACK
6
CONTINUOUS
10
231.807
20
-164.444
11
231.617
21
-164.349
0
LINE
8
BLACK
6
CONTINUOUS
10
231.617
20
-164.349
11
231.331
21
-164.349
0
LINE
8
BLACK
6
CONTINUOUS
10
231.331
20
-164.349
11
231.14
21
-164.253
0
LINE
8
BLACK
6
CONTINUOUS
10
231.14
20
-164.253
11
231.045
21
-164.063
0
LINE
8
BLACK
6
CONTINUOUS
10
231.045
20
-164.063
11
231.045
21
-163.968
0
LINE
8
BLACK
6
CONTINUOUS
10
231.045
20
-163.968
11
231.14
21
-163.777
0
LINE
8
BLACK
6
CONTINUOUS
10
231.14
20
-163.777
11
231.331
21
-163.682
0
LINE
8
BLACK
6
CONTINUOUS
10
231.331
20
-163.682
11
231.617
21
-163.682
0
LINE
8
BLACK
6
CONTINUOUS
10
231.617
20
-163.682
11
231.807
21
-163.777
0
LINE
8
BLACK
6
CONTINUOUS
10
232.569
20
-165.777
11
232.664
21
-165.682
0
LINE
8
BLACK
6
CONTINUOUS
10
232.664
20
-165.682
11
232.855
21
-165.396
0
LINE
8
BLACK
6
CONTINUOUS
10
232.855
20
-165.396
11
232.95
21
-165.206
0
LINE
8
BLACK
6
CONTINUOUS
10
232.95
20
-165.206
11
233.045
21
-164.92
0
LINE
8
BLACK
6
CONTINUOUS
10
233.045
20
-164.92
11
233.14
21
-164.444
0
LINE
8
BLACK
6
CONTINUOUS
10
233.14
20
-164.444
11
233.14
21
-164.063
0
LINE
8
BLACK
6
CONTINUOUS
10
233.14
20
-164.063
11
233.045
21
-163.587
0
LINE
8
BLACK
6
CONTINUOUS
10
233.045
20
-163.587
11
232.95
21
-163.301
0
LINE
8
BLACK
6
CONTINUOUS
10
232.95
20
-163.301
11
232.855
21
-163.11
0
LINE
8
BLACK
6
CONTINUOUS
10
232.855
20
-163.11
11
232.664
21
-162.825
0
LINE
8
BLACK
6
CONTINUOUS
10
232.664
20
-162.825
11
232.569
21
-162.73
  0
ENDSEC
  0
EOF
