%TF.GenerationSoftware,KiCad,Pcbnew,7.0.6-7.0.6~ubuntu22.04.1*%
%TF.CreationDate,2023-08-02T12:04:11+12:00*%
%TF.ProjectId,TWIST_SWTICH_SPACER_PLATE-v1.0,54574953-545f-4535-9754-4943485f5350,v1.0*%
%TF.SameCoordinates,Original*%
%TF.FileFunction,Legend,Bot*%
%TF.FilePolarity,Positive*%
%FSLAX46Y46*%
G04 Gerber Fmt 4.6, Leading zero omitted, Abs format (unit mm)*
G04 Created by KiCad (PCBNEW 7.0.6-7.0.6~ubuntu22.04.1) date 2023-08-02 12:04:11*
%MOMM*%
%LPD*%
G01*
G04 APERTURE LIST*
%ADD10C,0.200000*%
G04 APERTURE END LIST*
D10*
X205214285Y-153904600D02*
X205071428Y-153952219D01*
X205071428Y-153952219D02*
X204833333Y-153952219D01*
X204833333Y-153952219D02*
X204738095Y-153904600D01*
X204738095Y-153904600D02*
X204690476Y-153856980D01*
X204690476Y-153856980D02*
X204642857Y-153761742D01*
X204642857Y-153761742D02*
X204642857Y-153666504D01*
X204642857Y-153666504D02*
X204690476Y-153571266D01*
X204690476Y-153571266D02*
X204738095Y-153523647D01*
X204738095Y-153523647D02*
X204833333Y-153476028D01*
X204833333Y-153476028D02*
X205023809Y-153428409D01*
X205023809Y-153428409D02*
X205119047Y-153380790D01*
X205119047Y-153380790D02*
X205166666Y-153333171D01*
X205166666Y-153333171D02*
X205214285Y-153237933D01*
X205214285Y-153237933D02*
X205214285Y-153142695D01*
X205214285Y-153142695D02*
X205166666Y-153047457D01*
X205166666Y-153047457D02*
X205119047Y-152999838D01*
X205119047Y-152999838D02*
X205023809Y-152952219D01*
X205023809Y-152952219D02*
X204785714Y-152952219D01*
X204785714Y-152952219D02*
X204642857Y-152999838D01*
X204214285Y-153952219D02*
X204214285Y-152952219D01*
X204214285Y-152952219D02*
X203833333Y-152952219D01*
X203833333Y-152952219D02*
X203738095Y-152999838D01*
X203738095Y-152999838D02*
X203690476Y-153047457D01*
X203690476Y-153047457D02*
X203642857Y-153142695D01*
X203642857Y-153142695D02*
X203642857Y-153285552D01*
X203642857Y-153285552D02*
X203690476Y-153380790D01*
X203690476Y-153380790D02*
X203738095Y-153428409D01*
X203738095Y-153428409D02*
X203833333Y-153476028D01*
X203833333Y-153476028D02*
X204214285Y-153476028D01*
X203261904Y-153666504D02*
X202785714Y-153666504D01*
X203357142Y-153952219D02*
X203023809Y-152952219D01*
X203023809Y-152952219D02*
X202690476Y-153952219D01*
X201785714Y-153856980D02*
X201833333Y-153904600D01*
X201833333Y-153904600D02*
X201976190Y-153952219D01*
X201976190Y-153952219D02*
X202071428Y-153952219D01*
X202071428Y-153952219D02*
X202214285Y-153904600D01*
X202214285Y-153904600D02*
X202309523Y-153809361D01*
X202309523Y-153809361D02*
X202357142Y-153714123D01*
X202357142Y-153714123D02*
X202404761Y-153523647D01*
X202404761Y-153523647D02*
X202404761Y-153380790D01*
X202404761Y-153380790D02*
X202357142Y-153190314D01*
X202357142Y-153190314D02*
X202309523Y-153095076D01*
X202309523Y-153095076D02*
X202214285Y-152999838D01*
X202214285Y-152999838D02*
X202071428Y-152952219D01*
X202071428Y-152952219D02*
X201976190Y-152952219D01*
X201976190Y-152952219D02*
X201833333Y-152999838D01*
X201833333Y-152999838D02*
X201785714Y-153047457D01*
X201357142Y-153428409D02*
X201023809Y-153428409D01*
X200880952Y-153952219D02*
X201357142Y-153952219D01*
X201357142Y-153952219D02*
X201357142Y-152952219D01*
X201357142Y-152952219D02*
X200880952Y-152952219D01*
X199880952Y-153952219D02*
X200214285Y-153476028D01*
X200452380Y-153952219D02*
X200452380Y-152952219D01*
X200452380Y-152952219D02*
X200071428Y-152952219D01*
X200071428Y-152952219D02*
X199976190Y-152999838D01*
X199976190Y-152999838D02*
X199928571Y-153047457D01*
X199928571Y-153047457D02*
X199880952Y-153142695D01*
X199880952Y-153142695D02*
X199880952Y-153285552D01*
X199880952Y-153285552D02*
X199928571Y-153380790D01*
X199928571Y-153380790D02*
X199976190Y-153428409D01*
X199976190Y-153428409D02*
X200071428Y-153476028D01*
X200071428Y-153476028D02*
X200452380Y-153476028D01*
X198690475Y-153952219D02*
X198690475Y-152952219D01*
X198690475Y-152952219D02*
X198309523Y-152952219D01*
X198309523Y-152952219D02*
X198214285Y-152999838D01*
X198214285Y-152999838D02*
X198166666Y-153047457D01*
X198166666Y-153047457D02*
X198119047Y-153142695D01*
X198119047Y-153142695D02*
X198119047Y-153285552D01*
X198119047Y-153285552D02*
X198166666Y-153380790D01*
X198166666Y-153380790D02*
X198214285Y-153428409D01*
X198214285Y-153428409D02*
X198309523Y-153476028D01*
X198309523Y-153476028D02*
X198690475Y-153476028D01*
X197214285Y-153952219D02*
X197690475Y-153952219D01*
X197690475Y-153952219D02*
X197690475Y-152952219D01*
X196928570Y-153666504D02*
X196452380Y-153666504D01*
X197023808Y-153952219D02*
X196690475Y-152952219D01*
X196690475Y-152952219D02*
X196357142Y-153952219D01*
X196166665Y-152952219D02*
X195595237Y-152952219D01*
X195880951Y-153952219D02*
X195880951Y-152952219D01*
X195261903Y-153428409D02*
X194928570Y-153428409D01*
X194785713Y-153952219D02*
X195261903Y-153952219D01*
X195261903Y-153952219D02*
X195261903Y-152952219D01*
X195261903Y-152952219D02*
X194785713Y-152952219D01*
M02*
