%TF.GenerationSoftware,KiCad,Pcbnew,7.0.6-7.0.6~ubuntu22.04.1*%
%TF.CreationDate,2023-08-02T12:04:11+12:00*%
%TF.ProjectId,TWIST_SWTICH_SPACER_PLATE-v1.0,54574953-545f-4535-9754-4943485f5350,v1.0*%
%TF.SameCoordinates,Original*%
%TF.FileFunction,Copper,L2,Bot*%
%TF.FilePolarity,Positive*%
%FSLAX46Y46*%
G04 Gerber Fmt 4.6, Leading zero omitted, Abs format (unit mm)*
G04 Created by KiCad (PCBNEW 7.0.6-7.0.6~ubuntu22.04.1) date 2023-08-02 12:04:11*
%MOMM*%
%LPD*%
G01*
G04 APERTURE LIST*
G04 APERTURE END LIST*
%TA.AperFunction,NonConductor*%
G36*
X208742539Y-145220185D02*
G01*
X208788294Y-145272989D01*
X208799500Y-145324500D01*
X208799500Y-154675500D01*
X208779815Y-154742539D01*
X208727011Y-154788294D01*
X208675500Y-154799500D01*
X191324500Y-154799500D01*
X191257461Y-154779815D01*
X191211706Y-154727011D01*
X191200500Y-154675500D01*
X191200500Y-150056330D01*
X192745710Y-150056330D01*
X192775925Y-150279387D01*
X192775926Y-150279390D01*
X192845483Y-150493465D01*
X192952146Y-150691678D01*
X192952148Y-150691681D01*
X193092489Y-150867663D01*
X193092491Y-150867664D01*
X193092492Y-150867666D01*
X193262004Y-151015765D01*
X193455236Y-151131215D01*
X193665976Y-151210307D01*
X193887450Y-151250500D01*
X193887453Y-151250500D01*
X194056148Y-151250500D01*
X194056155Y-151250500D01*
X194224188Y-151235377D01*
X194224192Y-151235376D01*
X194441160Y-151175496D01*
X194441162Y-151175495D01*
X194441170Y-151175493D01*
X194643973Y-151077829D01*
X194826078Y-150945522D01*
X194981632Y-150782825D01*
X195105635Y-150594968D01*
X195194103Y-150387988D01*
X195244191Y-150168537D01*
X195248157Y-150080236D01*
X197395793Y-150080236D01*
X197425391Y-150399651D01*
X197425392Y-150399657D01*
X197494018Y-150713013D01*
X197575952Y-150945522D01*
X197600634Y-151015564D01*
X197743621Y-151302721D01*
X197920812Y-151570130D01*
X198129522Y-151813737D01*
X198366586Y-152029849D01*
X198366589Y-152029851D01*
X198628405Y-152215187D01*
X198628415Y-152215193D01*
X198911016Y-152366948D01*
X198911022Y-152366950D01*
X198911029Y-152366954D01*
X199072490Y-152429504D01*
X199210144Y-152482832D01*
X199210147Y-152482832D01*
X199210153Y-152482835D01*
X199521251Y-152561079D01*
X199640634Y-152575861D01*
X199839602Y-152600500D01*
X199839607Y-152600500D01*
X200080119Y-152600500D01*
X200080126Y-152600500D01*
X200320178Y-152585694D01*
X200635503Y-152526750D01*
X200941194Y-152429502D01*
X201232618Y-152295426D01*
X201505356Y-152126554D01*
X201755275Y-151925445D01*
X201978585Y-151695148D01*
X202171903Y-151439155D01*
X202332296Y-151161345D01*
X202457334Y-150865931D01*
X202545122Y-150557390D01*
X202594328Y-150240400D01*
X202599999Y-150056330D01*
X204745710Y-150056330D01*
X204775925Y-150279387D01*
X204775926Y-150279390D01*
X204845483Y-150493465D01*
X204952146Y-150691678D01*
X204952148Y-150691681D01*
X205092489Y-150867663D01*
X205092491Y-150867664D01*
X205092492Y-150867666D01*
X205262004Y-151015765D01*
X205455236Y-151131215D01*
X205665976Y-151210307D01*
X205887450Y-151250500D01*
X205887453Y-151250500D01*
X206056148Y-151250500D01*
X206056155Y-151250500D01*
X206224188Y-151235377D01*
X206224192Y-151235376D01*
X206441160Y-151175496D01*
X206441162Y-151175495D01*
X206441170Y-151175493D01*
X206643973Y-151077829D01*
X206826078Y-150945522D01*
X206981632Y-150782825D01*
X207105635Y-150594968D01*
X207194103Y-150387988D01*
X207244191Y-150168537D01*
X207254290Y-149943670D01*
X207224075Y-149720613D01*
X207154517Y-149506536D01*
X207047852Y-149308319D01*
X206975167Y-149217175D01*
X206907510Y-149132336D01*
X206907508Y-149132334D01*
X206737996Y-148984235D01*
X206544764Y-148868785D01*
X206426775Y-148824503D01*
X206334023Y-148789692D01*
X206112550Y-148749500D01*
X206112547Y-148749500D01*
X205943845Y-148749500D01*
X205905399Y-148752960D01*
X205775813Y-148764622D01*
X205775807Y-148764623D01*
X205558839Y-148824503D01*
X205558826Y-148824508D01*
X205356033Y-148922167D01*
X205356025Y-148922171D01*
X205173927Y-149054473D01*
X205173925Y-149054474D01*
X205018366Y-149217176D01*
X204894363Y-149405033D01*
X204805899Y-149612004D01*
X204805895Y-149612017D01*
X204755810Y-149831457D01*
X204755808Y-149831468D01*
X204750769Y-149943674D01*
X204745710Y-150056330D01*
X202599999Y-150056330D01*
X202604206Y-149919765D01*
X202574608Y-149600347D01*
X202540063Y-149442610D01*
X202505981Y-149286986D01*
X202476974Y-149204671D01*
X202399366Y-148984436D01*
X202256379Y-148697279D01*
X202079188Y-148429870D01*
X201870478Y-148186263D01*
X201701049Y-148031808D01*
X201633420Y-147970156D01*
X201633410Y-147970148D01*
X201371594Y-147784812D01*
X201371584Y-147784806D01*
X201088983Y-147633051D01*
X201088973Y-147633047D01*
X201088971Y-147633046D01*
X201020805Y-147606638D01*
X200789855Y-147517167D01*
X200789851Y-147517166D01*
X200478745Y-147438920D01*
X200160398Y-147399500D01*
X200160393Y-147399500D01*
X199919874Y-147399500D01*
X199840666Y-147404385D01*
X199679824Y-147414305D01*
X199364499Y-147473249D01*
X199364497Y-147473250D01*
X199058814Y-147570495D01*
X199058810Y-147570496D01*
X199058806Y-147570498D01*
X198884928Y-147650494D01*
X198767381Y-147704574D01*
X198494656Y-147873437D01*
X198494636Y-147873451D01*
X198244728Y-148074551D01*
X198021413Y-148304853D01*
X197828095Y-148560847D01*
X197667701Y-148838660D01*
X197542668Y-149134062D01*
X197542660Y-149134086D01*
X197454879Y-149442602D01*
X197454878Y-149442607D01*
X197405672Y-149759592D01*
X197405671Y-149759603D01*
X197395793Y-150080236D01*
X195248157Y-150080236D01*
X195254290Y-149943670D01*
X195224075Y-149720613D01*
X195154517Y-149506536D01*
X195047852Y-149308319D01*
X194975167Y-149217175D01*
X194907510Y-149132336D01*
X194907508Y-149132334D01*
X194737996Y-148984235D01*
X194544764Y-148868785D01*
X194426775Y-148824503D01*
X194334023Y-148789692D01*
X194112550Y-148749500D01*
X194112547Y-148749500D01*
X193943845Y-148749500D01*
X193905399Y-148752960D01*
X193775813Y-148764622D01*
X193775807Y-148764623D01*
X193558839Y-148824503D01*
X193558826Y-148824508D01*
X193356033Y-148922167D01*
X193356025Y-148922171D01*
X193173927Y-149054473D01*
X193173925Y-149054474D01*
X193018366Y-149217176D01*
X192894363Y-149405033D01*
X192805899Y-149612004D01*
X192805895Y-149612017D01*
X192755810Y-149831457D01*
X192755808Y-149831468D01*
X192750769Y-149943674D01*
X192745710Y-150056330D01*
X191200500Y-150056330D01*
X191200500Y-145324500D01*
X191220185Y-145257461D01*
X191272989Y-145211706D01*
X191324500Y-145200500D01*
X208675500Y-145200500D01*
X208742539Y-145220185D01*
G37*
%TD.AperFunction*%
M02*
